<?xml version="1.0" encoding="UTF-8"?>
<svg xmlns="http://www.w3.org/2000/svg" xmlns:xlink="http://www.w3.org/1999/xlink" width="1824" height="2000" viewBox="0 0 1824 2000" transform="scale(-1, 1)">
<path fill-rule="evenodd" fill="rgb(18.406677%, 52.929688%, 5.499268%)" fill-opacity="1" d="M 687.25 493.210938 C 658.761719 437.648438 638.105469 395 633.007812 379.730469 C 629.640625 369.648438 627.203125 359.988281 625.621094 350.738281 C 644.101562 318.179688 685.765625 298.871094 737.269531 285.179688 C 692.011719 278.691406 648.925781 291.710938 608.386719 327.660156 C 566.675781 241.648438 562.578125 140.390625 608.386719 107.210938 C 685.960938 51.019531 956.765625 160.699219 975.675781 210.398438 C 979.300781 219.921875 982.753906 229.519531 986.054688 239.21875 L 909.742188 244.371094 C 943.320312 246.578125 976.382812 247.679688 997.371094 262.480469 C 1093.519531 577.089844 1028.398438 950.371094 1028.398438 950.371094 C 997.25 969.71875 962.558594 986.238281 947.65625 950.371094 C 936.226562 954.28125 797.433594 704.730469 707.65625 532.640625 L 827.5625 466.300781 L 687.25 493.210938 "/>
<path fill-rule="evenodd" fill="rgb(16.088867%, 45.896912%, 4.699707%)" fill-opacity="1" d="M 849.828125 132.101562 C 914.429688 157.511719 967.664062 189.339844 975.675781 210.398438 C 979.300781 219.921875 982.753906 229.519531 986.054688 239.21875 L 909.742188 244.371094 C 943.320312 246.578125 976.382812 247.679688 997.371094 262.480469 C 1092.019531 572.179688 1030.390625 938.730469 1028.441406 950.089844 L 1028.398438 950.371094 C 1025.121094 689.449219 995.65625 423.019531 849.828125 132.101562 "/>
<path fill-rule="evenodd" fill="rgb(20.800781%, 59.179688%, 6.298828%)" fill-opacity="1" d="M 750.875 614.390625 C 735.75 586.121094 721.152344 558.511719 707.65625 532.640625 L 827.5625 466.300781 L 687.25 493.210938 C 658.761719 437.648438 638.105469 395 633.007812 379.730469 C 629.640625 369.648438 627.203125 359.988281 625.621094 350.738281 C 644.101562 318.179688 685.765625 298.871094 737.269531 285.179688 C 692.011719 278.691406 648.925781 291.710938 608.386719 327.660156 C 566.675781 241.648438 563.601562 141.761719 608.386719 107.210938 C 615.308594 101.871094 626.050781 98.21875 626.050781 98.21875 C 644.140625 186.039062 1025.160156 387.441406 750.875 614.390625 "/>
<path fill-rule="evenodd" fill="rgb(25.488281%, 48.193359%, 13.696289%)" fill-opacity="1" d="M 640.777344 94.320312 C 938.523438 201.949219 986.96875 564.839844 1013.359375 950.371094 L 1024.691406 990.679688 L 975.675781 986.441406 L 987.261719 950.371094 C 962.464844 558.898438 894.070312 216.371094 625.863281 98.289062 C 630.5 96.648438 635.488281 95.339844 640.777344 94.320312 "/>
<path fill-rule="evenodd" fill="rgb(12.5%, 36.108398%, 3.900146%)" fill-opacity="1" d="M 354.992188 379.730469 C 354.992188 379.730469 298.515625 435.671875 308.132812 476.328125 C 314.617188 503.761719 511.886719 736.558594 528.828125 744.910156 C 599.515625 820.300781 764.050781 977.351562 835.429688 946.371094 C 862.171875 934.769531 894.648438 880.921875 886.972656 832.929688 L 523.574219 478.160156 L 354.992188 379.730469 "/>
<path fill-rule="evenodd" fill="rgb(18.406677%, 52.929688%, 5.499268%)" fill-opacity="1" d="M 416.515625 689.851562 C 406.261719 672.078125 396.347656 654.300781 389.753906 641.078125 L 516.210938 498.058594 L 374.90625 613.960938 L 354.675781 586.640625 L 317.460938 538.808594 L 310.949219 528.121094 C 310.949219 528.121094 297.992188 504.761719 295.296875 497.21875 C 270.660156 428.191406 345.410156 372.339844 352.414062 367.300781 C 350.515625 365.988281 349.84375 363.660156 350.886719 361.890625 C 351.964844 360.058594 354.507812 359.46875 356.691406 360.53125 C 554.734375 461.839844 756.6875 635.300781 932.710938 898.550781 L 975.675781 973.808594 L 951.296875 1017.710938 L 913.628906 932.921875 C 913.628906 932.921875 840.183594 1018.621094 783.089844 1017.609375 C 725.996094 1016.597656 638.800781 947.738281 638.800781 947.738281 L 712.589844 843.980469 L 613.9375 922.800781 C 570.433594 888.800781 490.265625 793.058594 490.265625 793.058594 L 553.425781 714.199219 L 458.085938 759.609375 C 458.085938 759.609375 444.96875 738.28125 429.605469 712.261719 L 515.304688 613.960938 L 416.515625 689.851562 "/>
<path fill-rule="evenodd" fill="rgb(20.800781%, 59.179688%, 6.298828%)" fill-opacity="1" d="M 290.578125 475.28125 C 286.070312 416.679688 346.171875 371.800781 352.414062 367.300781 C 350.515625 365.988281 349.84375 363.660156 350.886719 361.890625 C 351.964844 360.058594 354.507812 359.46875 356.691406 360.53125 C 505.402344 436.601562 656.316406 553.359375 796.777344 718.230469 C 769.140625 725.261719 732.796875 726.191406 720.070312 688.859375 C 698.515625 625.628906 629.253906 649.398438 597.574219 591.21875 C 569.585938 539.820312 550.976562 529.390625 515.605469 498.738281 L 516.210938 498.058594 L 515.492188 498.648438 C 510.855469 494.628906 505.9375 490.269531 500.671875 485.421875 C 465.574219 453.121094 435.328125 448.441406 394.644531 421.320312 C 353.960938 394.191406 346.394531 486.660156 308.722656 478.160156 C 302.71875 476.800781 296.605469 475.871094 290.578125 475.28125 "/>
<path fill-rule="evenodd" fill="rgb(25.488281%, 48.193359%, 13.696289%)" fill-opacity="1" d="M 352.328125 367.238281 C 350.496094 365.910156 349.859375 363.628906 350.886719 361.890625 C 351.964844 360.058594 354.507812 359.46875 356.691406 360.53125 C 554.734375 461.839844 756.6875 635.300781 932.710938 898.550781 L 975.675781 973.808594 L 951.296875 1017.710938 L 913.628906 932.921875 C 800.941406 710.050781 619.75 518.789062 352.414062 367.300781 L 352.328125 367.238281 "/>
<path fill-rule="evenodd" fill="rgb(21.801758%, 41.308594%, 11.69281%)" fill-opacity="1" d="M 945.578125 944.289062 L 974.242188 976.808594 L 951.367188 1018.007812 L 913.699219 933.210938 C 908.886719 923.699219 904.183594 914.621094 899.054688 904.980469 L 945.578125 944.289062 "/>
<path fill-rule="evenodd" fill="rgb(18.406677%, 52.929688%, 5.499268%)" fill-opacity="1" d="M 1304.03125 291.710938 C 1369.648438 238.429688 1481.019531 201.839844 1501.621094 212.140625 C 1527.308594 224.980469 1568.878906 289.449219 1572.789062 369.21875 L 1446.738281 328.179688 L 1572.5 398.230469 C 1568.628906 453.640625 1545.078125 513.949219 1485.871094 568.320312 C 1474.488281 578.769531 1461.269531 590.769531 1446.640625 603.941406 L 1247.648438 483.519531 L 1405.269531 640.960938 C 1355.679688 685.128906 1297.160156 736.671875 1241.160156 785.75 L 1156.628906 725.460938 L 1218.570312 805.539062 C 1115.929688 895.390625 1027.550781 972.039062 1027.550781 972.039062 L 990.09375 972.039062 C 990.09375 972.039062 997.613281 540.96875 1221.808594 339.558594 C 1238.890625 324.210938 1256.769531 310.199219 1274.871094 297.550781 L 1351.328125 310.671875 L 1304.03125 291.710938 "/>
<path fill-rule="evenodd" fill="rgb(16.088867%, 45.896912%, 4.699707%)" fill-opacity="1" d="M 1201.640625 783.660156 L 1218.570312 805.539062 C 1115.929688 895.390625 1027.550781 972.039062 1027.550781 972.039062 L 998.605469 972.039062 C 1066.921875 904.890625 1136.308594 842.859375 1201.640625 783.660156 Z M 1378.480469 614.199219 L 1405.269531 640.960938 C 1355.679688 685.128906 1297.160156 736.671875 1241.160156 785.75 L 1217.738281 769.050781 C 1276.320312 715.789062 1331.179688 664.738281 1378.480469 614.199219 Z M 1529.941406 374.53125 L 1572.5 398.230469 C 1568.628906 453.640625 1545.078125 513.949219 1485.871094 568.320312 C 1474.488281 578.769531 1461.269531 590.769531 1446.640625 603.941406 L 1408.558594 580.890625 C 1467.359375 513.199219 1510.949219 445.761719 1529.941406 374.53125 Z M 1537.101562 250.75 C 1554.808594 279.730469 1570.460938 321.769531 1572.789062 369.21875 L 1534.171875 356.648438 C 1541.230469 322.449219 1542.539062 287.289062 1537.101562 250.75 "/>
<path fill-rule="evenodd" fill="rgb(20.800781%, 59.179688%, 6.298828%)" fill-opacity="1" d="M 1488.039062 210.480469 C 1486.878906 246.46875 1478.050781 287.148438 1456.140625 331.25 L 1446.738281 328.179688 L 1455.289062 332.949219 C 1431.421875 380.378906 1392.359375 431.75 1331.449219 485.421875 C 1320.328125 495.230469 1308.960938 504.628906 1297.398438 513.628906 L 1247.648438 483.519531 L 1286.289062 522.121094 C 1209.878906 579.410156 1125.421875 620.289062 1043.308594 649.488281 C 1077.039062 537.609375 1132.058594 420.191406 1221.808594 339.558594 C 1238.890625 324.210938 1256.769531 310.199219 1274.871094 297.550781 L 1351.328125 310.671875 L 1304.03125 291.710938 C 1360.480469 245.871094 1450.800781 212.390625 1488.039062 210.480469 "/>
<path fill-rule="evenodd" fill="rgb(25.488281%, 48.193359%, 13.696289%)" fill-opacity="1" d="M 965.90625 1011.808594 C 1097.191406 745.429688 1239.398438 316.960938 1495.398438 210.210938 C 1224.171875 376.148438 1136.320312 749.191406 1006.03125 1017.710938 L 965.90625 1011.808594 "/>
<path fill-rule="evenodd" fill="rgb(12.5%, 36.108398%, 3.900146%)" fill-opacity="1" d="M 1786.890625 633.449219 C 1786.890625 633.449219 1823.191406 704.171875 1801.421875 739.828125 C 1786.730469 763.878906 1547.359375 947.699219 1528.660156 950.371094 C 1438.050781 1000.0625 1212.378906 1116.476562 1147.691406 1037.324219 C 1129.238281 1014.757812 1089.449219 969.601562 1111.660156 926.371094 L 1786.890625 633.449219 "/>
<path fill-rule="evenodd" fill="rgb(18.406677%, 52.929688%, 5.499268%)" fill-opacity="1" d="M 1122.179688 942.320312 C 1064.910156 998.75 1039.058594 1045.519531 1030.390625 1087 L 966.214844 1023.65625 L 1069.320312 943.609375 L 1118.960938 901.671875 C 1361.398438 725.640625 1577.269531 647.808594 1775.5 635.210938 C 1777.699219 635.109375 1794.410156 633.621094 1794.710938 633.449219 L 1794.539062 640.390625 C 1794.539062 640.390625 1842.511719 730.441406 1794.539062 788.339844 C 1750.121094 841.949219 1712.53125 848.308594 1712.53125 848.308594 L 1668.511719 788.339844 L 1672.828125 875.859375 C 1595.851562 961.179688 1497.289062 1023.128906 1374.320312 1058.628906 L 1321.449219 942.320312 L 1344.558594 1071.867188 C 1344.558594 1071.867188 1270.449219 1112.152344 1222.75 1089.125 C 1175.050781 1066.097656 1122.179688 942.320312 1122.179688 942.320312 "/>
<path fill-rule="evenodd" fill="rgb(16.088867%, 45.896912%, 4.699707%)" fill-opacity="1" d="M 1332.851562 1006.21875 L 1344.558594 1071.867188 C 1344.558594 1071.867188 1270.449219 1112.152344 1222.75 1089.125 C 1205.859375 1080.96875 1188.320312 1060.183594 1172.710938 1036.738281 C 1233.890625 1034.492188 1275.941406 1023.441406 1332.851562 1006.21875 Z M 1670.511719 828.808594 L 1672.828125 875.859375 C 1595.851562 961.179688 1497.289062 1023.128906 1374.320312 1058.628906 L 1348.351562 1001.496094 C 1361.578125 997.449219 1375.691406 993.109375 1391.039062 988.511719 C 1503.511719 948.789062 1594.878906 894.308594 1670.511719 828.808594 Z M 1808.371094 675.828125 C 1817.570312 707.320312 1823.320312 753.609375 1794.539062 788.339844 C 1750.121094 841.949219 1712.53125 848.308594 1712.53125 848.308594 L 1687.261719 813.878906 C 1733.230469 771.769531 1773.160156 725.449219 1808.371094 675.828125 "/>
<path fill-rule="evenodd" fill="rgb(20.800781%, 59.179688%, 6.298828%)" fill-opacity="1" d="M 1794.539062 640.390625 C 1603.089844 810.460938 1378.210938 909.480469 1122.179688 942.320312 C 1113.199219 951.171875 1104.988281 959.78125 1097.5 968.171875 L 1076.109375 937.878906 L 1118.960938 901.671875 C 1361.398438 725.640625 1577.269531 647.808594 1775.5 635.210938 C 1777.699219 635.109375 1794.410156 633.621094 1794.710938 633.449219 L 1794.539062 640.390625 "/>
<path fill-rule="evenodd" fill="rgb(25.488281%, 48.193359%, 13.696289%)" fill-opacity="1" d="M 1794.539062 640.390625 C 1518.039062 671.191406 1296.890625 775.808594 1122.179688 942.320312 C 1064.910156 998.75 1039.058594 1045.519531 1030.390625 1087 L 966.214844 1023.65625 L 1069.320312 943.609375 L 1118.960938 901.671875 C 1361.398438 725.640625 1577.269531 647.808594 1775.5 635.210938 C 1777.699219 635.109375 1794.410156 633.621094 1794.710938 633.449219 L 1794.539062 640.390625 "/>
<path fill-rule="evenodd" fill="rgb(12.5%, 36.108398%, 3.900146%)" fill-opacity="1" d="M 234.515625 665.230469 C 234.515625 665.230469 198.21875 735.949219 219.992188 771.609375 C 234.675781 795.660156 470.808594 979.160156 489.507812 981.828125 C 580.117188 1031.523438 809.023438 1106.160156 867.242188 1054.535156 C 889.050781 1035.195312 924.964844 969.601562 902.757812 926.371094 L 234.515625 665.230469 "/>
<path fill-rule="evenodd" fill="rgb(18.60199%, 52.929688%, 5.599976%)" fill-opacity="1" d="M 217.210938 643.550781 C 215.15625 643.109375 213.742188 641.179688 213.960938 639.058594 C 214.183594 636.871094 216.074219 635.230469 218.273438 635.320312 C 419.601562 648.328125 650.628906 728.210938 893.09375 904.261719 L 940.117188 944 L 1055.910156 1075.351562 L 962.863281 1091.847656 C 945.609375 1044.640625 922.078125 995.859375 889.875 944.921875 C 889.875 944.921875 860.425781 1057.160156 812.722656 1080.191406 C 765.023438 1103.21875 667.488281 1074.460938 667.488281 1074.460938 L 690.605469 944.921875 L 637.730469 1061.222656 C 589.199219 1047.210938 487.628906 989.96875 487.628906 989.96875 L 511.066406 888.539062 L 448.6875 971.71875 C 448.6875 971.71875 360.949219 902.53125 339.226562 878.449219 L 299.527344 850.898438 L 251.136719 821.109375 L 301.277344 722.730469 L 241.816406 813.699219 C 241.816406 813.699219 222.507812 796.960938 217.507812 790.929688 C 171.769531 735.730469 213.253906 651.289062 217.210938 643.550781 "/>
<path fill-rule="evenodd" fill="rgb(15.989685%, 46.09375%, 4.800415%)" fill-opacity="1" d="M 881.867188 970.839844 C 870.066406 1005.441406 845.777344 1064.234375 812.722656 1080.191406 C 765.023438 1103.21875 667.488281 1074.460938 667.488281 1074.460938 L 674.992188 1032.40625 C 719.398438 1053.183594 759.113281 1064.441406 783.613281 1052.601562 C 824.269531 1032.953125 860.53125 995.761719 881.867188 970.839844 Z M 500.84375 932.769531 C 545.605469 958.769531 602.527344 995.789062 655.234375 1022.71875 L 637.730469 1061.222656 C 589.199219 1047.210938 487.628906 989.96875 487.628906 989.96875 Z M 268.632812 786.78125 C 275.929688 789.898438 282.558594 794.449219 288.097656 800.808594 C 326.871094 845.371094 382.507812 872.78125 465.316406 913.421875 C 471.351562 916.378906 477.855469 919.808594 484.753906 923.628906 L 448.6875 971.71875 C 448.6875 971.71875 360.949219 902.53125 339.226562 878.449219 L 299.527344 850.898438 L 251.136719 821.109375 Z M 898.910156 959.519531 C 897.808594 957.699219 896.695312 955.878906 895.574219 954.050781 C 899.664062 948.789062 901.890625 945.640625 901.890625 945.640625 Z M 211.886719 783.359375 C 228.136719 780.488281 245.703125 779.699219 261.144531 784.128906 L 241.816406 813.699219 C 241.816406 813.699219 222.507812 796.960938 217.507812 790.929688 C 215.464844 788.460938 213.59375 785.929688 211.886719 783.359375 "/>
<path fill-rule="evenodd" fill="rgb(20.701599%, 59.179688%, 6.098938%)" fill-opacity="1" d="M 197.746094 705.558594 C 202.25 673.75 215.09375 647.691406 217.210938 643.550781 C 215.15625 643.109375 213.742188 641.179688 213.960938 639.058594 C 214.183594 636.871094 216.074219 635.230469 218.273438 635.320312 C 400.777344 647.121094 607.683594 713.859375 825.414062 857.390625 C 825.222656 875.921875 819.210938 894.820312 799.761719 906.46875 C 750.953125 935.699219 670.019531 864.21875 561.390625 848.800781 C 452.761719 833.371094 415.210938 780.519531 337.71875 705.558594 C 260.304688 630.671875 197.871094 705.410156 197.746094 705.558594 "/>
<path fill-rule="evenodd" fill="rgb(25.488281%, 48.28949%, 13.597107%)" fill-opacity="1" d="M 217.210938 643.550781 C 215.15625 643.109375 213.742188 641.179688 213.960938 639.058594 C 214.183594 636.871094 216.074219 635.230469 218.273438 635.320312 C 419.601562 648.328125 650.628906 728.210938 893.09375 904.261719 L 940.117188 944 L 1055.910156 1075.351562 L 962.863281 1091.847656 C 945.609375 1044.640625 922.078125 995.859375 889.875 944.921875 C 709.214844 779.03125 492.167969 666.738281 218.816406 643.691406 L 217.210938 643.550781 "/>
<path fill-rule="evenodd" fill="rgb(39.598083%, 47.509766%, 13.305664%)" fill-opacity="1" d="M 1078.160156 1238.304688 C 1045.851562 1163.265625 990.402344 1056.695312 913.449219 1017.710938 C 941.144531 1148.378906 919.671875 1467.910156 901.890625 1698.101562 C 900.421875 1717.109375 911.105469 1735.753906 909.742188 1753.929688 L 1118.960938 1753.929688 L 1078.160156 1238.304688 "/>
<path fill-rule="evenodd" fill="rgb(46.702576%, 56.054688%, 15.696716%)" fill-opacity="1" d="M 913.613281 1017.953125 C 917.003906 1022.96875 970.925781 1104.953125 946.726562 1211.296875 C 924.125 1310.59375 997.441406 1315.796875 946.726562 1401.523438 C 938.082031 1416.128906 928.875 1430.269531 919.21875 1443.480469 C 928.585938 1272.613281 931.734375 1103.988281 913.449219 1017.710938 L 913.613281 1017.953125 "/>
<path fill-rule="evenodd" fill="rgb(31.005859%, 37.109375%, 10.400391%)" fill-opacity="1" d="M 1068.800781 1223.738281 C 1072.109375 1230.988281 1075.230469 1238.050781 1078.160156 1244.859375 L 1098.75 1505.097656 C 1101.101562 1590.753906 1106.429688 1674.746094 1113.160156 1754.6875 L 909.800781 1754.6875 C 909.242188 1743.628906 905.214844 1732.40625 903.078125 1721.039062 L 902.460938 1697.25 C 909.386719 1607.246094 916.78125 1504.257812 921.558594 1404.527344 C 958.136719 1341.6875 1005.769531 1280.203125 1068.800781 1223.738281 "/>
<path fill-rule="evenodd" fill="rgb(39.598083%, 47.509766%, 13.305664%)" fill-opacity="1" d="M 901.890625 1451.175781 C 946.910156 1360.164062 1012.558594 1270.082031 1111.660156 1191.796875 C 1096.128906 1381.757812 1104.101562 1577.691406 1118.960938 1753.929688 L 909.742188 1753.929688 L 901.890625 1451.175781 "/>
<path fill-rule="evenodd" fill="rgb(46.702576%, 56.054688%, 15.696716%)" fill-opacity="1" d="M 971.535156 1336.363281 L 974.242188 1345.421875 C 974.242188 1345.421875 958.757812 1343.363281 946.726562 1447.316406 C 941.996094 1488.183594 925.488281 1521.824219 904.363281 1546.570312 L 901.890625 1451.175781 C 921.042969 1412.460938 943.925781 1373.910156 971.535156 1336.363281 "/>
<path fill-rule="evenodd" fill="rgb(33.68988%, 40.405273%, 11.401367%)" fill-opacity="1" d="M 1057.210938 1239.042969 C 1074.148438 1222.886719 1092.269531 1207.113281 1111.660156 1191.796875 C 1096.128906 1381.757812 1104.101562 1577.691406 1118.960938 1753.929688 L 1032.25 1753.929688 L 1033.710938 1687.191406 C 1089.371094 1620.476562 1042.371094 1430.753906 1057.210938 1239.042969 "/>
<path fill-rule="evenodd" fill="rgb(31.005859%, 37.109375%, 10.400391%)" fill-opacity="1" d="M 902.503906 1474.894531 C 978.941406 1514.195312 1065.101562 1587.429688 1110.78125 1642.34375 C 1113.109375 1680.230469 1115.890625 1717.5 1118.960938 1753.929688 L 909.742188 1753.929688 L 902.503906 1474.894531 "/>
<path fill-rule="evenodd" fill="rgb(39.598083%, 47.509766%, 13.305664%)" fill-opacity="1" d="M 1118.960938 1668.03125 C 1080.511719 1608.902344 965.96875 1507.683594 872.945312 1465.972656 C 892.359375 1533.4375 892.019531 1651.632812 888.96875 1753.878906 C 887.097656 1816.464844 884.214844 1873.070312 884.21875 1908.414062 L 1142.019531 1905.601562 L 1118.960938 1668.03125 "/>
<path fill-rule="evenodd" fill="rgb(33.789062%, 40.501404%, 11.401367%)" fill-opacity="1" d="M 1092.851562 1634.292969 C 1084.058594 1743.246094 1063.660156 1833.332031 1033.011719 1906.789062 L 1142.019531 1905.601562 L 1118.960938 1668.03125 C 1112.339844 1657.863281 1103.480469 1646.445312 1092.851562 1634.292969 "/>
<path fill-rule="evenodd" fill="rgb(46.801758%, 56.054688%, 15.795898%)" fill-opacity="1" d="M 872.972656 1465.996094 C 874.203125 1467.070312 913.738281 1503.003906 935.652344 1703.957031 C 942.035156 1762.503906 957.003906 1813.675781 935.652344 1887.179688 C 933.546875 1894.421875 931.367188 1901.328125 929.121094 1907.921875 L 884.21875 1908.414062 C 884.214844 1873.070312 887.097656 1816.464844 888.96875 1753.878906 C 892.019531 1651.632812 892.359375 1533.4375 872.945312 1465.972656 L 872.972656 1465.996094 "/>
<path fill-rule="evenodd" fill="rgb(14.404297%, 41.088867%, 4.199219%)" fill-opacity="1" d="M 1126.808594 786.410156 C 1112.910156 815.789062 1095.429688 847.460938 1073.371094 880.808594 C 1062.761719 896.800781 1044.839844 906.410156 1025.660156 906.410156 C 1014.75 906.46875 1002.320312 906.46875 990.9375 906.46875 C 968.121094 906.46875 946.785156 895.179688 933.953125 876.308594 C 872.335938 785.78125 813.542969 689.570312 782.566406 585.390625 L 886.953125 558.53125 C 886.953125 558.53125 830.984375 547.648438 770.242188 536.269531 C 758.890625 480.519531 756.199219 422.480469 765.730469 361.851562 C 794.964844 175.949219 1064.898438 251.71875 1249.890625 382.5 L 1185.011719 586.699219 C 1185.011719 586.699219 1181.890625 614.199219 1173.53125 651.578125 C 1167.691406 677.738281 1158.640625 710.25 1143.738281 747.570312 L 1143.660156 747.769531 L 1034.511719 772.578125 L 1126.808594 786.410156 "/>
<path fill-rule="evenodd" fill="rgb(12.693787%, 36.009216%, 3.799438%)" fill-opacity="1" d="M 1126.808594 786.410156 C 1113.199219 815.160156 1096.179688 846.101562 1074.789062 878.671875 C 1063.378906 895.980469 1044.03125 906.398438 1023.289062 906.398438 C 1014.949219 906.46875 1008.269531 906.46875 1008.269531 906.46875 C 1031.410156 631.78125 957.6875 413.828125 983.464844 259.289062 C 1070.160156 277.828125 1168.289062 324.808594 1249.890625 382.5 L 1185.011719 586.699219 C 1185.011719 586.699219 1181.890625 614.199219 1173.53125 651.578125 C 1167.679688 677.789062 1158.609375 710.371094 1143.660156 747.769531 L 1034.511719 772.578125 L 1126.808594 786.410156 "/>
<path fill-rule="evenodd" fill="rgb(23.608398%, 44.700623%, 12.693787%)" fill-opacity="1" d="M 990.09375 909.109375 C 990.613281 944.289062 988.117188 964.710938 981.277344 990.679688 L 1028.660156 990.679688 C 1023.328125 962 1021.269531 936.941406 1022.378906 906.410156 L 1042.351562 620.941406 L 1015.011719 613.960938 C 1007.058594 705.441406 998.042969 806.140625 990.09375 909.109375 "/>
<path fill-rule="evenodd" fill="rgb(18.406677%, 52.929688%, 5.499268%)" fill-opacity="1" d="M 861.378906 352.410156 C 842.300781 318.058594 822.105469 294.429688 799.761719 288.859375 C 884.03125 203.21875 1096.261719 273.878906 1249.890625 382.5 C 1257.128906 437.96875 1250.269531 482.078125 1233.710938 518.628906 L 1076.53125 485.421875 L 1206.078125 563.441406 C 1199.578125 571.589844 1192.53125 579.320312 1185.019531 586.699219 L 1185 586.71875 C 1136.53125 634.308594 1068.648438 667.488281 1003.769531 705.558594 C 956.140625 608.828125 916.933594 464.828125 872.390625 373.609375 L 1019.191406 347.179688 L 861.378906 352.410156 "/>
<path fill-rule="evenodd" fill="rgb(16.088867%, 45.896912%, 4.699707%)" fill-opacity="1" d="M 1159.371094 535.308594 L 1206.078125 563.441406 C 1199.578125 571.589844 1192.53125 579.320312 1185.019531 586.699219 L 1185 586.71875 C 1136.910156 633.941406 1069.710938 666.980469 1005.289062 704.671875 L 1003.769531 705.558594 C 1058.710938 656.488281 1111.359375 601.691406 1159.371094 535.308594 Z M 1250.050781 383.789062 C 1257.019531 438.648438 1250.140625 482.359375 1233.710938 518.628906 L 1179.019531 507.070312 C 1204.199219 469.46875 1227.949219 428.25 1249.890625 382.5 L 1250.050781 383.789062 "/>
<path fill-rule="evenodd" fill="rgb(20.800781%, 59.179688%, 6.298828%)" fill-opacity="1" d="M 799.761719 288.859375 C 877.035156 210.328125 1061.910156 263.230469 1210.53125 356.308594 C 1143 377.621094 1079.578125 366.25 1019.058594 347.199219 L 1019.191406 347.179688 L 1019.011719 347.179688 C 942.296875 323.03125 870.28125 286.589844 800.492188 288.839844 L 799.761719 288.859375 "/>
<path fill-rule="evenodd" fill="rgb(25.488281%, 48.193359%, 13.696289%)" fill-opacity="1" d="M 1008.289062 265.28125 C 1025.671875 269.941406 1043.390625 275.628906 1061.230469 282.210938 C 1075.179688 439.871094 1052 578.980469 1003.769531 705.558594 C 1033.851562 570.558594 1041.378906 426.28125 1008.289062 265.28125 "/>
<path fill-rule="evenodd" fill="rgb(49.09668%, 58.789062%, 16.40625%)" fill-opacity="1" d="M 966.777344 974.238281 L 991.429688 1002.199219 C 1158.839844 1125.027344 1099.378906 1318.097656 1107.078125 1638.609375 L 1126.058594 1630.523438 C 1121.769531 1323.4375 1200.589844 1135.4375 1042.871094 972.648438 C 1017.480469 946.441406 986.160156 958.851562 966.777344 974.238281 "/>
<path fill-rule="evenodd" fill="rgb(45.506287%, 54.492188%, 15.087891%)" fill-opacity="1" d="M 984.128906 993.921875 C 984.128906 993.921875 1005.449219 982.75 1017.230469 992.5 C 1140.550781 1094.628906 1124.871094 1306.816406 1115.191406 1635.15625 L 1107.078125 1638.609375 C 1099.378906 1318.097656 1151.53125 1116.746094 984.128906 993.921875 "/>
<path fill-rule="evenodd" fill="rgb(98.826599%, 72.851562%, 1.597595%)" fill-opacity="1" d="M 1041 1245.757812 C 1041 1245.757812 1043.371094 1230.714844 1030.269531 1225.929688 C 1007.410156 1217.578125 1002 1184.714844 993.570312 1168.511719 C 957.6875 1099.53125 985.589844 1082.710938 985.121094 1071.644531 C 984.601562 1059.230469 989.359375 1055.300781 992.96875 1054.441406 C 1001.480469 1052.410156 1006.03125 1066.15625 1006.03125 1066.15625 C 1006.03125 1066.15625 1029.558594 1089.625 1037.570312 1129.789062 C 1055.589844 1220.070312 1056.519531 1205.234375 1058.71875 1212.417969 C 1060.921875 1219.597656 1065.039062 1236.542969 1065.039062 1236.542969 L 1041 1245.757812 "/>
<path fill-rule="evenodd" fill="rgb(98.826599%, 72.851562%, 1.597595%)" fill-opacity="1" d="M 1101.960938 1222.382812 C 1101.960938 1222.382812 1104.328125 1207.339844 1091.230469 1202.554688 C 1068.371094 1194.199219 1062.960938 1161.335938 1054.53125 1145.136719 C 1018.648438 1076.15625 1046.550781 1059.332031 1046.089844 1048.269531 C 1045.558594 1035.855469 1050.320312 1031.925781 1053.929688 1031.0625 C 1062.441406 1029.035156 1066.988281 1042.777344 1066.988281 1042.777344 C 1066.988281 1042.777344 1090.519531 1066.25 1098.539062 1106.410156 C 1116.550781 1196.691406 1117.480469 1181.859375 1119.679688 1189.042969 C 1121.878906 1196.222656 1126.011719 1213.164062 1126.011719 1213.164062 L 1101.960938 1222.382812 "/>
<path fill-rule="evenodd" fill="rgb(92.96875%, 100%, 33.68988%)" fill-opacity="1" d="M 990.957031 1055.230469 C 991.570312 1063.472656 994.867188 1072.421875 990.847656 1078.441406 C 966.46875 1114.917969 996.671875 1164.691406 1019.839844 1203.847656 L 1046.140625 1234.175781 L 1046.988281 1243.460938 L 1041 1245.757812 C 1041 1245.757812 1043.371094 1230.714844 1030.269531 1225.929688 C 1007.410156 1217.578125 1002 1184.714844 993.570312 1168.511719 C 957.6875 1099.53125 985.589844 1082.710938 985.121094 1071.644531 C 984.695312 1061.453125 987.824219 1056.980469 990.957031 1055.230469 "/>
<path fill-rule="evenodd" fill="rgb(92.96875%, 100%, 33.68988%)" fill-opacity="1" d="M 1051.921875 1031.851562 C 1052.53125 1040.097656 1055.828125 1049.046875 1051.808594 1055.066406 C 1027.429688 1091.542969 1057.628906 1141.316406 1080.808594 1180.46875 L 1107.101562 1210.800781 L 1107.960938 1220.085938 L 1101.960938 1222.382812 C 1101.960938 1222.382812 1104.328125 1207.339844 1091.230469 1202.554688 C 1068.371094 1194.199219 1062.960938 1161.335938 1054.53125 1145.136719 C 1018.648438 1076.15625 1046.550781 1059.332031 1046.089844 1048.269531 C 1045.660156 1038.078125 1048.789062 1033.605469 1051.921875 1031.851562 "/>
<path fill-rule="evenodd" fill="rgb(77.539062%, 57.03125%, 0.900269%)" fill-opacity="1" d="M 994.734375 1054.234375 C 1002.101562 1054.308594 1006.03125 1066.15625 1006.03125 1066.15625 C 1006.03125 1066.15625 1029.558594 1089.625 1037.570312 1129.789062 C 1055.589844 1220.070312 1056.519531 1205.234375 1058.71875 1212.417969 C 1059.640625 1215.429688 1060.898438 1220.164062 1062.058594 1224.640625 C 1036.210938 1175.566406 1036.390625 1109.417969 1005.261719 1078.546875 C 1001.75 1075.066406 1001.238281 1063.15625 994.734375 1054.234375 "/>
<path fill-rule="evenodd" fill="rgb(77.539062%, 57.03125%, 0.900269%)" fill-opacity="1" d="M 1055.699219 1030.859375 C 1063.070312 1030.933594 1066.988281 1042.777344 1066.988281 1042.777344 C 1066.988281 1042.777344 1090.519531 1066.25 1098.539062 1106.410156 C 1116.550781 1196.691406 1117.480469 1181.859375 1119.679688 1189.042969 C 1120.601562 1192.054688 1121.871094 1196.785156 1123.019531 1201.265625 C 1097.179688 1152.191406 1097.359375 1086.039062 1066.230469 1055.171875 C 1062.710938 1051.691406 1062.199219 1039.78125 1055.699219 1030.859375 "/>
<path fill-rule="evenodd" fill="rgb(26.708984%, 29.80957%, 0%)" fill-opacity="1" d="M 985.246094 1066.378906 C 986.074219 1058.066406 989.929688 1055.164062 992.96875 1054.441406 C 998.089844 1053.21875 1001.78125 1057.710938 1003.898438 1061.480469 C 998.542969 1066.390625 992.222656 1067.636719 985.246094 1066.378906 "/>
<path fill-rule="evenodd" fill="rgb(26.708984%, 29.80957%, 0%)" fill-opacity="1" d="M 1046.210938 1043.003906 C 1047.039062 1034.6875 1050.890625 1031.789062 1053.929688 1031.0625 C 1059.050781 1029.84375 1062.738281 1034.335938 1064.859375 1038.101562 C 1059.5 1043.015625 1053.191406 1044.261719 1046.210938 1043.003906 "/>
<path fill-rule="evenodd" fill="rgb(98.826599%, 72.851562%, 1.597595%)" fill-opacity="1" d="M 990.640625 1248.449219 C 990.640625 1248.449219 934.042969 1181.996094 935.6875 1128.238281 C 936.496094 1101.699219 952.386719 1088.542969 952.386719 1088.542969 L 959.675781 1070.039062 C 972.777344 1067.921875 977.707031 1073.367188 974.074219 1086.738281 C 993.957031 1157.652344 1015.761719 1197.792969 1050.671875 1220.785156 C 1053.78125 1222.835938 1068.070312 1216.214844 1068.070312 1216.214844 C 1068.070312 1216.214844 1080.761719 1219.707031 1080.78125 1232.109375 C 1072.828125 1239.992188 1049.550781 1242.53125 1041.839844 1249.890625 C 1019.191406 1271.507812 1006.941406 1261.285156 990.640625 1248.449219 "/>
<path fill-rule="evenodd" fill="rgb(98.826599%, 72.851562%, 1.597595%)" fill-opacity="1" d="M 1193.289062 1168.34375 C 1193.289062 1168.34375 1201.371094 1086.269531 1171.109375 1045.449219 C 1156.171875 1025.296875 1136.75 1023.660156 1136.75 1023.660156 L 1121.121094 1013.234375 C 1109.808594 1018.652344 1108.921875 1025.535156 1118.949219 1033.949219 C 1141.761719 1099.6875 1146.488281 1142.585938 1131.800781 1179.246094 C 1130.488281 1182.515625 1115.828125 1185.082031 1115.828125 1185.082031 C 1115.828125 1185.082031 1107.878906 1194.628906 1114.550781 1204.265625 C 1124.960938 1206.09375 1144.390625 1195.511719 1154.339844 1197.066406 C 1183.570312 1201.625 1187.558594 1187.089844 1193.289062 1168.34375 "/>
<path fill-rule="evenodd" fill="rgb(93.164062%, 100%, 33.68988%)" fill-opacity="1" d="M 1033.710938 1256.628906 C 1016.019531 1268.878906 1004.878906 1259.660156 990.640625 1248.449219 C 990.640625 1248.449219 934.042969 1181.996094 935.6875 1128.238281 C 936.496094 1101.699219 952.386719 1088.542969 952.386719 1088.542969 L 959.675781 1070.039062 C 960.933594 1069.839844 962.113281 1069.703125 963.21875 1069.640625 L 959.558594 1090.550781 C 959.558594 1090.550781 944.476562 1131.105469 958.726562 1167.984375 C 980.480469 1224.277344 1023.621094 1264.636719 1033.710938 1256.628906 "/>
<path fill-rule="evenodd" fill="rgb(77.539062%, 57.03125%, 0.900269%)" fill-opacity="1" d="M 1164.289062 1197.90625 C 1184.609375 1197.875 1188.289062 1184.714844 1193.289062 1168.34375 C 1193.289062 1168.34375 1201.371094 1086.269531 1171.109375 1045.449219 C 1156.171875 1025.296875 1136.75 1023.660156 1136.75 1023.660156 L 1121.121094 1013.234375 C 1120.03125 1013.753906 1119.050781 1014.285156 1118.148438 1014.832031 L 1132.269531 1029.082031 C 1132.269531 1029.082031 1165.828125 1052.414062 1174.660156 1088.707031 C 1188.140625 1144.109375 1176.429688 1198.683594 1164.289062 1197.90625 "/>
<path fill-rule="evenodd" fill="rgb(77.539062%, 57.03125%, 0.900269%)" fill-opacity="1" d="M 969.90625 1070.40625 C 975.089844 1072.339844 976.515625 1077.746094 974.074219 1086.738281 C 993.957031 1157.652344 1015.761719 1197.792969 1050.671875 1220.785156 C 1053.78125 1222.835938 1068.070312 1216.214844 1068.070312 1216.214844 C 1068.070312 1216.214844 1080.761719 1219.707031 1080.78125 1232.109375 C 1072.828125 1239.992188 1049.550781 1242.53125 1041.839844 1249.890625 L 1041.480469 1250.234375 C 990.109375 1192.113281 961.839844 1137.328125 970.003906 1087.808594 L 969.90625 1070.40625 "/>
<path fill-rule="evenodd" fill="rgb(98.826599%, 72.851562%, 1.597595%)" fill-opacity="1" d="M 1219.320312 1176.207031 C 1219.320312 1176.207031 1241.871094 1091.046875 1220.761719 1045.257812 C 1210.339844 1022.652344 1192.328125 1018.992188 1192.328125 1018.992188 L 1179.488281 1006.507812 C 1167.839844 1011.054688 1165.75 1018.171875 1173.679688 1027.988281 C 1183.21875 1099.132812 1179.878906 1144.542969 1159.359375 1181.472656 C 1157.53125 1184.765625 1143.238281 1185.988281 1143.238281 1185.988281 C 1143.238281 1185.988281 1134.011719 1195.195312 1138.539062 1205.957031 C 1148.03125 1208.914062 1168.28125 1199.773438 1177.371094 1202.394531 C 1204.101562 1210.097656 1210.511719 1195.273438 1219.320312 1176.207031 "/>
<path fill-rule="evenodd" fill="rgb(92.96875%, 100%, 33.68988%)" fill-opacity="1" d="M 1113.378906 1019.035156 C 1110.398438 1023.328125 1112.210938 1028.292969 1118.949219 1033.949219 C 1141.761719 1099.6875 1146.488281 1142.585938 1131.800781 1179.246094 C 1130.488281 1182.515625 1115.828125 1185.082031 1115.828125 1185.082031 C 1115.828125 1185.082031 1107.878906 1194.628906 1114.550781 1204.265625 C 1124.960938 1206.09375 1144.390625 1195.511719 1154.339844 1197.066406 L 1154.808594 1197.136719 C 1163.320312 1124.347656 1155.71875 1066.605469 1122.691406 1032.585938 L 1113.378906 1019.035156 "/>
<path fill-rule="evenodd" fill="rgb(26.708984%, 29.80957%, 0%)" fill-opacity="1" d="M 956.582031 1077.894531 L 959.675781 1070.039062 C 971.332031 1068.15625 976.519531 1072.257812 974.964844 1082.601562 C 971.707031 1079.4375 964.761719 1076.828125 956.582031 1077.894531 "/>
<path fill-rule="evenodd" fill="rgb(77.539062%, 57.03125%, 0.900269%)" fill-opacity="1" d="M 1186.589844 1204.273438 C 1205.761719 1206.277344 1211.628906 1192.859375 1219.320312 1176.207031 C 1219.320312 1176.207031 1241.871094 1091.046875 1220.761719 1045.257812 C 1210.339844 1022.652344 1192.328125 1018.992188 1192.328125 1018.992188 L 1179.488281 1006.507812 C 1178.371094 1006.941406 1177.339844 1007.402344 1176.398438 1007.886719 L 1187.121094 1024.222656 C 1187.121094 1024.222656 1214.519531 1052.023438 1216.238281 1090.925781 C 1218.871094 1150.308594 1197.898438 1206.300781 1186.589844 1204.273438 "/>
<path fill-rule="evenodd" fill="rgb(26.708984%, 29.80957%, 0%)" fill-opacity="1" d="M 1127.75 1017.660156 L 1121.121094 1013.234375 C 1111.058594 1018.058594 1109.238281 1024.035156 1116.03125 1031.222656 C 1116.851562 1027.011719 1120.828125 1021.242188 1127.75 1017.660156 "/>
<path fill-rule="evenodd" fill="rgb(98.826599%, 72.851562%, 1.597595%)" fill-opacity="1" d="M 1041.328125 1225.007812 C 1041.328125 1225.007812 996.675781 1155.414062 1006.148438 1099.601562 C 1010.828125 1072.046875 1028.03125 1058.542969 1028.03125 1058.542969 L 1037.761719 1039.402344 C 1050.671875 1037.335938 1054.609375 1043.039062 1049.148438 1056.886719 C 1057.851562 1130.738281 1072.921875 1172.648438 1103.109375 1196.882812 C 1105.800781 1199.042969 1120.511719 1192.3125 1120.511719 1192.3125 C 1120.511719 1192.3125 1132.191406 1196.066406 1130.390625 1208.949219 C 1121.589844 1217.054688 1098.839844 1219.457031 1090.351562 1227.019531 C 1065.398438 1249.242188 1055.121094 1238.503906 1041.328125 1225.007812 "/>
<path fill-rule="evenodd" fill="rgb(92.96875%, 100%, 33.68988%)" fill-opacity="1" d="M 1171.128906 1011.808594 C 1167.550781 1016.007812 1168.351562 1021.390625 1173.679688 1027.988281 C 1183.21875 1099.132812 1179.878906 1144.542969 1159.359375 1181.472656 C 1157.53125 1184.765625 1143.238281 1185.988281 1143.238281 1185.988281 C 1143.238281 1185.988281 1134.011719 1195.195312 1138.539062 1205.957031 C 1148.03125 1208.914062 1168.28125 1199.773438 1177.371094 1202.394531 L 1177.800781 1202.519531 C 1199.070312 1127.125 1202.398438 1065.875 1177.449219 1026.933594 L 1171.128906 1011.808594 "/>
<path fill-rule="evenodd" fill="rgb(93.164062%, 100%, 33.68988%)" fill-opacity="1" d="M 1081.539062 1233.9375 C 1062.738281 1246.480469 1053.371094 1236.792969 1041.328125 1225.007812 C 1041.328125 1225.007812 996.675781 1155.414062 1006.148438 1099.601562 C 1010.828125 1072.046875 1028.03125 1058.542969 1028.03125 1058.542969 L 1037.761719 1039.402344 C 1038.988281 1039.203125 1040.148438 1039.078125 1041.21875 1039.023438 L 1034.628906 1060.699219 C 1034.628906 1060.699219 1014.179688 1102.671875 1022.46875 1141.113281 C 1035.109375 1199.796875 1070.671875 1242.148438 1081.539062 1233.9375 "/>
<path fill-rule="evenodd" fill="rgb(77.539062%, 57.03125%, 0.900269%)" fill-opacity="1" d="M 1047.539062 1039.886719 C 1052.238281 1041.945312 1052.820312 1047.574219 1049.148438 1056.886719 C 1057.851562 1130.738281 1072.921875 1172.648438 1103.109375 1196.882812 C 1105.800781 1199.042969 1120.511719 1192.3125 1120.511719 1192.3125 C 1120.511719 1192.3125 1132.191406 1196.066406 1130.390625 1208.949219 C 1121.589844 1217.054688 1098.839844 1219.457031 1090.351562 1227.019531 L 1089.941406 1227.375 C 1049.089844 1166.488281 1029.960938 1109.308594 1045.078125 1057.957031 L 1047.539062 1039.886719 "/>
<path fill-rule="evenodd" fill="rgb(26.708984%, 29.80957%, 0%)" fill-opacity="1" d="M 1184.941406 1011.808594 L 1179.488281 1006.507812 C 1169.128906 1010.550781 1166.328125 1016.632812 1171.421875 1024.839844 C 1172.960938 1020.511719 1177.761719 1014.863281 1184.941406 1011.808594 "/>
<path fill-rule="evenodd" fill="rgb(26.708984%, 29.80957%, 0%)" fill-opacity="1" d="M 1033.628906 1047.527344 L 1037.761719 1039.402344 C 1049.238281 1037.5625 1053.628906 1041.875 1050.609375 1052.601562 C 1047.941406 1049.28125 1041.648438 1046.503906 1033.628906 1047.527344 "/>
<path fill-rule="evenodd" fill="rgb(98.826599%, 72.851562%, 1.597595%)" fill-opacity="1" d="M 1123.539062 1211.296875 C 1123.539062 1211.296875 1119.730469 1192.667969 1106.628906 1187.882812 C 1083.769531 1179.53125 1082.988281 1151.398438 1074.558594 1135.199219 C 1038.679688 1066.21875 1075.070312 1047.539062 1074.609375 1036.476562 C 1074.089844 1024.058594 1078.839844 1020.132812 1082.460938 1019.269531 C 1090.960938 1017.242188 1095.511719 1030.984375 1095.511719 1030.984375 C 1095.511719 1030.984375 1119.039062 1054.453125 1127.058594 1094.617188 C 1145.070312 1184.898438 1133.558594 1171.355469 1135.761719 1178.539062 C 1137.960938 1185.71875 1144.070312 1202.902344 1144.070312 1202.902344 L 1123.539062 1211.296875 "/>
<path fill-rule="evenodd" fill="rgb(92.96875%, 100%, 33.68988%)" fill-opacity="1" d="M 1078.519531 1021.53125 L 1079.578125 1042.019531 C 1061.019531 1072.789062 1075.410156 1098.296875 1083.519531 1132.867188 C 1083.691406 1133.574219 1084.011719 1134.269531 1084.089844 1135.019531 C 1088.390625 1175.730469 1122.609375 1193.257812 1122.609375 1193.257812 L 1124.980469 1210.707031 L 1123.539062 1211.296875 C 1123.539062 1211.296875 1119.730469 1192.667969 1106.628906 1187.882812 C 1083.769531 1179.53125 1082.988281 1151.398438 1074.558594 1135.199219 C 1038.679688 1066.21875 1075.070312 1047.539062 1074.609375 1036.476562 C 1074.269531 1028.402344 1076.160156 1023.917969 1078.519531 1021.53125 "/>
<path fill-rule="evenodd" fill="rgb(77.539062%, 57.03125%, 0.900269%)" fill-opacity="1" d="M 1088.460938 1020.492188 C 1093.089844 1023.65625 1095.511719 1030.984375 1095.511719 1030.984375 C 1095.511719 1030.984375 1119.039062 1054.453125 1127.058594 1094.617188 C 1145.070312 1184.898438 1133.558594 1171.355469 1135.761719 1178.539062 C 1137.960938 1185.71875 1144.070312 1202.902344 1144.070312 1202.902344 L 1131.191406 1208.167969 L 1124.25 1179.132812 C 1107.109375 1142.3125 1100.039062 1106.269531 1095.539062 1049.015625 L 1088.460938 1020.492188 "/>
<path fill-rule="evenodd" fill="rgb(26.708984%, 29.80957%, 0%)" fill-opacity="1" d="M 1074.601562 1033.105469 C 1075 1023.328125 1079.191406 1020.046875 1082.460938 1019.269531 C 1089.449219 1017.601562 1093.769531 1026.597656 1095.089844 1029.847656 C 1089.269531 1032.382812 1080.269531 1034.359375 1074.601562 1033.105469 "/>
<path fill-rule="evenodd" fill="rgb(98.826599%, 72.851562%, 1.597595%)" fill-opacity="1" d="M 1241 1193.191406 C 1241 1193.191406 1289.738281 1108.265625 1276.589844 1053.453125 C 1270.101562 1026.390625 1249.699219 1017.511719 1249.699219 1017.511719 L 1237.71875 1000.613281 C 1222.75 1002.269531 1218.429688 1009.3125 1225.28125 1022 C 1218.179688 1100.765625 1202.460938 1148.4375 1168.601562 1182.304688 C 1165.578125 1185.324219 1148.339844 1182.699219 1148.339844 1182.699219 C 1148.339844 1182.699219 1135.019531 1190.003906 1137.609375 1202.769531 C 1148.078125 1208.546875 1174.429688 1204.347656 1184.53125 1209.65625 C 1214.199219 1225.265625 1225.628906 1211.164062 1241 1193.191406 "/>
<path fill-rule="evenodd" fill="rgb(77.539062%, 57.03125%, 0.900269%)" fill-opacity="1" d="M 1194.96875 1214.210938 C 1217.160156 1221.632812 1227.570312 1208.890625 1241 1193.191406 C 1241 1193.191406 1289.738281 1108.265625 1276.589844 1053.453125 C 1270.101562 1026.390625 1249.699219 1017.511719 1249.699219 1017.511719 L 1237.71875 1000.613281 C 1236.289062 1000.773438 1234.949219 1000.980469 1233.710938 1001.238281 L 1242.179688 1021.671875 C 1242.179688 1021.671875 1267.449219 1058.976562 1259.421875 1101.078125 C 1247.171875 1165.347656 1207.839844 1219.492188 1194.96875 1214.210938 "/>
<path fill-rule="evenodd" fill="rgb(92.96875%, 100%, 33.68988%)" fill-opacity="1" d="M 1226.460938 1003.984375 C 1221.121094 1007.488281 1220.671875 1013.46875 1225.28125 1022 C 1218.179688 1100.765625 1202.460938 1148.4375 1168.601562 1182.304688 C 1165.578125 1185.324219 1148.339844 1182.699219 1148.339844 1182.699219 C 1148.339844 1182.699219 1135.019531 1190.003906 1137.609375 1202.769531 C 1148.078125 1208.546875 1174.429688 1204.347656 1184.53125 1209.65625 L 1185.011719 1209.90625 C 1229.710938 1135.085938 1249.511719 1070.460938 1230.019531 1021.910156 L 1226.460938 1003.984375 "/>
<path fill-rule="evenodd" fill="rgb(26.708984%, 29.80957%, 0%)" fill-opacity="1" d="M 1242.808594 1007.785156 L 1237.71875 1000.613281 C 1224.398438 1002.085938 1219.511719 1007.824219 1223.421875 1018.007812 C 1226.359375 1013.796875 1233.511719 1009.082031 1242.808594 1007.785156 "/>
<path fill-rule="evenodd" fill="rgb(98.826599%, 72.851562%, 1.597595%)" fill-opacity="1" d="M 1077.261719 1345.421875 C 1077.261719 1345.421875 1078.5 1332.164062 1065.53125 1328.003906 C 1042.890625 1320.746094 1035.378906 1291.824219 1026.121094 1277.59375 C 986.699219 1216.996094 1012.460938 1202.0625 1011.238281 1192.320312 C 1009.871094 1181.390625 1014.191406 1177.910156 1017.621094 1177.136719 C 1025.691406 1175.316406 1031.039062 1187.398438 1031.039062 1187.398438 C 1031.039062 1187.398438 1055.378906 1207.972656 1065.898438 1243.304688 C 1089.558594 1322.738281 1089.421875 1309.671875 1092.050781 1315.984375 C 1094.671875 1322.300781 1099.828125 1337.203125 1099.828125 1337.203125 L 1077.261719 1345.421875 "/>
<path fill-rule="evenodd" fill="rgb(98.826599%, 72.851562%, 1.597595%)" fill-opacity="1" d="M 1134.480469 1324.582031 C 1134.480469 1324.582031 1135.71875 1311.320312 1122.75 1307.164062 C 1100.101562 1299.902344 1092.589844 1270.984375 1083.339844 1256.753906 C 1043.910156 1196.15625 1069.671875 1181.222656 1068.460938 1171.480469 C 1067.089844 1160.550781 1071.410156 1157.070312 1074.839844 1156.296875 C 1082.898438 1154.476562 1088.25 1166.558594 1088.25 1166.558594 C 1088.25 1166.558594 1112.589844 1187.128906 1123.121094 1222.464844 C 1146.78125 1301.898438 1146.640625 1288.828125 1149.269531 1295.144531 C 1151.890625 1301.460938 1157.050781 1316.363281 1157.050781 1316.363281 L 1134.480469 1324.582031 "/>
<path fill-rule="evenodd" fill="rgb(92.96875%, 100%, 33.68988%)" fill-opacity="1" d="M 1015.730469 1177.839844 C 1016.890625 1185.097656 1020.699219 1192.964844 1017.238281 1198.285156 C 996.238281 1230.507812 1028.851562 1274.214844 1053.929688 1308.601562 L 1081.421875 1335.199219 L 1082.890625 1343.375 L 1077.261719 1345.421875 C 1077.261719 1345.421875 1078.5 1332.164062 1065.53125 1328.003906 C 1042.890625 1320.746094 1035.378906 1291.824219 1026.121094 1277.59375 C 986.699219 1216.996094 1012.460938 1202.0625 1011.238281 1192.320312 C 1010.121094 1183.347656 1012.828125 1179.394531 1015.730469 1177.839844 "/>
<path fill-rule="evenodd" fill="rgb(92.96875%, 100%, 33.68988%)" fill-opacity="1" d="M 1072.949219 1157 C 1074.109375 1164.257812 1077.921875 1172.125 1074.449219 1177.441406 C 1053.460938 1209.667969 1086.058594 1253.375 1111.148438 1287.757812 L 1138.640625 1314.359375 L 1140.109375 1322.535156 L 1134.480469 1324.582031 C 1134.480469 1324.582031 1135.71875 1311.320312 1122.75 1307.164062 C 1100.101562 1299.902344 1092.589844 1270.984375 1083.339844 1256.753906 C 1043.910156 1196.15625 1069.671875 1181.222656 1068.460938 1171.480469 C 1067.339844 1162.507812 1070.050781 1158.554688 1072.949219 1157 "/>
<path fill-rule="evenodd" fill="rgb(77.539062%, 57.03125%, 0.900269%)" fill-opacity="1" d="M 1019.308594 1176.949219 C 1026.429688 1176.984375 1031.039062 1187.398438 1031.039062 1187.398438 C 1031.039062 1187.398438 1055.378906 1207.972656 1065.898438 1243.304688 C 1089.558594 1322.738281 1089.421875 1309.671875 1092.050781 1315.984375 C 1093.148438 1318.636719 1094.699219 1322.796875 1096.121094 1326.734375 C 1067.769531 1283.628906 1063.351562 1225.371094 1031.160156 1198.316406 C 1027.53125 1195.265625 1026.210938 1184.777344 1019.308594 1176.949219 "/>
<path fill-rule="evenodd" fill="rgb(77.539062%, 57.03125%, 0.900269%)" fill-opacity="1" d="M 1076.53125 1156.109375 C 1083.640625 1156.144531 1088.25 1166.558594 1088.25 1166.558594 C 1088.25 1166.558594 1112.589844 1187.128906 1123.121094 1222.464844 C 1146.78125 1301.898438 1146.640625 1288.828125 1149.269531 1295.144531 C 1150.371094 1297.796875 1151.910156 1301.957031 1153.339844 1305.894531 C 1124.988281 1262.785156 1120.570312 1204.53125 1088.378906 1177.472656 C 1084.75 1174.425781 1083.421875 1163.9375 1076.53125 1156.109375 "/>
<path fill-rule="evenodd" fill="rgb(26.708984%, 29.80957%, 0%)" fill-opacity="1" d="M 1010.988281 1187.683594 C 1011.21875 1180.359375 1014.738281 1177.789062 1017.621094 1177.136719 C 1022.46875 1176.042969 1026.339844 1179.980469 1028.660156 1183.289062 C 1023.828125 1187.636719 1017.820312 1188.761719 1010.988281 1187.683594 "/>
<path fill-rule="evenodd" fill="rgb(26.708984%, 29.80957%, 0%)" fill-opacity="1" d="M 1068.210938 1166.84375 C 1068.429688 1159.519531 1071.949219 1156.949219 1074.839844 1156.296875 C 1079.691406 1155.199219 1083.558594 1159.140625 1085.871094 1162.449219 C 1081.039062 1166.796875 1075.03125 1167.921875 1068.210938 1166.84375 "/>
<path fill-rule="evenodd" fill="rgb(98.826599%, 72.851562%, 1.597595%)" fill-opacity="1" d="M 1028.839844 1348.003906 C 1028.839844 1348.003906 969.601562 1289.71875 967.453125 1242.367188 C 966.394531 1218.992188 980.816406 1207.339844 980.816406 1207.339844 L 986.566406 1191.015625 C 999.066406 1189.09375 1004.199219 1193.867188 1001.621094 1205.660156 C 1025.738281 1268.027344 1049.570312 1303.285156 1084.859375 1323.390625 C 1088.011719 1325.183594 1101.339844 1319.289062 1101.339844 1319.289062 C 1101.339844 1319.289062 1113.828125 1322.3125 1114.710938 1333.238281 C 1107.578125 1340.210938 1085.289062 1342.546875 1078.371094 1349.054688 C 1058 1368.191406 1045.46875 1359.238281 1028.839844 1348.003906 "/>
<path fill-rule="evenodd" fill="rgb(98.826599%, 72.851562%, 1.597595%)" fill-opacity="1" d="M 1218.871094 1276.609375 C 1218.871094 1276.609375 1220.96875 1204.296875 1188.929688 1168.476562 C 1173.109375 1150.789062 1154.25 1149.429688 1154.25 1149.429688 L 1138.441406 1140.3125 C 1127.910156 1145.132812 1127.53125 1151.199219 1137.789062 1158.566406 C 1164.371094 1216.363281 1171.910156 1254.121094 1160.28125 1286.46875 C 1159.25 1289.351562 1145.28125 1291.675781 1145.28125 1291.675781 C 1145.28125 1291.675781 1138.261719 1300.117188 1145.371094 1308.574219 C 1155.550781 1310.140625 1173.570312 1300.742188 1183.28125 1302.066406 C 1211.808594 1305.960938 1214.648438 1293.140625 1218.871094 1276.609375 "/>
<path fill-rule="evenodd" fill="rgb(93.164062%, 100%, 33.68988%)" fill-opacity="1" d="M 1070.980469 1355.027344 C 1054.761719 1365.886719 1043.359375 1357.816406 1028.839844 1348.003906 C 1028.839844 1348.003906 969.601562 1289.71875 967.453125 1242.367188 C 966.394531 1218.992188 980.816406 1207.339844 980.816406 1207.339844 L 986.566406 1191.015625 C 987.765625 1190.832031 988.894531 1190.710938 989.957031 1190.648438 L 987.878906 1209.078125 C 987.878906 1209.078125 976.140625 1244.859375 992.453125 1277.273438 C 1017.359375 1326.757812 1061.800781 1362.121094 1070.980469 1355.027344 "/>
<path fill-rule="evenodd" fill="rgb(77.539062%, 57.03125%, 0.900269%)" fill-opacity="1" d="M 1192.941406 1302.765625 C 1212.550781 1302.652344 1215.191406 1291.050781 1218.871094 1276.609375 C 1218.871094 1276.609375 1220.96875 1204.296875 1188.929688 1168.476562 C 1173.109375 1150.789062 1154.25 1149.429688 1154.25 1149.429688 L 1138.441406 1140.3125 C 1137.429688 1140.777344 1136.519531 1141.25 1135.691406 1141.734375 L 1150.308594 1154.222656 C 1150.308594 1154.222656 1184.320312 1174.632812 1195.359375 1206.554688 C 1212.21875 1255.289062 1204.710938 1303.398438 1192.941406 1302.765625 "/>
<path fill-rule="evenodd" fill="rgb(77.539062%, 57.03125%, 0.900269%)" fill-opacity="1" d="M 996.46875 1191.296875 C 1001.601562 1192.976562 1003.359375 1197.730469 1001.621094 1205.660156 C 1025.738281 1268.027344 1049.570312 1303.285156 1084.859375 1323.390625 C 1088.011719 1325.183594 1101.339844 1319.289062 1101.339844 1319.289062 C 1101.339844 1319.289062 1113.828125 1322.3125 1114.710938 1333.238281 C 1107.578125 1340.210938 1085.289062 1342.546875 1078.371094 1349.054688 L 1078.039062 1349.363281 C 1024.421875 1298.390625 993.328125 1250.265625 997.769531 1206.617188 L 996.46875 1191.296875 "/>
<path fill-rule="evenodd" fill="rgb(98.826599%, 72.851562%, 1.597595%)" fill-opacity="1" d="M 1244.539062 1283.425781 C 1244.539062 1283.425781 1260.390625 1208.332031 1236.839844 1168.097656 C 1225.210938 1148.234375 1207.578125 1145.085938 1207.578125 1145.085938 L 1194.308594 1134.144531 C 1183.390625 1138.195312 1181.871094 1144.476562 1190.199219 1153.089844 C 1204.351562 1215.699219 1204.28125 1255.707031 1187.039062 1288.316406 C 1185.5 1291.222656 1171.800781 1292.359375 1171.800781 1292.359375 C 1171.800781 1292.359375 1163.519531 1300.503906 1168.648438 1309.960938 C 1178.011719 1312.527344 1196.921875 1304.394531 1205.878906 1306.664062 C 1232.210938 1313.335938 1237.371094 1300.253906 1244.539062 1283.425781 "/>
<path fill-rule="evenodd" fill="rgb(92.96875%, 100%, 33.68988%)" fill-opacity="1" d="M 1131.378906 1145.453125 C 1128.800781 1149.246094 1130.890625 1153.613281 1137.789062 1158.566406 C 1164.371094 1216.363281 1171.910156 1254.121094 1160.28125 1286.46875 C 1159.25 1289.351562 1145.28125 1291.675781 1145.28125 1291.675781 C 1145.28125 1291.675781 1138.261719 1300.117188 1145.371094 1308.574219 C 1155.550781 1310.140625 1173.570312 1300.742188 1183.28125 1302.066406 L 1183.738281 1302.128906 C 1186.898438 1237.992188 1175.550781 1187.171875 1141.300781 1157.347656 L 1131.378906 1145.453125 "/>
<path fill-rule="evenodd" fill="rgb(26.708984%, 29.80957%, 0%)" fill-opacity="1" d="M 984.128906 1197.945312 L 986.566406 1191.015625 C 997.6875 1189.308594 1002.980469 1192.898438 1002.199219 1202.011719 C 998.832031 1199.238281 991.949219 1196.96875 984.128906 1197.945312 "/>
<path fill-rule="evenodd" fill="rgb(77.539062%, 57.03125%, 0.900269%)" fill-opacity="1" d="M 1214.910156 1308.28125 C 1233.550781 1309.964844 1238.28125 1298.121094 1244.539062 1283.425781 C 1244.539062 1283.425781 1260.390625 1208.332031 1236.839844 1168.097656 C 1225.210938 1148.234375 1207.578125 1145.085938 1207.578125 1145.085938 L 1194.308594 1134.144531 C 1193.269531 1134.535156 1192.308594 1134.941406 1191.429688 1135.371094 L 1202.910156 1149.714844 C 1202.910156 1149.714844 1231.289062 1174.085938 1235.648438 1208.335938 C 1242.308594 1260.617188 1225.960938 1310.019531 1214.910156 1308.28125 "/>
<path fill-rule="evenodd" fill="rgb(26.708984%, 29.80957%, 0%)" fill-opacity="1" d="M 1145.160156 1144.183594 L 1138.441406 1140.3125 C 1129.070312 1144.601562 1127.730469 1149.875 1134.78125 1156.175781 C 1135.28125 1152.464844 1138.71875 1147.367188 1145.160156 1144.183594 "/>
<path fill-rule="evenodd" fill="rgb(98.826599%, 72.851562%, 1.597595%)" fill-opacity="1" d="M 1076.140625 1327.144531 C 1076.140625 1327.144531 1028.210938 1266.046875 1033.480469 1216.855469 C 1036.078125 1192.566406 1051.75 1180.605469 1051.75 1180.605469 L 1059.800781 1163.707031 C 1072.121094 1161.832031 1076.320312 1166.839844 1072.011719 1179.058594 C 1085.539062 1244.058594 1103 1280.90625 1133.820312 1302.117188 C 1136.558594 1304.011719 1150.300781 1298.019531 1150.300781 1298.019531 C 1150.300781 1298.019531 1161.828125 1301.277344 1160.988281 1312.632812 C 1153.058594 1319.804688 1131.261719 1322.015625 1123.589844 1328.710938 C 1101.050781 1348.386719 1090.390625 1338.972656 1076.140625 1327.144531 "/>
<path fill-rule="evenodd" fill="rgb(92.96875%, 100%, 33.68988%)" fill-opacity="1" d="M 1186.621094 1138.847656 C 1183.449219 1142.5625 1184.601562 1147.296875 1190.199219 1153.089844 C 1204.351562 1215.699219 1204.28125 1255.707031 1187.039062 1288.316406 C 1185.5 1291.222656 1171.800781 1292.359375 1171.800781 1292.359375 C 1171.800781 1292.359375 1163.519531 1300.503906 1168.648438 1309.960938 C 1178.011719 1312.527344 1196.921875 1304.394531 1205.878906 1306.664062 L 1206.300781 1306.769531 C 1221.589844 1240.285156 1220.558594 1186.332031 1193.761719 1152.140625 L 1186.621094 1138.847656 "/>
<path fill-rule="evenodd" fill="rgb(93.164062%, 100%, 33.68988%)" fill-opacity="1" d="M 1115.570312 1334.84375 C 1098.289062 1345.964844 1088.578125 1337.476562 1076.140625 1327.144531 C 1076.140625 1327.144531 1028.210938 1266.046875 1033.480469 1216.855469 C 1036.078125 1192.566406 1051.75 1180.605469 1051.75 1180.605469 L 1059.800781 1163.707031 C 1060.980469 1163.527344 1062.089844 1163.410156 1063.121094 1163.359375 L 1058.269531 1182.476562 C 1058.269531 1182.476562 1041.441406 1219.523438 1052.109375 1253.34375 C 1068.390625 1304.96875 1105.648438 1342.121094 1115.570312 1334.84375 "/>
<path fill-rule="evenodd" fill="rgb(77.539062%, 57.03125%, 0.900269%)" fill-opacity="1" d="M 1069.28125 1164.09375 C 1073.960938 1165.886719 1074.910156 1170.84375 1072.011719 1179.058594 C 1085.539062 1244.058594 1103 1280.90625 1133.820312 1302.117188 C 1136.558594 1304.011719 1150.300781 1298.019531 1150.300781 1298.019531 C 1150.300781 1298.019531 1161.828125 1301.277344 1160.988281 1312.632812 C 1153.058594 1319.804688 1131.261719 1322.015625 1123.589844 1328.710938 L 1123.230469 1329.027344 C 1079.570312 1275.582031 1057.128906 1225.304688 1068.160156 1180.019531 L 1069.28125 1164.09375 "/>
<path fill-rule="evenodd" fill="rgb(26.708984%, 29.80957%, 0%)" fill-opacity="1" d="M 1199.941406 1138.789062 L 1194.308594 1134.144531 C 1184.589844 1137.75 1182.320312 1143.117188 1187.800781 1150.324219 C 1188.988281 1146.503906 1193.230469 1141.511719 1199.941406 1138.789062 "/>
<path fill-rule="evenodd" fill="rgb(26.708984%, 29.80957%, 0%)" fill-opacity="1" d="M 1056.378906 1170.882812 L 1059.800781 1163.707031 C 1070.761719 1162.039062 1075.289062 1165.820312 1073.128906 1175.277344 C 1070.320312 1172.363281 1064.058594 1169.941406 1056.378906 1170.882812 "/>
<path fill-rule="evenodd" fill="rgb(98.826599%, 72.851562%, 1.597595%)" fill-opacity="1" d="M 1154.539062 1314.730469 C 1154.539062 1314.730469 1149.570312 1298.339844 1136.589844 1294.179688 C 1113.949219 1286.921875 1111.230469 1262.148438 1101.980469 1247.917969 C 1062.550781 1187.320312 1096.378906 1170.71875 1095.171875 1160.976562 C 1093.800781 1150.042969 1098.121094 1146.5625 1101.550781 1145.789062 C 1109.621094 1143.96875 1114.960938 1156.050781 1114.960938 1156.050781 C 1114.960938 1156.050781 1139.308594 1176.625 1149.828125 1211.960938 C 1173.488281 1291.390625 1161.429688 1279.511719 1164.058594 1285.828125 C 1166.679688 1292.144531 1173.769531 1307.25 1173.769531 1307.25 L 1154.539062 1314.730469 "/>
<path fill-rule="evenodd" fill="rgb(92.96875%, 100%, 33.68988%)" fill-opacity="1" d="M 1097.910156 1147.800781 L 1100.351562 1165.835938 C 1084.570312 1193.015625 1100.230469 1215.417969 1110.46875 1245.824219 C 1110.679688 1246.449219 1111.03125 1247.058594 1111.160156 1247.71875 C 1118.140625 1283.554688 1152.378906 1298.847656 1152.378906 1298.847656 L 1155.890625 1314.203125 L 1154.539062 1314.730469 C 1154.539062 1314.730469 1149.570312 1298.339844 1136.589844 1294.179688 C 1113.949219 1286.921875 1111.230469 1262.148438 1101.980469 1247.917969 C 1062.550781 1187.320312 1096.378906 1170.71875 1095.171875 1160.976562 C 1094.28125 1153.867188 1095.789062 1149.910156 1097.910156 1147.800781 "/>
<path fill-rule="evenodd" fill="rgb(77.539062%, 57.03125%, 0.900269%)" fill-opacity="1" d="M 1107.429688 1146.839844 C 1112.109375 1149.609375 1114.960938 1156.050781 1114.960938 1156.050781 C 1114.960938 1156.050781 1139.308594 1176.625 1149.828125 1211.960938 C 1173.488281 1291.390625 1161.429688 1279.511719 1164.058594 1285.828125 C 1166.679688 1292.144531 1173.769531 1307.25 1173.769531 1307.25 L 1161.710938 1311.941406 L 1152.988281 1286.398438 C 1133.890625 1254.042969 1124.558594 1222.332031 1116.238281 1171.933594 L 1107.429688 1146.839844 "/>
<path fill-rule="evenodd" fill="rgb(26.708984%, 29.80957%, 0%)" fill-opacity="1" d="M 1094.929688 1158.007812 C 1094.628906 1149.394531 1098.449219 1146.488281 1101.550781 1145.789062 C 1108.179688 1144.292969 1112.980469 1152.195312 1114.46875 1155.050781 C 1109.03125 1157.308594 1100.480469 1159.085938 1094.929688 1158.007812 "/>
<path fill-rule="evenodd" fill="rgb(98.826599%, 72.851562%, 1.597595%)" fill-opacity="1" d="M 1253.308594 1316.027344 C 1253.308594 1316.027344 1302.609375 1260.847656 1298.101562 1216.996094 C 1295.871094 1195.34375 1280.269531 1184.867188 1280.269531 1184.867188 L 1272.429688 1169.886719 C 1260.050781 1168.375 1255.738281 1172.902344 1259.878906 1183.753906 C 1245.191406 1241.96875 1227 1275.097656 1195.601562 1294.441406 C 1192.789062 1296.164062 1179.058594 1290.996094 1179.058594 1290.996094 C 1179.058594 1290.996094 1167.378906 1294.058594 1168.039062 1304.183594 C 1175.921875 1310.484375 1197.851562 1312.171875 1205.46875 1318.050781 C 1227.871094 1335.324219 1238.769531 1326.777344 1253.308594 1316.027344 "/>
<path fill-rule="evenodd" fill="rgb(77.539062%, 57.03125%, 0.900269%)" fill-opacity="1" d="M 1213.449219 1323.417969 C 1230.679688 1333.125 1240.609375 1325.414062 1253.308594 1316.027344 C 1253.308594 1316.027344 1302.609375 1260.847656 1298.101562 1216.996094 C 1295.871094 1195.34375 1280.269531 1184.867188 1280.269531 1184.867188 L 1272.429688 1169.886719 C 1271.238281 1169.742188 1270.128906 1169.652344 1269.089844 1169.621094 L 1273.671875 1186.625 C 1273.671875 1186.625 1290.03125 1219.480469 1278.730469 1249.816406 C 1261.480469 1296.128906 1223.339844 1329.785156 1213.449219 1323.417969 "/>
<path fill-rule="evenodd" fill="rgb(92.96875%, 100%, 33.68988%)" fill-opacity="1" d="M 1262.871094 1170.355469 C 1258.128906 1172.019531 1257.089844 1176.457031 1259.878906 1183.753906 C 1245.191406 1241.96875 1227 1275.097656 1195.601562 1294.441406 C 1192.789062 1296.164062 1179.058594 1290.996094 1179.058594 1290.996094 C 1179.058594 1290.996094 1167.378906 1294.058594 1168.039062 1304.183594 C 1175.921875 1310.484375 1197.851562 1312.171875 1205.46875 1318.050781 L 1205.828125 1318.328125 C 1250.691406 1270.035156 1274.121094 1224.847656 1263.738281 1184.558594 L 1262.871094 1170.355469 "/>
<path fill-rule="evenodd" fill="rgb(26.708984%, 29.80957%, 0%)" fill-opacity="1" d="M 1275.761719 1176.246094 L 1272.429688 1169.886719 C 1261.410156 1168.542969 1256.789062 1171.976562 1258.808594 1180.394531 C 1261.691406 1177.757812 1268.039062 1175.511719 1275.761719 1176.246094 "/>
<path fill-rule="evenodd" fill="rgb(98.826599%, 72.851562%, 1.597595%)" fill-opacity="1" d="M 1199.011719 1405.402344 C 1199.011719 1405.402344 1194.871094 1393.996094 1205.351562 1387.34375 C 1223.648438 1375.734375 1223.609375 1348.507812 1228.5 1333.832031 C 1249.320312 1271.332031 1223.171875 1264.09375 1222 1255.222656 C 1220.691406 1245.269531 1216.078125 1243.195312 1212.878906 1243.304688 C 1205.351562 1243.554688 1203.410156 1255.4375 1203.410156 1255.4375 C 1203.410156 1255.4375 1186.679688 1279.175781 1185.539062 1312.753906 C 1182.949219 1388.230469 1180.058594 1376.675781 1179.199219 1382.847656 C 1178.339844 1389.019531 1177.21875 1403.347656 1177.21875 1403.347656 L 1199.011719 1405.402344 "/>
<path fill-rule="evenodd" fill="rgb(98.826599%, 72.851562%, 1.597595%)" fill-opacity="1" d="M 1142.609375 1399.011719 C 1142.609375 1399.011719 1139.628906 1388.785156 1150.109375 1382.132812 C 1168.398438 1370.523438 1168.371094 1343.296875 1173.261719 1328.621094 C 1194.070312 1266.117188 1167.929688 1258.882812 1166.761719 1250.011719 C 1165.449219 1240.058594 1160.839844 1237.984375 1157.640625 1238.089844 C 1150.109375 1238.339844 1148.171875 1250.226562 1148.171875 1250.226562 C 1148.171875 1250.226562 1131.441406 1273.964844 1130.289062 1307.539062 C 1127.710938 1383.019531 1124.820312 1371.464844 1123.960938 1377.636719 C 1123.101562 1383.808594 1120.820312 1396.957031 1120.820312 1396.957031 L 1142.609375 1399.011719 "/>
<path fill-rule="evenodd" fill="rgb(77.539062%, 57.03125%, 0.900269%)" fill-opacity="1" d="M 1214.710938 1243.488281 C 1215.351562 1250.152344 1213.808594 1257.96875 1218.089844 1261.859375 C 1244.011719 1285.441406 1225.320312 1331.476562 1211.109375 1367.566406 L 1193 1397.34375 L 1193.578125 1404.890625 L 1199.011719 1405.402344 C 1199.011719 1405.402344 1194.871094 1393.996094 1205.351562 1387.34375 C 1223.648438 1375.734375 1223.609375 1348.507812 1228.5 1333.832031 C 1249.320312 1271.332031 1223.171875 1264.09375 1222 1255.222656 C 1220.929688 1247.054688 1217.628906 1244.191406 1214.710938 1243.488281 "/>
<path fill-rule="evenodd" fill="rgb(77.539062%, 57.03125%, 0.900269%)" fill-opacity="1" d="M 1159.46875 1238.277344 C 1160.109375 1244.941406 1158.558594 1252.757812 1162.839844 1256.648438 C 1188.769531 1280.230469 1170.078125 1326.265625 1155.871094 1362.355469 L 1137.761719 1392.132812 L 1137.171875 1398.496094 L 1142.609375 1399.011719 C 1142.609375 1399.011719 1139.628906 1388.785156 1150.109375 1382.132812 C 1168.398438 1370.523438 1168.371094 1343.296875 1173.261719 1328.621094 C 1194.070312 1266.117188 1167.929688 1258.882812 1166.761719 1250.011719 C 1165.679688 1241.839844 1162.378906 1238.980469 1159.46875 1238.277344 "/>
<path fill-rule="evenodd" fill="rgb(92.96875%, 100%, 33.68988%)" fill-opacity="1" d="M 1211.351562 1243.527344 C 1205.078125 1245.195312 1203.410156 1255.4375 1203.410156 1255.4375 C 1203.410156 1255.4375 1186.679688 1279.175781 1185.539062 1312.753906 C 1182.949219 1388.230469 1180.058594 1376.675781 1179.199219 1382.847656 C 1178.839844 1385.4375 1178.441406 1389.464844 1178.089844 1393.265625 C 1193.171875 1348.734375 1183.660156 1296.351562 1205.820312 1265.089844 C 1208.320312 1261.566406 1207.070312 1252.015625 1211.351562 1243.527344 "/>
<path fill-rule="evenodd" fill="rgb(92.96875%, 100%, 33.68988%)" fill-opacity="1" d="M 1156.109375 1238.316406 C 1149.839844 1239.980469 1148.171875 1250.226562 1148.171875 1250.226562 C 1148.171875 1250.226562 1131.441406 1273.964844 1130.289062 1307.539062 C 1127.710938 1383.019531 1124.820312 1371.464844 1123.960938 1377.636719 C 1123.601562 1380.226562 1123.191406 1384.253906 1122.839844 1388.054688 C 1137.921875 1343.519531 1128.421875 1291.140625 1150.578125 1259.878906 C 1153.070312 1256.355469 1151.828125 1246.804688 1156.109375 1238.316406 "/>
<path fill-rule="evenodd" fill="rgb(26.708984%, 29.80957%, 0%)" fill-opacity="1" d="M 1221.148438 1251.074219 C 1219.269531 1244.671875 1215.578125 1243.214844 1212.878906 1243.304688 C 1208.351562 1243.453125 1205.839844 1247.816406 1204.570312 1251.265625 C 1209.828125 1253.988281 1215.390625 1253.597656 1221.148438 1251.074219 "/>
<path fill-rule="evenodd" fill="rgb(26.708984%, 29.80957%, 0%)" fill-opacity="1" d="M 1165.910156 1245.863281 C 1164.03125 1239.457031 1160.328125 1238.003906 1157.640625 1238.089844 C 1153.109375 1238.242188 1150.601562 1242.605469 1149.320312 1246.054688 C 1154.578125 1248.777344 1160.140625 1248.386719 1165.910156 1245.863281 "/>
<path fill-rule="evenodd" fill="rgb(98.826599%, 72.851562%, 1.597595%)" fill-opacity="1" d="M 1227.601562 1399.390625 C 1227.601562 1399.390625 1277.488281 1342.414062 1276.230469 1299.242188 C 1275.609375 1277.925781 1261.710938 1268.316406 1261.710938 1268.316406 L 1255.378906 1253.871094 C 1243.898438 1252.972656 1239.550781 1257.660156 1242.691406 1268.199219 C 1225.011719 1326.507812 1205.738281 1360.164062 1175.03125 1380.820312 C 1172.289062 1382.664062 1159.78125 1378.214844 1159.78125 1378.214844 C 1159.78125 1378.214844 1148.640625 1381.804688 1148.578125 1391.792969 C 1155.53125 1397.644531 1175.941406 1398.257812 1182.679688 1403.703125 C 1202.480469 1419.710938 1213.261719 1410.730469 1227.601562 1399.390625 "/>
<path fill-rule="evenodd" fill="rgb(98.826599%, 72.851562%, 1.597595%)" fill-opacity="1" d="M 1058.320312 1377.308594 C 1058.320312 1377.308594 1039.839844 1314.035156 1059.839844 1275.078125 C 1069.730469 1255.847656 1086.039062 1250.308594 1086.039062 1250.308594 L 1097.878906 1238.632812 C 1108.28125 1240.460938 1110.011719 1245.71875 1102.660156 1254.574219 C 1092.519531 1311.652344 1094.558594 1346.679688 1112.25 1372.519531 C 1113.828125 1374.824219 1126.679688 1373.660156 1126.679688 1373.660156 C 1126.679688 1373.660156 1134.808594 1379.488281 1130.488281 1388.582031 C 1121.871094 1392.304688 1103.820312 1388.164062 1095.570312 1391.566406 C 1071.308594 1401.5625 1065.851562 1390.914062 1058.320312 1377.308594 "/>
<path fill-rule="evenodd" fill="rgb(77.539062%, 57.03125%, 0.900269%)" fill-opacity="1" d="M 1189.789062 1408.628906 C 1205.261719 1417.398438 1215.078125 1409.292969 1227.601562 1399.390625 C 1227.601562 1399.390625 1277.488281 1342.414062 1276.230469 1299.242188 C 1275.609375 1277.925781 1261.710938 1268.316406 1261.710938 1268.316406 L 1255.378906 1253.871094 C 1254.28125 1253.785156 1253.25 1253.753906 1252.28125 1253.769531 L 1255.421875 1270.375 C 1255.421875 1270.375 1268.511719 1302.09375 1255.878906 1332.652344 C 1236.601562 1379.304688 1198.609375 1414.453125 1189.789062 1408.628906 "/>
<path fill-rule="evenodd" fill="rgb(92.96875%, 100%, 33.68988%)" fill-opacity="1" d="M 1087.210938 1394.40625 C 1069.890625 1398.816406 1064.898438 1389.191406 1058.320312 1377.308594 C 1058.320312 1377.308594 1039.839844 1314.035156 1059.839844 1275.078125 C 1069.730469 1255.847656 1086.039062 1250.308594 1086.039062 1250.308594 L 1097.878906 1238.632812 C 1098.878906 1238.808594 1099.789062 1239.015625 1100.628906 1239.253906 L 1090.621094 1253.625 C 1090.621094 1253.625 1065.320312 1279.449219 1062.929688 1310.136719 C 1059.289062 1356.980469 1076.980469 1397.671875 1087.210938 1394.40625 "/>
<path fill-rule="evenodd" fill="rgb(92.96875%, 100%, 33.68988%)" fill-opacity="1" d="M 1246.410156 1254.796875 C 1241.851562 1256.671875 1240.578125 1261.113281 1242.691406 1268.199219 C 1225.011719 1326.507812 1205.738281 1360.164062 1175.03125 1380.820312 C 1172.289062 1382.664062 1159.78125 1378.214844 1159.78125 1378.214844 C 1159.78125 1378.214844 1148.640625 1381.804688 1148.578125 1391.792969 C 1155.53125 1397.644531 1175.941406 1398.257812 1182.679688 1403.703125 L 1183 1403.960938 C 1228.261719 1354.011719 1253.25 1308.171875 1246.261719 1268.808594 L 1246.410156 1254.796875 "/>
<path fill-rule="evenodd" fill="rgb(98.826599%, 72.851562%, 1.597595%)" fill-opacity="1" d="M 1037.261719 1389.226562 C 1037.261719 1389.226562 1006.011719 1326.664062 1017.519531 1285.769531 C 1023.199219 1265.578125 1038.03125 1258.746094 1038.03125 1258.746094 L 1047.199219 1246.050781 C 1057.769531 1247.109375 1060.550781 1252.292969 1055.191406 1261.804688 C 1057.109375 1320.265625 1066.390625 1355.519531 1089.089844 1380.304688 C 1091.109375 1382.515625 1103.449219 1380.367188 1103.449219 1380.367188 C 1103.449219 1380.367188 1112.628906 1385.644531 1110.28125 1395.160156 C 1102.609375 1399.574219 1084.078125 1396.757812 1076.699219 1400.820312 C 1055.011719 1412.757812 1047.460938 1402.410156 1037.261719 1389.226562 "/>
<path fill-rule="evenodd" fill="rgb(77.539062%, 57.03125%, 0.900269%)" fill-opacity="1" d="M 1105.289062 1241.539062 C 1108.441406 1244.289062 1107.601562 1248.621094 1102.660156 1254.574219 C 1092.519531 1311.652344 1094.558594 1346.679688 1112.25 1372.519531 C 1113.828125 1374.824219 1126.679688 1373.660156 1126.679688 1373.660156 C 1126.679688 1373.660156 1134.808594 1379.488281 1130.488281 1388.582031 C 1121.871094 1392.304688 1103.820312 1388.164062 1095.570312 1391.566406 L 1095.171875 1391.726562 C 1077.628906 1335.902344 1075.949219 1288.484375 1099.28125 1254.308594 L 1105.289062 1241.539062 "/>
<path fill-rule="evenodd" fill="rgb(26.708984%, 29.80957%, 0%)" fill-opacity="1" d="M 1258.070312 1260.003906 L 1255.378906 1253.871094 C 1245.160156 1253.074219 1240.601562 1256.695312 1241.929688 1264.925781 C 1244.800781 1262.175781 1250.898438 1259.648438 1258.070312 1260.003906 "/>
<path fill-rule="evenodd" fill="rgb(92.96875%, 100%, 33.68988%)" fill-opacity="1" d="M 1069.109375 1404.320312 C 1053.058594 1410.09375 1046.171875 1400.742188 1037.261719 1389.226562 C 1037.261719 1389.226562 1006.011719 1326.664062 1017.519531 1285.769531 C 1023.199219 1265.578125 1038.03125 1258.746094 1038.03125 1258.746094 L 1047.199219 1246.050781 C 1048.210938 1246.152344 1049.148438 1246.289062 1050.019531 1246.46875 L 1043.210938 1261.753906 C 1043.210938 1261.753906 1023.789062 1289.769531 1027.820312 1320.972656 C 1033.980469 1368.601562 1059.761719 1408.398438 1069.109375 1404.320312 "/>
<path fill-rule="evenodd" fill="rgb(26.708984%, 29.80957%, 0%)" fill-opacity="1" d="M 1092.851562 1243.589844 L 1097.878906 1238.632812 C 1107.128906 1240.257812 1109.519531 1244.601562 1104.761719 1251.777344 C 1103.460938 1248.617188 1099.261719 1244.914062 1092.851562 1243.589844 "/>
<path fill-rule="evenodd" fill="rgb(98.826599%, 72.851562%, 1.597595%)" fill-opacity="1" d="M 1195.789062 1389.027344 C 1195.789062 1389.027344 1224 1324.128906 1208.039062 1281.96875 C 1200.160156 1261.152344 1183.589844 1254.210938 1183.589844 1254.210938 L 1172.601562 1241.167969 C 1161.308594 1242.347656 1158.761719 1247.726562 1165.371094 1257.511719 C 1168.390625 1317.933594 1161.480469 1354.4375 1139.191406 1380.230469 C 1137.199219 1382.53125 1123.710938 1380.410156 1123.710938 1380.410156 C 1123.710938 1380.410156 1114.289062 1385.9375 1117.648438 1395.753906 C 1126.289062 1400.253906 1146.019531 1397.1875 1154.320312 1401.328125 C 1178.71875 1413.488281 1185.960938 1402.734375 1195.789062 1389.027344 "/>
<path fill-rule="evenodd" fill="rgb(77.539062%, 57.03125%, 0.900269%)" fill-opacity="1" d="M 1055.070312 1248.425781 C 1058.71875 1250.96875 1058.789062 1255.410156 1055.191406 1261.804688 C 1057.109375 1320.265625 1066.390625 1355.519531 1089.089844 1380.304688 C 1091.109375 1382.515625 1103.449219 1380.367188 1103.449219 1380.367188 C 1103.449219 1380.367188 1112.628906 1385.644531 1110.28125 1395.160156 C 1102.609375 1399.574219 1084.078125 1396.757812 1076.699219 1400.820312 L 1076.351562 1401.011719 C 1047.570312 1345.910156 1036.070312 1298.101562 1051.828125 1261.789062 L 1055.070312 1248.425781 "/>
<path fill-rule="evenodd" fill="rgb(77.539062%, 57.03125%, 0.900269%)" fill-opacity="1" d="M 1162.800781 1404.886719 C 1180.589844 1410.71875 1187.199219 1401 1195.789062 1389.027344 C 1195.789062 1389.027344 1224 1324.128906 1208.039062 1281.96875 C 1200.160156 1261.152344 1183.589844 1254.210938 1183.589844 1254.210938 L 1172.601562 1241.167969 C 1171.519531 1241.28125 1170.519531 1241.429688 1169.589844 1241.621094 L 1178.269531 1257.363281 C 1178.269531 1257.363281 1201.628906 1286.152344 1200.011719 1318.425781 C 1197.53125 1367.691406 1173.230469 1409.019531 1162.800781 1404.886719 "/>
<path fill-rule="evenodd" fill="rgb(92.96875%, 100%, 33.68988%)" fill-opacity="1" d="M 1164.328125 1243.6875 C 1160.621094 1246.34375 1160.929688 1250.933594 1165.371094 1257.511719 C 1168.390625 1317.933594 1161.480469 1354.4375 1139.191406 1380.230469 C 1137.199219 1382.53125 1123.710938 1380.410156 1123.710938 1380.410156 C 1123.710938 1380.410156 1114.289062 1385.9375 1117.648438 1395.753906 C 1126.289062 1400.253906 1146.019531 1397.1875 1154.320312 1401.328125 L 1154.710938 1401.523438 C 1180.910156 1344.351562 1189.128906 1294.859375 1168.988281 1257.46875 L 1164.328125 1243.6875 "/>
<path fill-rule="evenodd" fill="rgb(26.708984%, 29.80957%, 0%)" fill-opacity="1" d="M 1043.308594 1251.4375 L 1047.199219 1246.050781 C 1056.601562 1246.992188 1059.839844 1251.199219 1056.671875 1258.8125 C 1054.738281 1255.71875 1049.851562 1252.296875 1043.308594 1251.4375 "/>
<path fill-rule="evenodd" fill="rgb(26.708984%, 29.80957%, 0%)" fill-opacity="1" d="M 1177.269531 1246.703125 L 1172.601562 1241.167969 C 1162.558594 1242.214844 1159.429688 1246.589844 1163.519531 1254.433594 C 1165.320312 1251.21875 1170.289062 1247.640625 1177.269531 1246.703125 "/>
<path fill-rule="evenodd" fill="rgb(98.826599%, 72.851562%, 1.597595%)" fill-opacity="1" d="M 1037.03125 1419.988281 C 1037.03125 1419.988281 980.867188 1382.679688 974.753906 1342.976562 C 971.738281 1323.371094 983.082031 1310.550781 983.082031 1310.550781 L 986.550781 1295.535156 C 997.117188 1291.351562 1001.960938 1294.351562 1000.808594 1304.871094 C 1027.148438 1352.820312 1050.808594 1377.84375 1082.949219 1387.675781 C 1085.820312 1388.554688 1096.738281 1380.835938 1096.738281 1380.835938 C 1096.738281 1380.835938 1107.738281 1380.847656 1109.488281 1389.929688 C 1103.988281 1397.296875 1085.050781 1403.828125 1079.679688 1410.765625 C 1063.910156 1431.144531 1052.328125 1426.117188 1037.03125 1419.988281 "/>
<path fill-rule="evenodd" fill="rgb(92.96875%, 100%, 33.68988%)" fill-opacity="1" d="M 1073.871094 1417.335938 C 1060.910156 1429.855469 1050.390625 1425.34375 1037.03125 1419.988281 C 1037.03125 1419.988281 980.867188 1382.679688 974.753906 1342.976562 C 971.738281 1323.371094 983.082031 1310.550781 983.082031 1310.550781 L 986.550781 1295.535156 C 987.5625 1295.132812 988.523438 1294.800781 989.429688 1294.53125 L 989.304688 1310.578125 C 989.304688 1310.578125 982.441406 1343.3125 999.382812 1367.460938 C 1025.238281 1404.324219 1066.621094 1425.222656 1073.871094 1417.335938 "/>
<path fill-rule="evenodd" fill="rgb(77.539062%, 57.03125%, 0.900269%)" fill-opacity="1" d="M 995.085938 1293.75 C 999.648438 1294.125 1001.578125 1297.796875 1000.808594 1304.871094 C 1027.148438 1352.820312 1050.808594 1377.84375 1082.949219 1387.675781 C 1085.820312 1388.554688 1096.738281 1380.835938 1096.738281 1380.835938 C 1096.738281 1380.835938 1107.738281 1380.847656 1109.488281 1389.929688 C 1106.871094 1393.4375 1101.191406 1396.761719 1095.390625 1400.027344 C 1089.019531 1403.613281 1082.488281 1407.132812 1079.679688 1410.765625 L 1079.421875 1411.09375 C 1028.761719 1378.832031 997.699219 1344.382812 997.582031 1306.472656 L 995.085938 1293.75 "/>
<path fill-rule="evenodd" fill="rgb(26.708984%, 29.80957%, 0%)" fill-opacity="1" d="M 985.078125 1301.910156 L 986.550781 1295.535156 C 995.953125 1291.8125 1000.820312 1293.777344 1000.96875 1301.664062 C 997.832031 1300 991.710938 1299.484375 985.078125 1301.910156 "/>
<path fill-rule="evenodd" fill="rgb(35.496521%, 42.504883%, 11.59668%)" fill-opacity="1" d="M 1125.839844 1432.722656 C 1127.171875 1431.609375 1129.078125 1431.503906 1130.53125 1432.464844 C 1132.308594 1433.640625 1134.769531 1435.273438 1136.929688 1436.707031 C 1137.511719 1437.09375 1137.761719 1437.816406 1137.539062 1438.476562 C 1137.320312 1439.136719 1136.691406 1439.566406 1135.988281 1439.523438 C 1129.238281 1439.113281 1118.929688 1438.488281 1118.929688 1438.488281 C 1118.929688 1438.488281 1123.128906 1434.984375 1125.839844 1432.722656 "/>
<path fill-rule="evenodd" fill="rgb(35.496521%, 42.504883%, 11.59668%)" fill-opacity="1" d="M 1127.640625 1410.539062 C 1128.96875 1409.425781 1130.878906 1409.320312 1132.328125 1410.28125 C 1134.109375 1411.457031 1136.570312 1413.089844 1138.738281 1414.523438 C 1139.308594 1414.90625 1139.558594 1415.632812 1139.339844 1416.292969 C 1139.121094 1416.953125 1138.488281 1417.382812 1137.789062 1417.339844 C 1131.050781 1416.929688 1120.738281 1416.300781 1120.738281 1416.300781 C 1120.738281 1416.300781 1124.929688 1412.800781 1127.640625 1410.539062 "/>
<path fill-rule="evenodd" fill="rgb(35.496521%, 42.504883%, 11.59668%)" fill-opacity="1" d="M 1125.839844 1455.234375 C 1127.171875 1454.121094 1129.078125 1454.015625 1130.53125 1454.976562 C 1132.308594 1456.152344 1134.769531 1457.785156 1136.929688 1459.21875 C 1137.511719 1459.605469 1137.761719 1460.328125 1137.539062 1460.988281 C 1137.320312 1461.648438 1136.691406 1462.078125 1135.988281 1462.035156 C 1129.238281 1461.625 1118.929688 1461 1118.929688 1461 C 1118.929688 1461 1123.128906 1457.496094 1125.839844 1455.234375 "/>
<path fill-rule="evenodd" fill="rgb(35.496521%, 42.504883%, 11.59668%)" fill-opacity="1" d="M 1123.980469 1482.011719 C 1125.308594 1480.898438 1127.21875 1480.792969 1128.671875 1481.753906 C 1129.859375 1482.539062 1131.328125 1483.515625 1132.730469 1484.445312 C 1133.308594 1484.828125 1133.558594 1485.554688 1133.339844 1486.214844 C 1133.121094 1486.875 1132.480469 1487.304688 1131.789062 1487.261719 C 1126.238281 1486.925781 1118.648438 1486.460938 1118.648438 1486.460938 C 1118.648438 1486.460938 1121.738281 1483.878906 1123.980469 1482.011719 "/>
<path fill-rule="evenodd" fill="rgb(35.496521%, 42.504883%, 11.59668%)" fill-opacity="1" d="M 1122.140625 1504.523438 C 1123.480469 1503.410156 1125.378906 1503.304688 1126.828125 1504.265625 C 1128.019531 1505.054688 1129.488281 1506.027344 1130.890625 1506.957031 C 1131.46875 1507.339844 1131.71875 1508.066406 1131.5 1508.726562 C 1131.28125 1509.386719 1130.640625 1509.816406 1129.949219 1509.773438 C 1124.398438 1509.4375 1116.808594 1508.976562 1116.808594 1508.976562 C 1116.808594 1508.976562 1119.910156 1506.390625 1122.140625 1504.523438 "/>
<path fill-rule="evenodd" fill="rgb(35.496521%, 42.504883%, 11.59668%)" fill-opacity="1" d="M 1120.808594 1529.191406 C 1122.101562 1528.183594 1123.890625 1528.085938 1125.289062 1528.949219 C 1126.359375 1529.613281 1127.679688 1530.425781 1128.96875 1531.222656 C 1129.558594 1531.589844 1129.839844 1532.320312 1129.628906 1532.992188 C 1129.410156 1533.660156 1128.769531 1534.105469 1128.070312 1534.066406 C 1122.621094 1533.757812 1115.46875 1533.351562 1115.46875 1533.351562 C 1115.46875 1533.351562 1118.589844 1530.914062 1120.808594 1529.191406 "/>
<path fill-rule="evenodd" fill="rgb(35.496521%, 42.504883%, 11.59668%)" fill-opacity="1" d="M 1113.960938 1444.371094 C 1112.628906 1443.257812 1110.71875 1443.152344 1109.269531 1444.113281 C 1107.488281 1445.289062 1105.03125 1446.925781 1102.871094 1448.355469 C 1102.289062 1448.742188 1102.039062 1449.46875 1102.261719 1450.125 C 1102.480469 1450.785156 1103.121094 1451.214844 1103.808594 1451.171875 C 1110.558594 1450.761719 1120.871094 1450.136719 1120.871094 1450.136719 C 1120.871094 1450.136719 1116.671875 1446.636719 1113.960938 1444.371094 "/>
<path fill-rule="evenodd" fill="rgb(35.496521%, 42.504883%, 11.59668%)" fill-opacity="1" d="M 1115.761719 1422.1875 C 1114.429688 1421.074219 1112.519531 1420.96875 1111.070312 1421.929688 C 1109.300781 1423.105469 1106.828125 1424.738281 1104.671875 1426.171875 C 1104.089844 1426.554688 1103.839844 1427.28125 1104.058594 1427.941406 C 1104.28125 1428.601562 1104.921875 1429.03125 1105.609375 1428.988281 C 1112.359375 1428.578125 1122.671875 1427.949219 1122.671875 1427.949219 C 1122.671875 1427.949219 1118.46875 1424.449219 1115.761719 1422.1875 "/>
<path fill-rule="evenodd" fill="rgb(35.496521%, 42.504883%, 11.59668%)" fill-opacity="1" d="M 1113.960938 1466.886719 C 1112.628906 1465.773438 1110.71875 1465.664062 1109.269531 1466.625 C 1107.488281 1467.804688 1105.03125 1469.4375 1102.871094 1470.867188 C 1102.289062 1471.253906 1102.039062 1471.980469 1102.261719 1472.640625 C 1102.480469 1473.300781 1103.121094 1473.726562 1103.808594 1473.6875 C 1110.558594 1473.273438 1120.871094 1472.648438 1120.871094 1472.648438 C 1120.871094 1472.648438 1116.671875 1469.148438 1113.960938 1466.886719 "/>
<path fill-rule="evenodd" fill="rgb(35.496521%, 42.504883%, 11.59668%)" fill-opacity="1" d="M 1112.929688 1491.582031 C 1111.601562 1490.46875 1109.691406 1490.363281 1108.238281 1491.324219 C 1107.050781 1492.109375 1105.578125 1493.085938 1104.179688 1494.015625 C 1103.601562 1494.398438 1103.351562 1495.125 1103.570312 1495.785156 C 1103.789062 1496.441406 1104.429688 1496.871094 1105.121094 1496.828125 C 1110.671875 1496.492188 1118.261719 1496.03125 1118.261719 1496.03125 C 1118.261719 1496.03125 1115.171875 1493.445312 1112.929688 1491.582031 "/>
<path fill-rule="evenodd" fill="rgb(35.496521%, 42.504883%, 11.59668%)" fill-opacity="1" d="M 1111.101562 1514.09375 C 1109.761719 1512.980469 1107.851562 1512.875 1106.410156 1513.835938 C 1105.21875 1514.621094 1103.738281 1515.597656 1102.339844 1516.527344 C 1101.761719 1516.910156 1101.511719 1517.636719 1101.730469 1518.296875 C 1101.960938 1518.957031 1102.589844 1519.386719 1103.289062 1519.34375 C 1108.839844 1519.003906 1116.429688 1518.542969 1116.429688 1518.542969 C 1116.429688 1518.542969 1113.328125 1515.960938 1111.101562 1514.09375 "/>
<path fill-rule="evenodd" fill="rgb(35.496521%, 42.504883%, 11.59668%)" fill-opacity="1" d="M 1109.75 1538.019531 C 1108.449219 1537.011719 1106.660156 1536.914062 1105.269531 1537.777344 C 1104.191406 1538.441406 1102.878906 1539.253906 1101.589844 1540.050781 C 1100.988281 1540.421875 1100.71875 1541.148438 1100.929688 1541.820312 C 1101.140625 1542.492188 1101.78125 1542.933594 1102.480469 1542.894531 C 1107.929688 1542.585938 1115.089844 1542.179688 1115.089844 1542.179688 C 1115.089844 1542.179688 1111.960938 1539.746094 1109.75 1538.019531 "/>
<path fill-rule="evenodd" fill="rgb(68.75%, 35.009766%, 19.798279%)" fill-opacity="1" d="M 1066.03125 1586.199219 C 1068.960938 1547.304688 1145.449219 1539.921875 1160.820312 1564.777344 C 1177.210938 1591.285156 1165.769531 1656.414062 1153.140625 1678.953125 C 1124.039062 1730.914062 1111.820312 1720.621094 1099.089844 1707.96875 C 1050.410156 1659.597656 1066.03125 1586.199219 1066.03125 1586.199219 "/>
<path fill-rule="evenodd" fill="rgb(59.179688%, 30.200195%, 17.088318%)" fill-opacity="1" d="M 1122.308594 1550.367188 C 1126.820312 1572.8125 1128.519531 1605.398438 1114.5 1640.851562 C 1101.429688 1673.914062 1117.96875 1709.769531 1121.679688 1717.105469 C 1120.558594 1717.558594 1119.46875 1717.863281 1118.421875 1718.039062 C 1113.371094 1716.691406 1108.988281 1712.398438 1104.550781 1707.808594 C 1055.871094 1657.488281 1071.488281 1581.132812 1071.488281 1581.132812 C 1071.941406 1574.917969 1074.128906 1569.472656 1077.558594 1564.808594 C 1088.660156 1555.382812 1106.058594 1550.558594 1122.308594 1550.367188 "/>
<path fill-rule="evenodd" fill="rgb(68.75%, 35.009766%, 19.798279%)" fill-opacity="1" d="M 1115.480469 1550.714844 C 1120.890625 1572.242188 1124.390625 1606.269531 1109.039062 1643.605469 C 1094.410156 1679.175781 1116.871094 1718.105469 1116.929688 1718.207031 C 1110.109375 1718.570312 1104.648438 1713.492188 1099.089844 1707.96875 C 1050.410156 1659.597656 1066.03125 1586.199219 1066.03125 1586.199219 C 1067.640625 1564.726562 1091.679688 1552.855469 1115.480469 1550.714844 "/>
<path fill-rule="evenodd" fill="rgb(79.492188%, 44.604492%, 28.808594%)" fill-opacity="1" d="M 1081.890625 1561.5625 C 1071.851562 1602.972656 1098.730469 1648.710938 1104.96875 1713.402344 C 1102.980469 1711.789062 1101.039062 1709.90625 1099.089844 1707.96875 C 1050.410156 1659.597656 1066.03125 1586.199219 1066.03125 1586.199219 C 1066.820312 1575.675781 1073 1567.457031 1081.890625 1561.5625 "/>
<path fill-rule="evenodd" fill="rgb(59.179688%, 30.200195%, 17.30957%)" fill-opacity="1" d="M 1151.628906 1681.628906 C 1102.25 1669.765625 1125.910156 1606.058594 1081.890625 1561.601562 C 1082.269531 1561.355469 1082.898438 1560.933594 1082.898438 1560.933594 L 1089.359375 1564.425781 C 1089.359375 1564.425781 1150.691406 1555.402344 1160.820312 1571.777344 C 1166.191406 1580.476562 1168.578125 1593.335938 1168.898438 1607.488281 C 1168.308594 1634.789062 1160.949219 1665.015625 1153.140625 1678.953125 C 1152.171875 1680.699219 1152.570312 1680.019531 1151.628906 1681.628906 "/>
<path fill-rule="evenodd" fill="rgb(68.75%, 35.009766%, 19.798279%)" fill-opacity="1" d="M 1082.890625 1560.917969 C 1107.070312 1545.699219 1149.761719 1546.894531 1160.820312 1564.777344 C 1176.878906 1590.753906 1166.21875 1653.8125 1153.898438 1677.542969 L 1153.339844 1678.003906 C 1103.988281 1663.015625 1127.878906 1606.351562 1082.890625 1560.917969 "/>
<path fill-rule="evenodd" fill="rgb(59.179688%, 30.200195%, 17.30957%)" fill-opacity="1" d="M 1147.121094 1554.386719 C 1153.179688 1556.78125 1158.011719 1560.242188 1160.820312 1564.777344 C 1177.210938 1591.285156 1165.769531 1656.414062 1153.140625 1678.953125 C 1145.199219 1693.128906 1138.519531 1702.671875 1132.738281 1708.792969 C 1158.21875 1632.90625 1124.429688 1595.019531 1147.121094 1554.386719 "/>
<path fill-rule="evenodd" fill="rgb(59.179688%, 30.200195%, 17.30957%)" fill-opacity="1" d="M 1147.121094 1554.386719 C 1153.171875 1556.78125 1158.011719 1560.242188 1160.820312 1564.777344 C 1176.878906 1590.753906 1166.21875 1653.8125 1153.898438 1677.542969 L 1153.339844 1678.003906 C 1148.691406 1676.589844 1144.691406 1674.808594 1141.230469 1672.703125 C 1148.238281 1619.757812 1128.339844 1588.015625 1147.121094 1554.386719 "/>
<path fill-rule="evenodd" fill="rgb(62.693787%, 69.334412%, 4.699707%)" fill-opacity="1" d="M 1095.101562 1397.511719 L 1127.75 1398.152344 C 1126.320312 1392.792969 1127.941406 1387.046875 1130.578125 1381.175781 C 1115.109375 1380.746094 1112.769531 1381.070312 1096.121094 1381.226562 L 1095.101562 1397.511719 "/>
<path fill-rule="evenodd" fill="rgb(98.826599%, 72.851562%, 1.597595%)" fill-opacity="1" d="M 1126.101562 1398.328125 C 1126.101562 1398.328125 1126.710938 1382.734375 1137.199219 1376.082031 C 1155.488281 1364.472656 1152.191406 1342.007812 1157.070312 1327.328125 C 1177.890625 1264.828125 1144.238281 1257.972656 1143.070312 1249.105469 C 1141.761719 1239.152344 1137.148438 1237.078125 1133.960938 1237.183594 C 1126.421875 1237.433594 1124.488281 1249.316406 1124.488281 1249.316406 C 1124.488281 1249.316406 1107.761719 1273.054688 1106.609375 1306.632812 C 1104.019531 1382.109375 1111.921875 1368.863281 1111.058594 1375.035156 C 1110.199219 1381.207031 1111.519531 1394.863281 1111.519531 1394.863281 L 1118.648438 1398.328125 C 1121.671875 1398.703125 1124.179688 1399.050781 1126.101562 1398.328125 "/>
<path fill-rule="evenodd" fill="rgb(77.539062%, 57.03125%, 0.900269%)" fill-opacity="1" d="M 1137.628906 1238.117188 L 1139.621094 1254.582031 C 1159.789062 1274.914062 1151.128906 1298.269531 1149.109375 1327.4375 C 1149.070312 1328.035156 1148.890625 1328.652344 1148.929688 1329.265625 C 1151.019531 1362.46875 1124.351562 1383.828125 1124.351562 1383.828125 L 1124.789062 1398.175781 L 1126.101562 1398.328125 C 1126.101562 1398.328125 1126.710938 1382.734375 1137.199219 1376.082031 C 1155.488281 1364.472656 1152.191406 1342.007812 1157.070312 1327.328125 C 1177.890625 1264.828125 1144.238281 1257.972656 1143.070312 1249.105469 C 1142.21875 1242.632812 1139.980469 1239.492188 1137.628906 1238.117188 "/>
<path fill-rule="evenodd" fill="rgb(92.96875%, 100%, 33.68988%)" fill-opacity="1" d="M 1129.011719 1239.464844 C 1125.519531 1242.980469 1124.488281 1249.316406 1124.488281 1249.316406 C 1124.488281 1249.316406 1107.761719 1273.054688 1106.609375 1306.632812 C 1104.019531 1382.109375 1111.921875 1368.863281 1111.058594 1375.035156 C 1110.199219 1381.207031 1110.980469 1394.863281 1110.980469 1394.863281 C 1113.179688 1396.476562 1112.210938 1397.792969 1119.179688 1398.644531 L 1120.949219 1372.992188 C 1130.351562 1340.070312 1131.28125 1309.964844 1127.019531 1263.613281 L 1129.011719 1239.464844 "/>
<path fill-rule="evenodd" fill="rgb(26.708984%, 29.80957%, 0%)" fill-opacity="1" d="M 1142.609375 1246.429688 C 1140.878906 1238.769531 1136.839844 1237.085938 1133.960938 1237.183594 C 1127.761719 1237.390625 1125.351562 1245.460938 1124.691406 1248.324219 C 1130.011719 1249.0625 1137.949219 1248.660156 1142.609375 1246.429688 "/>
</svg>
