<?xml version="1.0" encoding="utf-8"?>
<svg viewBox="24.872596740722656 46.80365753173828 319.12890625 364.5959777832031" width="319.12890625" height="364.5959777832031" xmlns="http://www.w3.org/2000/svg"><g transform="matrix(1, 0, 0, 1, -96.99851226806646, -474.38336181640625)"><path fill-rule="evenodd" clip-rule="evenodd" fill="#4B9437" d="M173.098,524.565c48.851,3.88,84.291,31.534,110.158,71.211&#10;&#9;c13.991-36.642,43.931-54.932,82.823-60.648l0.145-0.021l0.146-0.008c10.325-0.507,20.635,1.327,30.152,5.364&#10;&#9;c9.518,4.035,18.004,10.172,24.818,17.947c13.806,15.753,19.66,36.95,15.896,57.555l-0.676,3.703l-1.012,5.536l-1.711-1.749&#10;&#9;l-3.054-3.121c-44.056-45.031-91.408-58.892-141.361-14.408l-1.748,1.556c0.093,0.143,0.186,0.284,0.276,0.429&#10;&#9;c7.88-4.021,26.074-13.194,34.459-12.73l0.159,0.01l0.157,0.026c0.348,0.056,0.696,0.113,1.042,0.172l1.989-0.748&#10;&#9;c8.708-3.282,18.092-4.683,27.363-4.977l0.501-0.014l0.479,0.146c17.721,5.462,32.899,15.142,45.582,28.671l0.117,0.125l0.102,0.137&#10;&#9;c20.484,27.525,29.689,58.438,26.983,92.661l-0.566,7.153l-0.568,7.192l-3.324-6.026l-3.085-5.593&#10;&#9;c-26.611-48.244-66.107-94.097-125.139-95.091c0.95,1.859,1.873,3.73,2.777,5.606c5.734,11.884,10.887,24.167,15.842,36.394&#10;&#9;l1.256,3.101c1.251,1.252,2.501,2.503,3.753,3.753l0.519,0.52l0.221,0.7c5.459,17.269,10.758,34.852,15.045,52.502l2.917-7.42&#10;&#9;l1.586,11.326c4.961,35.391,9.246,70.885,13.108,106.412l0.327,3.015c0.561,0.758,1.123,1.515,1.688,2.269l0.58,0.774l0.02,0.965&#10;&#9;c0.199,9.422,0.416,18.844,0.624,28.267l0.046,2.103l-1.96,0.764c-17.143,6.673-36.171,6.673-53.314,0l-1.971-0.769l0.058-2.114&#10;&#9;c0.932-33.818,2.765-67.623,5.203-101.363l0.324-4.482c-2.183-21.233-4.354-42.467-6.552-63.696l-0.776-7.498&#10;&#9;c-2.263-15.418-5.565-30.841-10.521-45.591l-0.981-2.923c-2.037-3.542-4.071-7.087-6.104-10.632l-0.597,0.18&#10;&#9;c-7.296,2.205-14.114,5.517-20.204,10.117c-15.964,12.06-24.057,30.753-28.151,49.829c-2.753,12.835-3.802,26.167-3.937,39.275&#10;&#9;c-0.169,16.298,1.075,32.695,3.062,48.863l1.326,10.788l-6.679-8.576c-1.655-2.127-3.129-4.537-4.443-7.166l-3.192-2.706&#10;&#9;c-0.998-0.846-1.977-1.715-2.942-2.6l-0.137-0.127l-0.121-0.142c-13.553-15.94-17.149-44.873-18.378-64.953&#10;&#9;c-2.23-36.457,6.443-70.649,38.754-90.344c-51.918-19.493-80.189,17.97-97.232,63.26l-0.383,1.017l-1.384,3.679l-3.284-2.39&#10;&#9;l-0.723-0.525c-0.87-0.614-1.743-1.225-2.614-1.839l-0.785-0.552l-0.319-0.904c-3.36-9.507-3.682-19.778-2.542-29.716&#10;&#9;c4.326-37.723,23.883-62.319,61.631-69.951l0.229-0.046l0.232-0.01c9.119-0.409,19.661-0.27,29.741,1.595&#10;&#9;c-6.987-6.404-14.45-12.379-22.002-18.039c-12.021-9.005-24.567-17.388-37.276-25.387l-9.59-6.036L173.098,524.565z" transform="matrix(1, 0, 0, 1, 0, 0)"/><g transform="matrix(1, 0, 0, 1, 0, 0)">
	<path fill-rule="evenodd" clip-rule="evenodd" fill="#B7B40B" d="M305.522,766.043c-2.592,35.873-4.325,69.615-5.197,101.23&#10;&#9;&#9;c16.444,6.399,34.691,6.399,51.135,0c-0.416-18.846-0.624-28.27-0.624-28.27C336.504,819.887,321.4,795.566,305.522,766.043z"/>
	<path fill-rule="evenodd" clip-rule="evenodd" fill="#B7B40B" d="M348.238,832.243c-4.162-38.28-8.527-73.721-13.096-106.32&#10;&#9;&#9;c-4.21,10.708-12.006,26.091-23.386,46.146C321.123,791.197,333.283,811.257,348.238,832.243z"/>
	<path fill-rule="evenodd" clip-rule="evenodd" fill="#B7B40B" d="M306.197,764.53c-4.608-44.795-6.912-67.192-6.912-67.192&#10;&#9;&#9;c12.167,11.61,22.872,22.696,32.115,33.259c-5.739,11.475-12.737,24.986-20.994,40.535&#10;&#9;&#9;C307.601,766.731,306.197,764.53,306.197,764.53z"/>
	<path fill-rule="evenodd" clip-rule="evenodd" fill="#B7B40B" d="M315.704,670.002C308.567,662.865,305,659.297,305,659.297&#10;&#9;&#9;c0.124,18.118,1.025,32.773,2.702,43.964c12.025,11.077,20.201,19.6,24.527,25.569C328.669,713.201,323.16,693.592,315.704,670.002&#10;&#9;&#9;z"/>
	<path fill-rule="evenodd" clip-rule="evenodd" fill="#B7B40B" d="M299.229,694.996c-2.54-19.238-6.333-36.371-11.381-51.393&#10;&#9;&#9;c10.532,9.907,15.798,14.86,15.798,14.86c-0.024,11.585,0.668,25.547,2.079,41.885&#10;&#9;&#9;C301.395,696.781,299.229,694.996,299.229,694.996z"/>
	<path fill-rule="evenodd" clip-rule="evenodd" fill="#B7B40B" d="M282.907,605.924c-4.974,1.051-9.044,3.198-12.21,6.446&#10;&#9;&#9;c10.809,18.846,16.214,28.27,16.214,28.27c12.062,11.323,19.77,18.495,23.124,21.514&#10;&#9;&#9;C298.061,632.605,289.018,613.863,282.907,605.924z"/>
	<path fill-rule="evenodd" clip-rule="evenodd" fill="#82C046" d="M410.17,669.27c4.304,12.493,8.236,26.958,11.799,43.394&#10;&#9;&#9;c-35.395-64.167-78.424-96.386-129.084-96.657c-2.738-3.432-4.106-5.146-4.106-5.146c17.125-8.74,28.28-12.967,33.466-12.68&#10;&#9;&#9;C367.841,605.604,397.15,629.301,410.17,669.27z"/>
	<path fill-rule="evenodd" clip-rule="evenodd" fill="#6EBA3E" d="M353.214,592.666c-9.977,0.317-18.776,1.912-26.399,4.784&#10;&#9;&#9;c27.851,3.687,50.508,15.811,67.973,36.377c13.185,18.135,22.885,43.91,29.1,77.324c2.628-33.239-6.172-63.449-26.399-90.631&#10;&#9;&#9;C384.999,607.197,370.24,597.913,353.214,592.666z"/>
	<path fill-rule="evenodd" clip-rule="evenodd" fill="#82C046" d="M287.424,603.682c46.768-41.646,95.27-36.796,145.507,14.551&#10;&#9;&#9;C401.244,521.187,286.359,564.999,287.424,603.682z"/>
	<path fill-rule="evenodd" clip-rule="evenodd" fill="#6EBA3E" d="M315.535,566.68c-13.275,6.474-23.65,18.079-31.126,34.819&#10;&#9;&#9;c11.877-35.968,39.248-57.1,82.108-63.399c20.005-0.982,39.364,7.229,52.564,22.291c13.2,15.063,18.798,35.332,15.199,55.035&#10;&#9;&#9;c-7.048-20.727-16.35-35.173-27.907-43.34C375.334,550.408,345.054,548.606,315.535,566.68z"/>
	<path fill-rule="evenodd" clip-rule="evenodd" fill="#82C046" d="M268.548,613.965c3.895,5.892,6.527,10.672,7.9,14.344&#10;&#9;&#9;c-44.955,13.586-62.069,64.027-51.343,151.326c-9.101-11.688-13.951-34.692-14.55-69.013&#10;&#9;&#9;C216.838,654.633,236.169,622.412,268.548,613.965z"/>
	<path fill-rule="evenodd" clip-rule="evenodd" fill="#6EBA3E" d="M235.807,614.846c8.413-1.262,15.728-1.167,21.946,0.285&#10;&#9;&#9;c-16.333,5.344-30.605,23.914-42.821,55.709c-6.169,13.659-8.385,32.747-6.649,57.268c0.172,11.226,3.091,24.963,8.759,41.211&#10;&#9;&#9;c-0.909-0.771-1.859-1.611-2.854-2.522c-9.93-11.68-15.819-32.742-17.668-63.191C193.898,660.952,206.994,631.365,235.807,614.846z&#10;&#9;&#9;"/>
	<path fill-rule="evenodd" clip-rule="evenodd" fill="#82C046" d="M130.673,664.316c0.054,3.703,0.572,7.479,1.558,11.329&#10;&#9;&#9;c22.799-60.585,56.82-82.133,102.063-64.646c8.639-0.453,18.443,0.377,29.415,2.493c-15.923-18.526-37.577-26.737-64.959-24.631&#10;&#9;&#9;C158.77,593.673,136.079,618.825,130.673,664.316z"/>
	<path fill-rule="evenodd" clip-rule="evenodd" fill="#6EBA3E" d="M170.577,595.277c23.521-11.688,47.912-11.644,73.173,0.132&#10;&#9;&#9;c-10.017-12.591-29.522-18.238-58.514-16.941c-35.244,7.125-54.99,29.574-59.242,67.349c-1.307,10.707-0.511,20.165,2.39,28.372&#10;&#9;&#9;c1.748,1.229,2.623,1.845,2.623,1.845c-2.728-8.959-1.594-21.119,3.403-36.48C141.567,617.635,153.622,602.876,170.577,595.277z"/>
	<path fill-rule="evenodd" clip-rule="evenodd" fill="#6EBA3E" d="M172.86,527.561c44.813,21.918,78.68,48.734,101.597,80.449&#10;&#9;&#9;c4.358-1.946,7.823-3.297,10.394-4.054C256.188,556.68,218.858,531.214,172.86,527.561z"/>
	<path fill-rule="evenodd" clip-rule="evenodd" fill="#82C046" d="M273.517,608.524c-48.588-50.357-87.373-76.169-116.353-77.431&#10;&#9;&#9;c28.42,17.89,49.969,34.033,64.647,48.433c22.798,9.668,37.868,20.685,45.209,33.051&#10;&#9;&#9;C271.352,609.875,273.517,608.524,273.517,608.524z"/>
</g><path fill-rule="evenodd" clip-rule="evenodd" fill="#B93535" d="M284.619,684.179c0.217-0.441,0.471-0.896,0.769-1.316&#10;&#9;c-0.708-0.612-1.255-1.415-1.56-2.347l-0.023-0.08c-0.07-0.251-0.136-0.505-0.199-0.758c-0.315,0.272-0.663,0.507-1.035,0.698&#10;&#9;C283.562,681.404,284.195,682.979,284.619,684.179z" transform="matrix(1, 0, 0, 1, 0, 0)"/><path fill-rule="evenodd" clip-rule="evenodd" fill="#B93535" d="M276.438,682.835l0.096-0.207c0.348-0.74,0.798-1.551,1.39-2.184&#10;&#9;c-1.003-0.476-1.842-1.266-2.377-2.264c-0.243,0.338-0.524,0.645-0.837,0.914c0.773,1.039,1.288,2.386,1.646,3.41l0.041,0.117&#10;&#9;l0.024,0.121C276.426,682.772,276.433,682.804,276.438,682.835z" transform="matrix(1, 0, 0, 1, 0, 0)"/><path fill-rule="evenodd" clip-rule="evenodd" fill="#B93535" d="M256.539,677.809c-0.367,0.157-0.753,0.272-1.154,0.344&#10;&#9;c0.086,0.25,0.158,0.507,0.217,0.766C255.88,678.565,256.194,678.182,256.539,677.809z" transform="matrix(1, 0, 0, 1, 0, 0)"/><path fill-rule="evenodd" clip-rule="evenodd" fill="#B93535" d="M263.568,679.486c0.12-0.134,0.244-0.267,0.372-0.398&#10;&#9;c-0.141,0.036-0.284,0.065-0.429,0.09C263.532,679.281,263.551,679.384,263.568,679.486z" transform="matrix(1, 0, 0, 1, 0, 0)"/><g transform="matrix(1, 0, 0, 1, 0, 0)">
	<path fill-rule="evenodd" clip-rule="evenodd" fill="#4B9437" d="M261.456,709.429l4.241-14.392l1.966,0.353&#10;&#9;&#9;c1.767,0.314,3.534,0.633,5.3,0.948l2.541,0.451l-5.005,15.002l-2.41-1.542c-1.044-0.67-2.281-1.004-3.52-0.952L261.456,709.429&#10;&#9;&#9;L261.456,709.429z M278.424,655.438c-2.703-0.229-5.601-0.432-8.275-0.879l-1.825-0.305l-0.036-1.85&#10;&#9;&#9;c-0.168-8.603,0.354-17.214,1.483-25.741l0.188-1.415l1.362-0.422c3.793-1.176,7.917-1.038,11.788-0.351l3.492,0.618l-2.071,2.878&#10;&#9;&#9;c-4.499,6.249-4.271,17.784-3.695,25.069l0.207,2.617L278.424,655.438z"/>
	<g>
		<path fill-rule="evenodd" clip-rule="evenodd" fill="#92C41E" d="M264.475,707.07l2.796-9.487&#10;&#9;&#9;&#9;c3.535,0.632,5.303,0.948,5.303,0.948l-3.283,9.84C267.859,707.454,266.176,706.997,264.475,707.07z"/>
		<path fill-rule="evenodd" clip-rule="evenodd" fill="#92C41E" d="M278.611,653.217c-4.008-0.338-6.707-0.623-8.096-0.855&#10;&#9;&#9;&#9;c-0.162-8.341,0.326-16.81,1.464-25.405c2.996-0.929,6.575-1.023,10.739-0.286C278.991,631.849,277.622,640.698,278.611,653.217z"/>
	</g>
	<path fill-rule="evenodd" clip-rule="evenodd" fill="#F2BC00" d="M260.333,701.429c-0.804,0.609-1.799,0.968-2.859,0.981&#10;&#9;&#9;c-1.601,0.021-3.072-0.749-3.977-1.996c-0.878,1.226-2.303,2.002-3.872,2.021c-2.115,0.027-4.003-1.325-4.659-3.336l-0.023-0.079&#10;&#9;&#9;c-1.818-6.582-0.92-13.696,2.477-19.621l0.062-0.106l0.075-0.098c0.711-0.921,1.709-2.132,2.869-2.864&#10;&#9;&#9;c-0.413-0.501-0.738-1.08-0.947-1.722l-0.024-0.08c-2.049-7.423-1.038-15.448,2.794-22.129l0.062-0.107l0.076-0.098&#10;&#9;&#9;c1.341-1.737,3.716-4.574,6.241-3.755c1.677,0.546,2.314,2.321,2.593,3.946c1.388-1.669,3.432-3.629,5.584-2.93&#10;&#9;&#9;c1.873,0.609,2.449,2.753,2.677,4.509c1.378-1.738,3.601-4.152,5.956-3.388c1.813,0.59,2.411,2.616,2.654,4.338l0.001-0.002&#10;&#9;&#9;c1.342-1.737,3.717-4.575,6.242-3.753c1.953,0.635,2.496,2.939,2.704,4.73l0.036,0.312l-0.07,0.306&#10;&#9;&#9;c-0.137,0.591-0.271,1.187-0.399,1.789l0.057-0.099l0.075-0.098c1.342-1.737,3.717-4.574,6.242-3.754&#10;&#9;&#9;c1.952,0.635,2.496,2.938,2.704,4.73l0.036,0.312l-0.071,0.306c-1.466,6.313-2.541,13.474-1.73,19.951l0.047,0.377l-0.108,0.364&#10;&#9;&#9;c-0.392,1.312-1.264,2.382-2.392,3.038c0.521,0.895,0.896,1.891,1.175,2.692l0.042,0.117l0.024,0.121&#10;&#9;&#9;c1.341,6.675-0.067,13.745-3.865,19.396l-0.048,0.068c-1.253,1.691-3.486,2.38-5.475,1.688c-1.408-0.49-2.479-1.592-2.962-2.939&#10;&#9;&#9;c-1.294,1.29-3.246,1.758-5.005,1.146c-1.511-0.526-2.633-1.754-3.059-3.235c-1.283,1.491-3.378,2.069-5.257,1.416&#10;&#9;&#9;c-0.234-0.083-0.459-0.18-0.672-0.294c-0.538,0.213-1.12,0.333-1.723,0.341C262.825,703.966,261.18,702.977,260.333,701.429z"/>
	<g>
		<path fill-rule="evenodd" clip-rule="evenodd" fill="#E3E400" d="M253.816,653.3c3.31-4.287,5.216-4.26,5.72,0.081&#10;&#9;&#9;&#9;c-1.88,8.092-2.468,14.953-1.763,20.584c-0.43,1.443-1.75,2.44-3.257,2.46c-1.507,0.02-2.852-0.943-3.319-2.376&#10;&#9;&#9;&#9;C249.267,667.06,250.208,659.589,253.816,653.3z"/>
		<path fill-rule="evenodd" clip-rule="evenodd" fill="#E3E400" d="M261.992,654.314c3.311-4.285,5.217-4.258,5.72,0.081&#10;&#9;&#9;&#9;c-1.88,8.094-2.467,14.955-1.764,20.586c-0.43,1.443-1.75,2.44-3.257,2.46c-1.507,0.02-2.852-0.943-3.318-2.376&#10;&#9;&#9;&#9;C257.443,668.076,258.386,660.605,261.992,654.314z"/>
		<path fill-rule="evenodd" clip-rule="evenodd" fill="#E3E400" d="M270.625,655.436c3.311-4.286,5.216-4.259,5.721,0.081&#10;&#9;&#9;&#9;c-1.881,8.094-2.469,14.955-1.764,20.585c-0.431,1.443-1.75,2.44-3.258,2.46c-1.507,0.02-2.851-0.943-3.318-2.377&#10;&#9;&#9;&#9;C266.075,669.196,267.018,661.727,270.625,655.436z"/>
		<path fill-rule="evenodd" clip-rule="evenodd" fill="#E3E400" d="M279.521,656.019c3.311-4.286,5.217-4.259,5.72,0.081&#10;&#9;&#9;&#9;c-1.88,8.094-2.468,14.955-1.763,20.585c-0.43,1.443-1.75,2.44-3.257,2.46c-1.507,0.02-2.851-0.943-3.319-2.377&#10;&#9;&#9;&#9;C274.972,669.779,275.915,662.31,279.521,656.019z"/>
		<path fill-rule="evenodd" clip-rule="evenodd" fill="#E3E400" d="M288.166,659.206c3.31-4.287,5.216-4.26,5.72,0.081&#10;&#9;&#9;&#9;c-1.88,8.093-2.468,14.953-1.763,20.584c-0.43,1.443-1.75,2.44-3.258,2.46c-1.507,0.02-2.851-0.943-3.318-2.376&#10;&#9;&#9;&#9;C283.616,672.966,284.558,665.496,288.166,659.206z"/>
		<path fill-rule="evenodd" clip-rule="evenodd" fill="#E3E400" d="M248.988,680.3c2.909-3.768,4.585-3.743,5.028,0.071&#10;&#9;&#9;&#9;c-1.652,7.114-2.169,13.146-1.55,18.096c-0.378,1.269-1.538,2.146-2.863,2.163c-1.325,0.017-2.506-0.83-2.917-2.09&#10;&#9;&#9;&#9;C244.988,692.396,245.817,685.829,248.988,680.3z"/>
		<path fill-rule="evenodd" clip-rule="evenodd" fill="#E3E400" d="M290.931,686.714c-1.567-4.496-3.164-5.005-4.792-1.524&#10;&#9;&#9;&#9;c-0.686,7.271-2.107,13.155-4.261,17.654c-0.043,1.323,0.78,2.521,2.031,2.958c1.251,0.436,2.641,0.007,3.429-1.059&#10;&#9;&#9;&#9;C290.893,699.454,292.188,692.962,290.931,686.714z"/>
		<path fill-rule="evenodd" clip-rule="evenodd" fill="#E3E400" d="M282.963,684.92c-1.566-4.495-3.164-5.004-4.792-1.525&#10;&#9;&#9;&#9;c-0.686,7.271-2.106,13.156-4.261,17.654c-0.043,1.323,0.779,2.523,2.031,2.959c1.251,0.435,2.641,0.006,3.429-1.058&#10;&#9;&#9;&#9;C282.925,697.659,284.22,691.169,282.963,684.92z"/>
		<path fill-rule="evenodd" clip-rule="evenodd" fill="#E3E400" d="M274.648,683.1c-1.567-4.495-3.164-5.004-4.792-1.523&#10;&#9;&#9;&#9;c-0.686,7.271-2.106,13.155-4.261,17.653c-0.043,1.324,0.779,2.522,2.031,2.958c1.251,0.437,2.641,0.008,3.429-1.058&#10;&#9;&#9;&#9;C274.611,695.841,275.904,689.349,274.648,683.1z"/>
		<path fill-rule="evenodd" clip-rule="evenodd" fill="#E3E400" d="M256.836,680.273c2.909-3.768,4.585-3.743,5.028,0.071&#10;&#9;&#9;&#9;c-1.652,7.115-2.169,13.146-1.55,18.096c-0.378,1.269-1.538,2.146-2.864,2.163c-1.324,0.017-2.506-0.829-2.917-2.09&#10;&#9;&#9;&#9;C252.836,692.37,253.666,685.803,256.836,680.273z"/>
		<path fill-rule="evenodd" clip-rule="evenodd" fill="#E3E400" d="M263.998,681.807c2.91-3.77,4.586-3.745,5.029,0.069&#10;&#9;&#9;&#9;c-1.653,7.115-2.17,13.148-1.55,18.096c-0.378,1.271-1.539,2.147-2.864,2.163c-1.324,0.019-2.507-0.829-2.917-2.088&#10;&#9;&#9;&#9;C259.999,693.901,260.828,687.335,263.998,681.807z"/>
	</g>
	<path fill-rule="evenodd" clip-rule="evenodd" fill="#7D181D" d="M258.271,707.769c2.614-1.566,5.808-1.955,8.721-1.057&#10;&#9;&#9;c2.925,0.902,5.328,3.006,6.611,5.784l0.184,0.401l-0.02,0.438c-0.364,8.295-5.768,15.523-13.62,18.221l-1.265,0.434l-0.79-1.079&#10;&#9;&#9;c-4.895-6.693-5.05-15.748-0.389-22.606l0.224-0.331L258.271,707.769z"/>
	<path fill-rule="evenodd" clip-rule="evenodd" fill="#941F24" d="M259.558,729.84c7.147-2.455,12.065-9.034,12.398-16.584&#10;&#9;&#9;c-1.067-2.311-3.066-4.06-5.498-4.81c-2.433-0.751-5.07-0.431-7.252,0.878C254.973,715.551,255.114,723.765,259.558,729.84z"/>
</g><path fill-rule="evenodd" clip-rule="evenodd" fill="#B69E16" d="M317.08,786.852c-3.806-6.622-7.659-13.558-11.558-20.809&#10;&#9;c-2.592,35.873-4.325,69.615-5.197,101.23c16.444,6.399,34.691,6.399,51.135,0l-0.06-2.707&#10;&#9;C322.069,861.456,310.629,835.551,317.08,786.852z" transform="matrix(1, 0, 0, 1, 0, 0)"/><path fill-rule="evenodd" clip-rule="evenodd" fill="#B69E16" d="M317.563,783.382c8.415,15.686,18.64,31.974,30.675,48.861&#10;&#9;c-0.835-7.674-1.677-15.232-2.528-22.679c-6.916-16.644-16.772-31.747-29.571-45.307c-1.396,2.521-2.857,5.124-4.382,7.812&#10;&#9;C313.586,775.804,315.521,779.575,317.563,783.382z" transform="matrix(1, 0, 0, 1, 0, 0)"/><path fill-rule="evenodd" clip-rule="evenodd" fill="#B69E16" d="M314.79,762.845c1.907-3.619,3.738-7.119,5.496-10.497&#10;&#9;c-3.427-11.607-7.262-26.861-11.507-45.761c-3.059-3.045-6.222-6.128-9.493-9.249l6.912,67.192l4.209,6.602&#10;&#9;C311.91,768.302,313.37,765.541,314.79,762.845z" transform="matrix(1, 0, 0, 1, 0, 0)"/><path fill-rule="evenodd" clip-rule="evenodd" fill="#B69E16" d="M308.122,703.647c11.796,10.889,19.832,19.282,24.107,25.183&#10;&#9;c-1.177-5.168-2.566-10.769-4.169-16.805c-5.49-6.47-12.131-12.637-19.923-18.499c-0.572-0.43-1.151-0.86-1.736-1.287&#10;&#9;c0.225,2.463,0.477,4.809,0.755,7.033C307.479,700.75,307.802,702.21,308.122,703.647z" transform="matrix(1, 0, 0, 1, 0, 0)"/><path fill-rule="evenodd" clip-rule="evenodd" fill="#B69E16" d="M304.993,691.223c-0.247-3.354-0.459-6.596-0.638-9.727&#10;&#9;c-2.518-9.057-4.326-18.212-5.423-27.467l-11.083-10.426c1.165,3.465,2.262,7.044,3.293,10.734c0.594-0.173,1.21-0.193,1.835,0.01&#10;&#9;c1.952,0.635,2.496,2.938,2.704,4.73l0.036,0.312l-0.071,0.306c-0.531,2.286-1.011,4.685-1.368,7.12&#10;&#9;c1.411,6.273,2.653,12.831,3.726,19.673C300.421,688.044,302.751,689.621,304.993,691.223z" transform="matrix(1, 0, 0, 1, 0, 0)"/><path fill-rule="evenodd" clip-rule="evenodd" fill="#B69E16" d="M304.993,691.223c-2.242-1.602-4.572-3.179-6.99-4.734&#10;&#9;c0.437,2.79,0.845,5.626,1.226,8.508l6.496,5.353C305.455,697.22,305.211,694.178,304.993,691.223z" transform="matrix(1, 0, 0, 1, 0, 0)"/><path fill-rule="evenodd" clip-rule="evenodd" fill="#B69E16" d="M286.911,640.64c4.533,4.255,8.451,7.925,11.754,11.007&#10;&#9;c-0.063-0.601-0.124-1.201-0.181-1.803c-1.207-12.041-9.815-25.126-25.828-39.252c-0.687,0.55-1.34,1.143-1.958,1.778l6.643,11.582&#10;&#9;l1.292,2.252l2.206,3.846l1.432,2.497L286.911,640.64z" transform="matrix(1, 0, 0, 1, 0, 0)"/><g transform="matrix(1, 0, 0, 1, 0, 0)">
	<path fill-rule="evenodd" clip-rule="evenodd" fill="#573017" d="M391.064,868.912c-7.945,9.97-61.077,11.384-159.392,4.24&#10;&#9;&#9;c-1.292-7.468,1.127-15.097,6.485-20.454c5.359-5.359,12.988-7.777,20.455-6.486c0.382-5.449,3.842-10.203,8.91-12.241&#10;&#9;&#9;c5.068-2.039,10.856-1.005,14.906,2.662s5.65,9.323,4.122,14.568c25.326-17.164,58.654-16.766,83.563,0.997&#10;&#9;&#9;c3.028-2.639,7.216-3.505,11.042-2.28s6.734,4.36,7.667,8.268c2.307-2.251,5.915-2.468,8.477-0.513&#10;&#9;&#9;c2.561,1.955,3.301,5.492,1.739,8.311C397.472,868.802,394.08,870.049,391.064,868.912z"/>
	<path fill-rule="evenodd" clip-rule="evenodd" fill="#72401F" d="M254.084,874.399c7.946,9.971,61.077,11.384,159.393,4.24&#10;&#9;&#9;c1.291-7.467-1.127-15.095-6.485-20.454c-5.359-5.358-12.987-7.777-20.454-6.486c-0.382-5.448-3.842-10.203-8.91-12.241&#10;&#9;&#9;s-10.856-1.005-14.905,2.662s-5.65,9.324-4.122,14.57c-25.326-17.164-58.654-16.766-83.563,0.997&#10;&#9;&#9;c-3.028-2.641-7.216-3.507-11.042-2.282s-6.734,4.36-7.667,8.268c-2.307-2.249-5.915-2.469-8.477-0.513&#10;&#9;&#9;c-2.561,1.955-3.301,5.492-1.739,8.312C247.677,874.29,251.069,875.536,254.084,874.399z"/>
</g></g></svg>