<?xml version="1.0" encoding="utf-8"?>
<!-- Generator: Adobe Illustrator 27.5.0, SVG Export Plug-In . SVG Version: 6.00 Build 0)  -->
<svg version="1.1" xmlns="http://www.w3.org/2000/svg" xmlns:xlink="http://www.w3.org/1999/xlink" x="0px" y="0px"
	 viewBox="0 0 500 500" style="enable-background:new 0 0 500 500;" xml:space="preserve">
<g id="Background_complete">
	<g>
		<g>
			<g>
				<path style="fill:#E0E0E0;" d="M310.359,293.737c0.093-0.192,0.183-0.382,0.267-0.57c0.17-0.375,0.323-0.74,0.461-1.09
					c0.069-0.175,0.134-0.347,0.195-0.516c0.799-2.185,0.987-3.721,0.987-3.721l0.756-1.374l0,0l0,0l-1.234-1.798h0l0,0
					l-0.268,0.281l-0.793,0.831l-0.379,0.137l-0.08,0.029c-0.002,0.003-0.005,0.005-0.007,0.008
					c-0.028,0.031-0.499,0.54-1.271,1.376c-0.179,0.194-0.375,0.406-0.585,0.633c-0.056,0.061-0.116,0.126-0.174,0.189
					c-0.864,0.934-1.944,2.101-3.134,3.385c-0.03,0.032-0.059,0.063-0.089,0.095c0.129-0.375,0.246-0.744,0.355-1.109
					c0.011-0.038,0.023-0.077,0.034-0.115c0.216-0.737,0.391-1.453,0.531-2.141c0.006-0.029,0.012-0.059,0.018-0.088
					c0.139-0.691,0.244-1.352,0.322-1.978c0.003-0.023,0.006-0.047,0.009-0.07c0.076-0.627,0.126-1.217,0.156-1.765
					c0.001-0.018,0.002-0.037,0.003-0.055c0.021-0.407,0.032-0.79,0.034-1.146c3.179-4.271,3.724-8.468,3.724-8.468l0.756-1.296
					l-1.234-1.696l-1.061,1.049l-0.459,0.157c-0.003,0.003-0.006,0.006-0.008,0.009c-0.071,0.072-2.311,2.361-5.162,5.263
					c-1.531,1.549-3.027,3.035-4.495,4.452c-0.036-0.212-0.073-0.421-0.113-0.624c4.048-9.054,1.125-16.661,1.125-16.661
					l0.024-1.568l-0.654-0.257c0.385-1.178,0.804-2.376,1.271-3.598c2.512-6.575,6.147-9.724,9.296-13.334l-4.117-1.406
					c-7.406,6.048-11.109,19.207-12.904,30.7c0.075-1.314,0.158-2.648,0.249-4.007c0.085-1.226,0.166-2.379,0.238-3.411
					c0-0.004,0-0.008,0.001-0.012c0-0.001,0-0.003,0-0.004c0.183-2.604,0.312-4.423,0.327-4.629c0-0.007,0.001-0.014,0.001-0.021
					l-0.162-0.522l0.094-1.638l-1.884-0.071l-0.443,1.513c0,0-4.735,5.839-3.964,15.824c-0.179,0.579-0.362,1.257-0.527,2.027
					c-1.072-2.25-2.149-4.608-3.243-7.064c-0.481-1.087-0.932-2.108-1.336-3.023c-0.003-0.006-0.005-0.012-0.008-0.018
					c-0.001-0.002-0.002-0.004-0.003-0.006c-1.054-2.386-1.775-4.023-1.815-4.115c-0.002-0.005-0.004-0.01-0.007-0.015l-0.378-0.349
					l-0.661-1.444l-1.672,1.03l0.301,1.539c0,0-0.895,4.689,1.185,10.563l-0.093,0.061c-2.809-2.86-5.004-5.102-5.074-5.174
					c-0.003-0.003-0.006-0.006-0.008-0.009l-0.459-0.157l-1.061-1.049l-1.234,1.696l0.756,1.296c0,0,0.86,6.622,6.721,11.695
					c0.075,0.57,0.174,1.168,0.299,1.789c0.006,0.028,0.012,0.057,0.017,0.085c0.042,0.205,0.087,0.412,0.135,0.622l-0.931,0.569
					l0.081,0.411c-0.111-0.119-0.218-0.235-0.325-0.351c-1.911-2.065-3.244-3.509-3.292-3.562c-0.003-0.003-0.005-0.005-0.007-0.008
					l-0.122-0.044l-0.337-0.122l-1.061-1.112l0,0l0,0l-0.732,1.066l-0.502,0.732l0,0l0,0l0.756,1.374c0,0,0.111,0.909,0.526,2.323
					c0.042,0.141,0.086,0.288,0.134,0.439c0.096,0.302,0.204,0.623,0.327,0.959c0.061,0.168,0.126,0.34,0.195,0.516
					c0.138,0.351,0.291,0.715,0.461,1.09c0.34,0.75,0.747,1.542,1.233,2.351c0.243,0.404,0.506,0.813,0.791,1.222
					c0.284,0.409,0.59,0.819,0.919,1.227c0.453,0.562,0.953,1.118,1.497,1.661l-0.54,0.33l0.039,0.197
					c-2.133-2.157-3.664-3.709-3.72-3.765c-0.003-0.003-0.005-0.005-0.008-0.008l-0.459-0.156l-1.061-1.041l-1.234,1.683
					l0.756,1.286c0,0,0.834,6.36,6.442,11.359c0.061,0.257,0.13,0.517,0.202,0.781l-0.846,0.436
					c-0.369-0.373-0.722-0.73-1.051-1.063c-1.61-1.629-2.694-2.728-2.741-2.775c-0.003-0.003-0.005-0.005-0.008-0.008l-0.459-0.155
					l-1.061-1.041l-1.234,1.683l0.756,1.286c0,0,0.794,6.058,6.045,10.996c0.18,0.564,0.398,1.148,0.66,1.746
					c-0.031-0.026-0.061-0.051-0.092-0.077c-2.852-2.429-5.092-4.344-5.16-4.402c-0.003-0.002-0.005-0.004-0.008-0.007l-0.459-0.131
					l-1.061-0.877l-1.234,1.419l0.756,1.084c0,0,1.136,7.343,9.734,11.596c0,0,3.236,1.397,7.074,1.423
					c-0.823,1.174-1.102,2.57-1.063,3.929c0,0,0,0,0,0c0,0.003,0,0.007,0,0.01c0.039,1.366,0.382,2.712,0.722,4.048
					c0.214-0.179,0.42-0.365,0.621-0.554l-0.375,0.618c-0.411,3.459,0.463,7.017,2.471,10.064c0.071,0.108,0.174,0.231,0.323,0.225
					c0.127-0.005,0.215-0.103,0.283-0.192c2.01-2.619,3.576-6.16,3.514-9.268l-0.547-1.979c0-0.006,0.001-0.011,0.001-0.017
					c0.707,0.809,1.522,1.517,2.405,2.045c0.346-1.18,0.569-2.507,0.547-3.838c-0.027-1.816-0.516-3.638-1.762-5.115
					c3.493-0.184,6.311-1.4,6.311-1.4c8.598-4.254,9.734-11.596,9.734-11.596l0.756-1.084l-1.234-1.419l-1.061,0.877l-0.459,0.131
					c-0.003,0.002-0.005,0.005-0.008,0.007c-0.068,0.058-2.308,1.973-5.16,4.402c-0.031,0.026-0.061,0.051-0.092,0.077
					c0.057-0.129,0.11-0.258,0.163-0.386c4.407-3.355,6.328-7.64,7.125-10.182c0.042-0.132,0.08-0.26,0.116-0.382
					c0.142-0.49,0.239-0.898,0.303-1.201c0.08-0.378,0.107-0.591,0.107-0.591l0.756-1.286l-1.234-1.683l-1.061,1.041l-0.229,0.078
					l-0.23,0.078c-0.003,0.003-0.005,0.005-0.008,0.008c-0.04,0.04-0.832,0.844-2.06,2.086c-0.635,0.642-1.384,1.4-2.208,2.233
					l0.032-0.138l-0.544-0.281c0.13-0.435,0.244-0.862,0.344-1.279c5.608-4.999,6.442-11.359,6.442-11.359l0.756-1.286l-1.234-1.683
					l-1.061,1.041l-0.459,0.156c-0.003,0.003-0.005,0.005-0.008,0.008c-0.056,0.057-1.587,1.608-3.72,3.765l0.039-0.197
					l-0.359-0.219C308.065,297.782,309.43,295.65,310.359,293.737z"/>
			</g>
		</g>
		<g>
			<g>
				<path style="fill:#E0E0E0;" d="M369.161,294.275l-0.406,0.248l0.044,0.223c-2.415-2.442-4.148-4.199-4.212-4.263
					c-0.003-0.003-0.006-0.006-0.009-0.009l-0.52-0.176l-1.202-1.178l-1.397,1.905l0.856,1.456c0,0,0.945,7.201,7.294,12.861
					c0.113,0.472,0.242,0.955,0.389,1.448l-0.616,0.318l0.036,0.156c-0.933-0.943-1.781-1.801-2.5-2.528
					c-1.389-1.406-2.287-2.316-2.332-2.362c-0.003-0.003-0.006-0.006-0.009-0.009l-0.26-0.088l-0.26-0.088l-1.202-1.178
					l-1.397,1.905l0.856,1.456c0,0,0.031,0.241,0.122,0.669c0.072,0.342,0.182,0.805,0.343,1.359
					c0.04,0.139,0.084,0.283,0.131,0.433c0.902,2.878,3.078,7.729,8.067,11.528c0.06,0.145,0.12,0.29,0.184,0.437
					c-0.035-0.029-0.069-0.058-0.104-0.087c-3.229-2.75-5.766-4.918-5.843-4.984c-0.003-0.003-0.006-0.005-0.009-0.008l-0.52-0.148
					l-1.202-0.993l-1.397,1.606l0.856,1.228c0,0,1.286,8.314,11.021,13.13c0,0,3.19,1.376,7.145,1.585
					c-1.41,1.672-1.964,3.735-1.995,5.791c-0.024,1.507,0.228,3.009,0.62,4.345c1-0.598,1.922-1.399,2.722-2.316
					c0,0.007,0.001,0.013,0.001,0.02l-0.619,2.241c-0.07,3.518,1.703,7.527,3.978,10.493c0.077,0.101,0.177,0.211,0.32,0.217
					c0.168,0.007,0.284-0.132,0.365-0.255c2.274-3.451,3.263-7.478,2.798-11.395l-0.425-0.699c0.228,0.214,0.461,0.424,0.703,0.627
					c0.386-1.513,0.773-3.037,0.818-4.584c0-0.004,0-0.007,0-0.011c0,0,0,0,0,0c0.044-1.539-0.272-3.119-1.204-4.448
					c4.345-0.029,8.009-1.611,8.009-1.611c9.735-4.816,11.021-13.13,11.021-13.13l0.856-1.228l-1.397-1.606l-1.202,0.993
					l-0.52,0.148c-0.003,0.003-0.006,0.005-0.009,0.008c-0.077,0.066-2.613,2.234-5.843,4.984c-0.035,0.03-0.069,0.058-0.104,0.088
					c0.296-0.676,0.544-1.337,0.747-1.976c5.945-5.591,6.844-12.45,6.844-12.45l0.855-1.456l-1.397-1.905l-1.202,1.178l-0.52,0.176
					c-0.003,0.003-0.006,0.006-0.009,0.009c-0.053,0.054-1.28,1.298-3.103,3.142c-0.373,0.377-0.772,0.781-1.19,1.203l-0.958-0.494
					c0.082-0.299,0.159-0.594,0.229-0.884c6.35-5.66,7.294-12.861,7.294-12.861l0.855-1.456l-1.397-1.905l-1.202,1.178l-0.52,0.176
					c-0.003,0.003-0.006,0.006-0.009,0.009c-0.063,0.064-1.796,1.821-4.212,4.263l0.044-0.223l-0.612-0.374
					c0.616-0.616,1.182-1.245,1.695-1.881c0.372-0.461,0.719-0.926,1.041-1.389c0.322-0.463,0.62-0.926,0.895-1.383
					c0.551-0.915,1.011-1.812,1.396-2.662c0.192-0.425,0.366-0.837,0.522-1.234c0.078-0.199,0.152-0.393,0.221-0.584
					c0.139-0.381,0.262-0.744,0.37-1.086c0.054-0.171,0.105-0.337,0.152-0.497c0.47-1.601,0.595-2.63,0.595-2.63l0.856-1.556l0,0
					l0,0l-0.569-0.829l-0.829-1.207h0l0,0l-1.202,1.259l-0.382,0.138l-0.138,0.05c-0.003,0.003-0.006,0.006-0.008,0.009
					c-0.054,0.059-1.564,1.694-3.728,4.033c-0.121,0.131-0.243,0.262-0.368,0.397l0.092-0.465l-1.053-0.644
					c0.055-0.238,0.105-0.472,0.153-0.704c0.007-0.032,0.013-0.064,0.02-0.096c0.142-0.703,0.253-1.38,0.338-2.026
					c6.636-5.743,7.61-13.241,7.61-13.241l0.856-1.468l-1.397-1.92l-1.202,1.187l-0.52,0.177c-0.003,0.003-0.006,0.006-0.009,0.01
					c-0.079,0.081-2.564,2.62-5.745,5.858l-0.105-0.069c2.356-6.65,1.342-11.959,1.342-11.959l0.341-1.742l-1.893-1.166
					l-0.749,1.635l-0.428,0.395c-0.002,0.006-0.005,0.011-0.007,0.017c-0.046,0.104-0.862,1.957-2.055,4.659
					c-0.001,0.002-0.002,0.005-0.003,0.007c-0.003,0.007-0.006,0.013-0.009,0.02c-0.458,1.036-0.969,2.193-1.513,3.423
					c-1.238,2.78-2.458,5.45-3.672,7.997c-0.188-0.872-0.395-1.639-0.597-2.295c0.874-11.306-4.488-17.916-4.488-17.916
					l-0.501-1.712l-2.133,0.08l0.106,1.855l-0.184,0.591c0.001,0.008,0.001,0.016,0.002,0.024c0.017,0.233,0.163,2.292,0.37,5.24
					c0,0.002,0,0.003,0,0.005c0,0.005,0.001,0.009,0.001,0.014c0.082,1.168,0.173,2.474,0.27,3.862
					c0.103,1.539,0.197,3.05,0.282,4.537c-2.032-13.012-6.226-27.911-14.61-34.758l-4.661,1.592
					c3.565,4.088,7.68,7.653,10.524,15.097c0.529,1.384,1.003,2.74,1.439,4.074l-0.741,0.291l0.027,1.775
					c0,0-3.309,8.613,1.274,18.864c-0.045,0.23-0.087,0.467-0.128,0.707c-1.662-1.603-3.356-3.286-5.089-5.04
					c-3.228-3.287-5.764-5.878-5.844-5.959c-0.003-0.003-0.006-0.006-0.009-0.01l-0.52-0.177l-1.202-1.187l-1.397,1.92l0.855,1.468
					c0,0,0.617,4.752,4.216,9.588c0.003,0.403,0.015,0.837,0.039,1.297c0.001,0.021,0.002,0.041,0.003,0.062
					c0.033,0.62,0.09,1.288,0.176,1.998c0.003,0.026,0.007,0.053,0.01,0.079c0.088,0.71,0.207,1.458,0.365,2.24
					c0.007,0.033,0.014,0.066,0.021,0.1c0.159,0.779,0.358,1.589,0.602,2.424c0.013,0.043,0.026,0.087,0.039,0.13
					c0.123,0.414,0.255,0.832,0.401,1.256c-0.034-0.036-0.067-0.071-0.1-0.107c-1.347-1.454-2.57-2.776-3.548-3.833
					c-0.066-0.071-0.134-0.145-0.197-0.213c-0.238-0.257-0.46-0.497-0.663-0.717c-0.874-0.946-1.407-1.523-1.439-1.558
					c-0.003-0.003-0.006-0.006-0.008-0.009l-0.09-0.033l-0.429-0.155l-0.898-0.941l-0.304-0.318l0,0h0l-1.397,2.036l0,0l0,0
					l0.856,1.556c0,0,0.212,1.739,1.117,4.213c0.07,0.19,0.143,0.385,0.221,0.584c0.156,0.397,0.329,0.81,0.522,1.234
					c0.096,0.212,0.197,0.428,0.303,0.645C365.366,289.645,366.911,292.06,369.161,294.275z"/>
			</g>
		</g>
		<g>
			<path style="fill:#E0E0E0;" d="M184.625,216.231c2.139,1.751,4.946,2.452,7.656,1.908c8.699-1.746,27.864-5.581,31.646-5.613
				c0,0,13.522-1.544,18.854-7.533c0.632-0.709-3.101,6.772,0.048,6.949c11.423,0.641,33.45,1.766,37.904,2.062
				c5.681,0.378,7.201-2.863,7.201-2.863l-0.798,5.078c0,0,15.95,7.286,20.337,7.555c3.676,0.226,7.312-2.954,8.399-3.995
				c3.65,5.689,7.801,13.302,10.93,20.115c-2.216-2.082-4.502-3.695-6.879-4.686c-3.411-3.041-6.576-5.652-8.572-6.857
				c-5.382-3.248-11.291-5.555-17.315-3.76c-1.171,0.349-2.296,0.783-3.385,1.282c-13.464,2.067-24.157,13.04-24.157,13.04
				s-7.182,4.784-17.48,26.039c-10.966,22.635-9.672,43.137-6.57,54.08c0.693,2.447,1.87,3.735,3.352,4.171l0,0
				c0.003,0.001,0.005,0.001,0.008,0.002c0.279,0.081,0.57,0.127,0.869,0.15c0.057,0.004,0.114,0.011,0.172,0.013
				c0.131,0.005,0.265,0.003,0.399-0.002c0.065-0.003,0.131-0.007,0.197-0.011c0.138-0.01,0.277-0.023,0.419-0.043
				c0.048-0.007,0.098-0.018,0.146-0.026c0.324-0.054,0.656-0.131,0.995-0.235c0.013-0.004,0.026-0.007,0.039-0.011
				c0.155-0.048,0.313-0.105,0.471-0.162c0.067-0.025,0.134-0.049,0.201-0.075c0.154-0.06,0.309-0.123,0.466-0.192
				c0.066-0.029,0.133-0.06,0.199-0.09c0.524-0.24,1.06-0.525,1.604-0.85c0.067-0.04,0.133-0.078,0.199-0.119
				c0.16-0.098,0.321-0.201,0.483-0.306c0.082-0.053,0.164-0.108,0.246-0.163c0.16-0.107,0.32-0.214,0.48-0.327
				c0.07-0.049,0.14-0.101,0.21-0.151c0.318-0.227,0.638-0.465,0.958-0.713c0.069-0.053,0.138-0.105,0.207-0.159
				c0.154-0.121,0.308-0.246,0.463-0.372c0.098-0.08,0.196-0.16,0.294-0.241c0.148-0.123,0.297-0.247,0.445-0.374
				c0.106-0.09,0.212-0.183,0.317-0.275c0.144-0.125,0.287-0.249,0.431-0.377c0.165-0.147,0.329-0.298,0.494-0.449
				c0.188-0.173,0.375-0.348,0.562-0.525c0.122-0.116,0.245-0.231,0.367-0.349c0.128-0.123,0.256-0.248,0.383-0.373
				c0.128-0.125,0.255-0.252,0.382-0.379c0.12-0.12,0.239-0.239,0.358-0.36c0.159-0.161,0.316-0.325,0.474-0.488
				c0.136-0.141,0.272-0.283,0.407-0.426c0.178-0.188,0.355-0.376,0.53-0.566c0.099-0.107,0.196-0.214,0.294-0.321
				c0.147-0.161,0.293-0.322,0.438-0.484c0.095-0.106,0.189-0.211,0.283-0.317c0.16-0.181,0.318-0.362,0.476-0.543
				c0.072-0.083,0.145-0.166,0.216-0.249c0.223-0.259,0.443-0.518,0.66-0.777c0.06-0.072,0.119-0.144,0.179-0.216
				c0.164-0.197,0.326-0.394,0.486-0.591c0.073-0.09,0.146-0.18,0.218-0.269c0.15-0.186,0.298-0.371,0.443-0.555
				c0.065-0.082,0.13-0.164,0.194-0.246c0.199-0.254,0.395-0.506,0.585-0.756c0.004-0.006,0.009-0.012,0.014-0.018
				c0.431-0.565,0.89-1.202,1.373-1.899c0.241-0.349,0.489-0.712,0.741-1.09c0.505-0.755,1.031-1.566,1.573-2.422
				c1.083-1.712,2.229-3.605,3.396-5.596c0.875-1.493,1.763-3.042,2.645-4.61c1.47-2.614,2.925-5.284,4.285-7.849
				c1.087-2.051,2.114-4.035,3.037-5.868c0.462-0.916,0.898-1.795,1.303-2.626c1.823-3.739,3.022-6.505,3.126-7.355
				c0.092-0.756-0.135-2.04-0.528-3.542c-0.098-0.375-0.207-0.764-0.323-1.162c-0.233-0.795-0.497-1.626-0.775-2.452
				c-0.346-1.033-0.712-2.059-1.06-3.002c-0.139-0.377-0.275-0.742-0.406-1.088c-0.72-1.904-1.28-3.261-1.28-3.261l8.395,12.268
				c0,0,0.516-0.622,1.358-1.68c0.241-0.302,0.507-0.64,0.797-1.009c0.289-0.369,0.6-0.769,0.929-1.195
				c0.329-0.427,0.676-0.88,1.036-1.356c0.18-0.238,0.363-0.481,0.549-0.73c0.558-0.746,1.141-1.537,1.734-2.359
				c0.395-0.548,0.795-1.11,1.194-1.68c1.074-1.536,2.146-3.138,3.133-4.723c0.224-0.36,0.443-0.719,0.657-1.076
				c0.323-0.538,0.632-1.071,0.926-1.597c0.249-0.445,0.49-0.886,0.714-1.318c0.288-0.555,0.553-1.097,0.791-1.622
				c0.119-0.262,0.232-0.521,0.337-0.774c0.161-0.388,0.309-0.777,0.449-1.165c0.024-0.067,0.049-0.134,0.073-0.201
				c0.131-0.371,0.252-0.742,0.365-1.112c0.022-0.072,0.043-0.143,0.064-0.215c0.112-0.377,0.218-0.753,0.313-1.127
				c0.007-0.025,0.012-0.051,0.018-0.076c0.091-0.363,0.174-0.724,0.25-1.081c0.012-0.058,0.026-0.117,0.038-0.175
				c0.074-0.359,0.141-0.714,0.202-1.065c0.012-0.071,0.024-0.142,0.036-0.212c0.058-0.352,0.112-0.7,0.157-1.042
				c0.005-0.041,0.01-0.08,0.015-0.121c0.043-0.328,0.08-0.651,0.112-0.969c0.005-0.045,0.01-0.091,0.014-0.137
				c0.032-0.328,0.058-0.648,0.08-0.963c0.004-0.064,0.009-0.127,0.013-0.191c0.02-0.309,0.036-0.612,0.048-0.906
				c0.002-0.045,0.003-0.089,0.004-0.134c0.01-0.283,0.017-0.558,0.021-0.825c0-0.029,0.001-0.059,0.001-0.087
				c0.003-0.277,0.002-0.542-0.001-0.8c-0.001-0.053-0.001-0.106-0.002-0.158c-0.004-0.247-0.01-0.485-0.018-0.712
				c-0.002-0.042-0.003-0.082-0.005-0.124c-0.009-0.222-0.019-0.436-0.03-0.636c-0.001-0.011-0.001-0.022-0.002-0.033
				c-0.012-0.208-0.026-0.398-0.04-0.58c-0.003-0.035-0.005-0.07-0.008-0.104c-0.013-0.157-0.026-0.304-0.039-0.439
				c1.44,0.984,2.818,2.085,4.14,3.178c1.922,1.589,4.672,4.028,7.649,6.837c0.47,0.647,0.997,1.303,1.579,1.968
				c1.907,5.302,4.072,12.018,4.794,16.927c1.247,8.48,1.595,36.516,1.651,42.574c-0.108-0.041-0.215-0.087-0.323-0.123
				c-7.433-2.478-9.704,7.226-9.704,7.226v5.368c0,0,4.542-9.084,6.813-8.259c1.653,0.601,3.195,7.979,3.913,13.863
				c0.123,2.917,0.244,5.786,0.347,8.212c-0.103,2.075-0.295,4.358-0.483,6.334c-1.784-0.269-0.474,4.006-0.474,4.006l-0.03,1.026v0
				l0,0l-1.622,56.577l-3.087,21.096h33.742c0,0-3.663-6.85-2.837-18.825c0.826-11.975,1.501-28.286,1.501-28.286
				s1.239-14.039,2.478-14.865c0.817-0.544-1.846,0.795-3.756,1.772l0,0c0.033-0.017,0.002-0.428-0.067-1.138l0-0.003h0
				c-0.459-4.721-2.658-22.961,0.067-31.394c3.136-9.704,6.233-16.517,9.949-17.549c0.302-0.084,0.549-0.15,0.774-0.208
				c-1.172-0.432-4.599-1.141-10.511,2.008v-2.227c0,0-0.136,0.046-0.374,0.131c0.089-8.443,0.525-18.361,1.918-24.072
				c2.767-11.346,2.767-25.735,5.258-28.503c1.409-1.565-3.851-0.296-9.579,2.802l0.8-3.39c1.57-4.652,3.707-9.131,6.121-13.449
				c-0.076,0.215-0.114,0.332-0.114,0.332s4.838,4.074,9.167,3.31c4.329-0.764,19.353-9.807,19.353-9.807l-3.056-11.074
				c0,0,3.565,9.167,9.167,8.148c5.602-1.019,40.233-8.658,44.562-9.422c4.329-0.764,2.546-16.551,2.546-16.551
				s4.329,18.589,9.167,18.079c4.838-0.509,36.413-1.019,37.177-1.019l2.292,0.255c0,0-5.022-29.236-59.789-28.81
				c-17.733-2.101-34.754,5.793-43.185,10.214c-8.431,4.421-25.415,14.576-35.273,30.178c-1.223,1.935-2.297,3.896-3.243,5.848
				c0.266-8.502,2.019-20.54,4.059-29.168c1.37,0.621,5.856,2.413,9.248,0.981c4.049-1.711,16.677-13.877,16.677-13.877
				l-2.438-4.525c0,0,2.509,2.553,7.743,0.31c4.102-1.758,24.507-10.13,35.07-14.527c2.912-1.212-3.092-7.03-2.261-6.571
				c7.018,3.878,20.286,0.847,20.286,0.847c3.578-1.225,22.93-3.969,31.715-5.209c2.737-0.387,5.152-1.979,6.588-4.341
				c0,0-11.69-24.466-63.426-14.915l0.425-0.22c-6.919,0.744-13.391,2.946-19.146,5.72c-8.539,3.695-15.312,8.552-20.671,13.871
				c0,0-0.001,0.001-0.001,0.001c-0.155,0.133-0.319,0.28-0.478,0.417c0.176-0.386,0.356-0.786,0.54-1.201
				c0.516-1.159,1.066-2.428,1.633-3.762c0.125-0.294,0.251-0.591,0.378-0.892c4.841-11.469,10.886-27.483,10.84-28.774
				c-0.008-0.228-0.175-0.385-0.458-0.489c-0.212-0.078-0.489-0.128-0.812-0.154c-0.215-0.018-0.452-0.026-0.703-0.027
				c-0.126,0-0.255,0.001-0.388,0.005c-0.795,0.019-1.703,0.097-2.576,0.173c-0.291,0.025-0.578,0.05-0.855,0.073
				c-0.555,0.046-1.073,0.081-1.509,0.09c-0.109,0.002-0.213,0.003-0.311,0.001c-0.393-0.006-0.695-0.044-0.86-0.131
				c-0.124-0.065-0.172-0.159-0.125-0.287c0.031-0.086,0.105-0.187,0.226-0.307c0.725-0.716,2.535-1.399,4.514-1.974
				c0.165-0.048,0.331-0.095,0.498-0.141c0.333-0.093,0.669-0.182,1.004-0.268c2.842-0.731,5.564-1.205,5.564-1.205
				s0.234-0.541,0.631-1.482c0.159-0.376,0.343-0.817,0.549-1.312c0.309-0.743,0.666-1.609,1.055-2.569
				c0.259-0.64,0.533-1.321,0.817-2.035c0.284-0.714,0.577-1.46,0.876-2.229c1.344-3.462,2.792-7.398,3.924-10.985
				c0.126-0.399,0.248-0.793,0.365-1.182c0.822-2.722,1.424-5.178,1.608-6.98c0.026-0.257,0.044-0.502,0.053-0.731
				c0.016-0.427,0.036-0.833,0.057-1.226c0.006-0.103,0.012-0.201,0.017-0.302c0.018-0.313,0.037-0.619,0.057-0.91
				c0.004-0.055,0.007-0.111,0.011-0.165c0.28-4.003,0.658-5.998-0.268-7.204c0,0,0,0,0,0c0,0,0,0,0,0
				c-0.064-0.084-0.135-0.164-0.212-0.241c0,0,0,0-0.001-0.001c-0.021-0.021-0.044-0.042-0.067-0.062v0
				c-0.273-0.25-0.614-0.469-1.062-0.66c-2.913-1.249-25.043,9.446-29.842,18.511c-4.799,9.065-13.385,21.205-13.818,24.739
				c-0.433,3.533,3.213,14.19,3.213,14.19s-5.21-2.399-6.802-11.873c0,0-6.092,12.638-10.178,23.848
				c-3.876-9.175-7.498-16.688-7.498-16.688c-1.934,11.512-8.265,14.426-8.265,14.426s4.43-12.949,3.904-17.242
				c-0.526-4.293-10.958-19.045-16.789-30.059c-5.831-11.015-32.722-24.009-36.261-22.492c-0.543,0.233-0.958,0.498-1.29,0.802l0,0
				c-0.027,0.025-0.055,0.05-0.081,0.076c0,0,0,0,0,0c-1.449,1.431-0.949,3.843-0.585,9.043c0.005,0.068,0.009,0.138,0.014,0.207
				c0.024,0.353,0.047,0.723,0.068,1.101c0.007,0.123,0.014,0.243,0.021,0.369c0.026,0.477,0.05,0.97,0.069,1.489
				c0.106,2.792,1.317,7.34,2.933,12.273c1.131,3.454,2.461,7.097,3.748,10.459c0.368,0.96,0.732,1.898,1.087,2.802
				c0.355,0.904,0.701,1.774,1.033,2.599c0.331,0.825,0.648,1.605,0.944,2.329c0.297,0.724,0.573,1.393,0.823,1.995
				c0.875,2.106,1.434,3.394,1.434,3.394s2.243,0.391,4.964,1.024c0.194,0.045,0.391,0.092,0.59,0.139
				c3.375,0.811,7.268,1.965,8.516,3.197c0.22,0.217,0.311,0.386,0.293,0.515c-0.006,0.043-0.023,0.081-0.052,0.116
				c-0.029,0.034-0.069,0.065-0.119,0.091c-0.06,0.032-0.14,0.057-0.229,0.078c-0.125,0.03-0.275,0.052-0.45,0.065
				c-0.114,0.008-0.234,0.014-0.366,0.016c-0.478,0.007-1.068-0.024-1.716-0.072c-0.162-0.012-0.328-0.025-0.496-0.039
				c-0.337-0.028-0.686-0.058-1.039-0.089c-0.53-0.046-1.071-0.093-1.6-0.131c-0.529-0.038-1.046-0.067-1.53-0.079
				c-0.322-0.008-0.629-0.008-0.914,0.003c-0.269,0.01-0.517,0.03-0.742,0.062c-0.307,0.042-0.563,0.109-0.763,0.201
				c-0.119,0.055-0.223,0.116-0.295,0.191c-0.095,0.098-0.148,0.215-0.153,0.353c-0.021,0.587,0.996,3.683,2.585,8.058
				c0.187,0.515,0.382,1.047,0.584,1.595c0.505,1.37,1.055,2.839,1.638,4.374c0.35,0.921,0.711,1.867,1.082,2.829
				c0.247,0.642,0.498,1.291,0.753,1.946c0.127,0.328,0.255,0.656,0.384,0.987c0.258,0.66,0.519,1.325,0.782,1.993
				c1.184,3.004,2.414,6.063,3.619,8.995c0.268,0.651,0.535,1.296,0.799,1.933c2.781,6.686,5.348,12.454,6.826,14.988
				c3.863,6.627,22.853,22.175,28.171,26.459c0.858,9.329,0.958,18.75,0.412,28.101l-0.004,0.156
				c-5.163-12.091-11.681-25.772-17.36-32.841c-11.559-14.387-24.838-21.093-33.715-24.533c-0.001,0-0.002-0.001-0.003-0.001
				c-6.821-3.238-14.821-5.572-24.102-6.223c-6.349-0.706-13.185-0.635-19.959,0.96l0.473,0.066
				C187.532,189.272,184.625,216.231,184.625,216.231z"/>
			<path style="fill:#E0E0E0;" d="M364.422,307.303c0,0-0.157-0.095-0.465-0.208C366.5,306.436,364.422,307.303,364.422,307.303z"/>
		</g>
		<g>
			<g>
				<path style="fill:#EBEBEB;" d="M127.224,302.461c0.094-0.193,0.183-0.383,0.268-0.571c0.17-0.376,0.324-0.741,0.462-1.092
					c0.069-0.176,0.134-0.348,0.196-0.516c0.801-2.189,0.988-3.728,0.988-3.728l0.757-1.377l0,0l0,0l-1.236-1.801l0,0l0,0
					l-0.269,0.282l-0.794,0.832l-0.38,0.138l-0.08,0.029c-0.002,0.003-0.005,0.005-0.007,0.008c-0.028,0.031-0.5,0.541-1.273,1.378
					c-0.18,0.194-0.376,0.407-0.586,0.634c-0.056,0.061-0.116,0.126-0.175,0.189c-0.865,0.935-1.947,2.105-3.139,3.392
					c-0.03,0.032-0.059,0.063-0.089,0.095c0.13-0.375,0.247-0.745,0.355-1.111c0.012-0.038,0.023-0.077,0.035-0.115
					c0.216-0.739,0.391-1.455,0.532-2.145c0.006-0.029,0.012-0.059,0.018-0.088c0.139-0.692,0.245-1.354,0.323-1.982
					c0.003-0.023,0.006-0.047,0.009-0.07c0.076-0.628,0.126-1.219,0.156-1.768c0.001-0.018,0.002-0.037,0.003-0.055
					c0.021-0.407,0.032-0.791,0.034-1.148c3.185-4.279,3.731-8.484,3.731-8.484l0.757-1.299l-1.237-1.699l-1.063,1.051l-0.46,0.157
					c-0.003,0.003-0.006,0.006-0.008,0.008c-0.071,0.072-2.315,2.365-5.172,5.273c-1.534,1.552-3.033,3.041-4.503,4.46
					c-0.036-0.212-0.073-0.422-0.113-0.625c4.055-9.071,1.127-16.692,1.127-16.692l0.024-1.57l-0.655-0.258
					c0.385-1.18,0.805-2.38,1.273-3.605c2.517-6.587,6.158-9.741,9.313-13.359l-4.124-1.409
					c-7.419,6.059-11.13,19.242-12.928,30.756c0.075-1.316,0.158-2.653,0.25-4.015c0.085-1.228,0.166-2.384,0.239-3.417
					c0-0.004,0.001-0.008,0.001-0.012c0-0.001,0-0.003,0-0.005c0.183-2.609,0.312-4.431,0.327-4.637
					c0.001-0.007,0.001-0.014,0.002-0.021l-0.163-0.523l0.094-1.642l-1.888-0.071l-0.443,1.515c0,0-4.744,5.849-3.971,15.853
					c-0.179,0.58-0.362,1.259-0.528,2.031c-1.074-2.254-2.153-4.617-3.249-7.077c-0.481-1.089-0.934-2.112-1.339-3.029
					c-0.003-0.006-0.005-0.012-0.008-0.018c-0.001-0.002-0.002-0.004-0.003-0.006c-1.056-2.39-1.778-4.03-1.819-4.122
					c-0.002-0.005-0.004-0.01-0.007-0.015l-0.379-0.349l-0.663-1.446l-1.675,1.032l0.301,1.541c0,0-0.897,4.698,1.188,10.582
					l-0.093,0.061c-2.814-2.865-5.013-5.112-5.083-5.183c-0.003-0.003-0.006-0.006-0.008-0.008l-0.46-0.157l-1.063-1.051
					l-1.236,1.699l0.757,1.299c0,0,0.862,6.634,6.734,11.716c0.075,0.571,0.174,1.17,0.299,1.792
					c0.006,0.028,0.012,0.056,0.017,0.085c0.042,0.206,0.087,0.413,0.135,0.623l-0.932,0.57l0.081,0.411
					c-0.111-0.12-0.218-0.236-0.325-0.352c-1.915-2.069-3.25-3.516-3.299-3.568c-0.002-0.003-0.005-0.005-0.007-0.008l-0.122-0.044
					l-0.338-0.122l-1.063-1.114l0,0l0,0l-0.733,1.068l-0.503,0.733l0,0l0,0l0.757,1.377c0,0,0.111,0.91,0.527,2.327
					c0.041,0.142,0.086,0.288,0.134,0.44c0.096,0.303,0.204,0.624,0.327,0.961c0.062,0.168,0.127,0.341,0.196,0.516
					c0.138,0.351,0.291,0.717,0.461,1.092c0.34,0.751,0.748,1.545,1.235,2.355c0.244,0.405,0.507,0.814,0.792,1.224
					c0.285,0.41,0.591,0.821,0.921,1.229c0.454,0.562,0.955,1.119,1.5,1.664l-0.541,0.331l0.039,0.198
					c-2.137-2.161-3.671-3.716-3.727-3.772c-0.003-0.003-0.005-0.005-0.008-0.008l-0.46-0.156l-1.063-1.043l-1.236,1.686
					l0.757,1.289c0,0,0.836,6.372,6.454,11.38c0.062,0.257,0.13,0.518,0.203,0.782l-0.847,0.437
					c-0.369-0.373-0.723-0.731-1.053-1.065c-1.613-1.632-2.699-2.733-2.746-2.78c-0.003-0.003-0.005-0.005-0.008-0.008l-0.46-0.156
					l-1.063-1.042l-1.236,1.686l0.757,1.289c0,0,0.796,6.069,6.056,11.016c0.18,0.565,0.399,1.15,0.661,1.749
					c-0.031-0.026-0.061-0.051-0.092-0.077c-2.857-2.434-5.102-4.352-5.17-4.41c-0.003-0.002-0.005-0.005-0.008-0.007l-0.46-0.131
					l-1.063-0.879l-1.236,1.421l0.757,1.086c0,0,1.138,7.356,9.752,11.618c0,0,3.242,1.4,7.087,1.426
					c-0.825,1.177-1.104,2.574-1.065,3.936c0,0,0,0,0,0c0,0.003,0,0.007,0,0.01c0.039,1.368,0.382,2.717,0.723,4.056
					c0.214-0.18,0.421-0.366,0.622-0.555l-0.376,0.619c-0.411,3.466,0.464,7.029,2.476,10.083c0.071,0.108,0.175,0.231,0.323,0.225
					c0.127-0.005,0.215-0.103,0.283-0.192c2.014-2.624,3.582-6.172,3.52-9.285l-0.548-1.983c0-0.006,0.001-0.011,0.001-0.017
					c0.709,0.811,1.524,1.52,2.409,2.049c0.346-1.182,0.57-2.511,0.548-3.845c-0.027-1.819-0.517-3.645-1.765-5.125
					c3.5-0.185,6.322-1.403,6.322-1.403c8.614-4.262,9.752-11.618,9.752-11.618l0.757-1.086l-1.237-1.421l-1.063,0.879l-0.46,0.131
					c-0.003,0.002-0.005,0.005-0.008,0.007c-0.068,0.058-2.313,1.977-5.17,4.41c-0.031,0.026-0.061,0.051-0.092,0.077
					c0.057-0.13,0.11-0.258,0.163-0.386c4.415-3.362,6.34-7.654,7.138-10.201c0.042-0.133,0.08-0.26,0.116-0.383
					c0.143-0.491,0.24-0.9,0.303-1.203c0.08-0.379,0.108-0.592,0.108-0.592l0.757-1.289l-1.237-1.686l-1.063,1.042l-0.23,0.078
					l-0.23,0.078c-0.003,0.003-0.005,0.005-0.008,0.008c-0.04,0.04-0.834,0.845-2.064,2.09c-0.636,0.643-1.387,1.403-2.212,2.237
					l0.032-0.138l-0.545-0.281c0.131-0.436,0.244-0.863,0.345-1.281c5.618-5.008,6.454-11.38,6.454-11.38l0.757-1.289l-1.237-1.686
					l-1.063,1.043l-0.46,0.156c-0.003,0.003-0.005,0.005-0.008,0.008c-0.056,0.057-1.59,1.611-3.727,3.772l0.039-0.197l-0.359-0.22
					C124.926,306.514,126.293,304.377,127.224,302.461z"/>
			</g>
		</g>
		<g>
			<path style="fill:#EBEBEB;" d="M237.662,208.338l0.419-0.059c-5.994-1.411-12.043-1.474-17.661-0.849
				c-8.213,0.576-15.292,2.641-21.327,5.506c-0.001,0-0.002,0.001-0.002,0.001c-7.855,3.044-19.605,8.977-29.833,21.708
				c-5.025,6.255-10.793,18.361-15.361,29.059l-0.003-0.138c-0.483-8.275-0.395-16.611,0.365-24.866
				c4.705-3.791,21.509-17.549,24.927-23.412c1.307-2.242,3.579-7.347,6.04-13.262c0.234-0.563,0.47-1.134,0.708-1.711
				c1.067-2.594,2.155-5.3,3.202-7.959c0.233-0.591,0.464-1.179,0.692-1.763c0.114-0.292,0.228-0.583,0.34-0.873
				c0.225-0.58,0.448-1.154,0.667-1.722c0.328-0.852,0.648-1.688,0.957-2.503c0.516-1.358,1.002-2.658,1.449-3.87
				c0.179-0.485,0.351-0.956,0.517-1.411c1.406-3.871,2.306-6.61,2.287-7.13c-0.004-0.122-0.051-0.226-0.135-0.313
				c-0.064-0.067-0.156-0.121-0.261-0.169c-0.177-0.081-0.403-0.14-0.675-0.178c-0.199-0.028-0.418-0.046-0.656-0.055
				c-0.252-0.009-0.524-0.009-0.809-0.003c-0.428,0.011-0.885,0.036-1.354,0.07c-0.468,0.034-0.947,0.075-1.416,0.116
				c-0.313,0.027-0.621,0.054-0.92,0.079c-0.149,0.012-0.296,0.024-0.439,0.035c-0.574,0.043-1.096,0.07-1.519,0.064
				c-0.116-0.002-0.223-0.007-0.324-0.014c-0.155-0.011-0.287-0.031-0.398-0.057c-0.078-0.019-0.149-0.041-0.203-0.069
				c-0.044-0.023-0.08-0.05-0.105-0.081c-0.026-0.03-0.041-0.064-0.046-0.102c-0.015-0.114,0.065-0.263,0.259-0.455
				c1.105-1.09,4.549-2.111,7.536-2.829c0.176-0.042,0.35-0.083,0.522-0.123c2.407-0.561,4.392-0.906,4.392-0.906
				s0.494-1.14,1.269-3.003c0.221-0.532,0.466-1.124,0.728-1.765s0.543-1.331,0.836-2.061c0.293-0.73,0.599-1.5,0.914-2.299
				c0.314-0.8,0.636-1.629,0.962-2.479c1.139-2.975,2.315-6.198,3.316-9.254c1.43-4.366,2.502-8.39,2.596-10.86
				c0.017-0.459,0.039-0.895,0.061-1.318c0.006-0.111,0.013-0.217,0.019-0.327c0.019-0.335,0.039-0.662,0.061-0.974
				c0.004-0.061,0.008-0.123,0.013-0.183c0.322-4.602,0.764-6.736-0.518-8.002c0,0,0,0,0,0c-0.023-0.023-0.048-0.045-0.072-0.067v0
				c-0.293-0.27-0.661-0.504-1.141-0.71c-3.132-1.343-26.926,10.156-32.086,19.902c-5.16,9.746-14.391,22.8-14.856,26.598
				c-0.465,3.799,3.455,15.257,3.455,15.257s-5.602-2.579-7.313-12.765c0,0-3.205,6.647-6.635,14.766
				c-3.615-9.919-9.006-21.102-9.006-21.102c-1.409,8.383-6.019,10.506-6.019,10.506s3.226-9.43,2.843-12.556
				c-0.383-3.126-7.98-13.869-12.227-21.89c-4.247-8.021-23.829-17.484-26.406-16.379c-0.396,0.17-0.698,0.363-0.939,0.584h0
				c-0.02,0.018-0.04,0.036-0.059,0.055c0,0,0,0,0,0c-0.068,0.068-0.131,0.139-0.188,0.213c0,0,0,0,0,0c0,0,0,0,0,0
				c-0.819,1.067-0.485,2.832-0.237,6.374c0.003,0.048,0.007,0.097,0.01,0.146c0.018,0.258,0.034,0.529,0.05,0.805
				c0.005,0.089,0.01,0.176,0.015,0.267c0.019,0.348,0.036,0.707,0.05,1.085c0.008,0.203,0.023,0.419,0.047,0.647
				c0.163,1.595,0.696,3.768,1.423,6.176c0.104,0.344,0.212,0.693,0.323,1.046c1.002,3.174,2.283,6.657,3.472,9.72
				c0.264,0.681,0.524,1.341,0.775,1.972c0.251,0.631,0.493,1.234,0.723,1.8c0.344,0.849,0.66,1.616,0.933,2.273
				c0.182,0.438,0.345,0.828,0.486,1.161c0.351,0.832,0.558,1.311,0.558,1.311s2.409,0.419,4.923,1.066
				c0.296,0.076,0.593,0.155,0.888,0.237c0.148,0.041,0.295,0.083,0.44,0.125c1.751,0.509,3.352,1.114,3.994,1.747
				c0.107,0.106,0.172,0.195,0.2,0.271c0.042,0.114-0.001,0.196-0.111,0.254c-0.146,0.077-0.413,0.111-0.761,0.116
				c-0.087,0.001-0.179,0.001-0.276-0.001c-0.386-0.008-0.844-0.04-1.336-0.08c-0.245-0.02-0.499-0.042-0.757-0.065
				c-0.772-0.067-1.575-0.136-2.279-0.153c-0.117-0.003-0.232-0.004-0.343-0.004c-0.222,0.001-0.431,0.008-0.622,0.024
				c-0.286,0.024-0.531,0.067-0.718,0.137c-0.25,0.093-0.398,0.232-0.405,0.433c-0.041,1.142,5.309,15.312,9.592,25.46
				c0.112,0.266,0.224,0.529,0.334,0.789c0.502,1.181,0.989,2.304,1.445,3.329c0.163,0.367,0.323,0.721,0.478,1.063
				c-0.14-0.121-0.285-0.251-0.422-0.369c0,0-0.001-0.001-0.001-0.001c-4.742-4.706-10.735-9.005-18.291-12.274
				c-5.092-2.454-10.818-4.403-16.941-5.061l0.376,0.195c-45.779-8.451-56.123,13.198-56.123,13.198
				c1.271,2.09,3.408,3.5,5.83,3.841c7.774,1.098,24.897,3.525,28.063,4.609c0,0,11.74,2.682,17.95-0.75
				c0.736-0.407-4.577,4.742-2,5.814c9.347,3.89,27.402,11.298,31.032,12.854c4.631,1.984,6.852-0.274,6.852-0.274l-2.158,4.004
				c0,0,11.174,10.766,14.757,12.279c3.002,1.268,6.971-0.318,8.184-0.868c1.805,7.635,3.356,18.287,3.591,25.809
				c-0.837-1.727-1.788-3.463-2.87-5.175c-8.723-13.805-23.751-22.791-31.211-26.703c-7.46-3.912-22.522-10.897-38.213-9.038
				c-48.461-0.377-52.905,25.492-52.905,25.492l2.028-0.225c0.676,0,28.615,0.451,32.896,0.901
				c4.281,0.451,8.111-15.997,8.111-15.997s-1.577,13.97,2.253,14.646c3.83,0.676,34.474,7.435,39.431,8.337
				c4.957,0.901,8.112-7.21,8.112-7.21l-2.704,9.799c0,0,13.294,8.002,17.124,8.678c3.83,0.676,8.111-2.929,8.111-2.929
				s-0.034-0.104-0.101-0.294c2.136,3.82,4.027,7.784,5.417,11.9l0.708,3c-5.069-2.742-9.723-3.865-8.476-2.48
				c2.204,2.449,2.204,15.181,4.652,25.221c1.233,5.054,1.618,13.829,1.697,21.3c-0.21-0.075-0.331-0.116-0.331-0.116v1.971
				c-5.231-2.787-8.264-2.159-9.301-1.777c0.199,0.051,0.418,0.11,0.685,0.184c3.288,0.913,6.029,6.942,8.804,15.529
				c2.411,7.461,0.466,23.602,0.059,27.779l0,0l0,0.003c-0.061,0.629-0.088,0.992-0.059,1.007l0,0
				c-1.69-0.864-4.046-2.049-3.323-1.568c1.096,0.731,2.192,13.154,2.192,13.154s0.597,14.433,1.328,25.029
				c0.731,10.596-2.511,16.658-2.511,16.658h29.857l-2.732-18.667l-1.436-50.063l0,0l0,0l-0.026-0.908c0,0,1.159-3.782-0.419-3.544
				c-0.167-1.749-0.337-3.769-0.427-5.605c0.091-2.147,0.199-4.685,0.307-7.267c0.635-5.206,2-11.735,3.463-12.267
				c2.009-0.731,6.029,7.308,6.029,7.308v-4.75c0,0-2.01-8.586-8.586-6.394c-0.095,0.032-0.19,0.073-0.285,0.109
				c0.05-5.36,0.358-30.167,1.461-37.671c0.639-4.344,2.555-10.286,4.242-14.978c0.516-0.588,0.982-1.169,1.398-1.741
				c2.635-2.486,5.068-4.644,6.768-6.05c1.17-0.968,2.39-1.942,3.664-2.812c-0.012,0.119-0.023,0.249-0.034,0.388
				c-0.003,0.03-0.005,0.061-0.007,0.092c-0.012,0.16-0.025,0.329-0.035,0.513c-0.001,0.009-0.001,0.02-0.001,0.029
				c-0.01,0.177-0.019,0.366-0.027,0.563c-0.001,0.037-0.003,0.072-0.004,0.109c-0.007,0.201-0.012,0.411-0.016,0.63
				c-0.001,0.046-0.001,0.093-0.002,0.14c-0.003,0.228-0.003,0.462-0.001,0.708c0,0.025,0.001,0.052,0.001,0.077
				c0.003,0.236,0.009,0.48,0.018,0.73c0.001,0.04,0.002,0.078,0.004,0.118c0.01,0.26,0.025,0.528,0.042,0.801
				c0.004,0.056,0.007,0.112,0.011,0.169c0.02,0.279,0.042,0.562,0.071,0.852c0.004,0.04,0.009,0.081,0.013,0.121
				c0.029,0.281,0.061,0.567,0.099,0.857c0.005,0.036,0.009,0.071,0.013,0.107c0.04,0.303,0.087,0.611,0.139,0.923
				c0.01,0.063,0.021,0.125,0.032,0.188c0.053,0.311,0.113,0.625,0.178,0.943c0.011,0.052,0.023,0.103,0.034,0.155
				c0.067,0.317,0.141,0.635,0.221,0.957c0.006,0.022,0.011,0.045,0.016,0.067c0.084,0.33,0.177,0.663,0.277,0.997
				c0.019,0.063,0.037,0.127,0.057,0.19c0.1,0.327,0.207,0.655,0.323,0.983c0.021,0.059,0.043,0.119,0.065,0.178
				c0.124,0.344,0.254,0.688,0.397,1.031c0.093,0.224,0.193,0.453,0.298,0.685c0.211,0.465,0.446,0.944,0.7,1.435
				c0.198,0.382,0.411,0.773,0.632,1.166c0.26,0.465,0.534,0.937,0.819,1.413c0.189,0.316,0.383,0.633,0.582,0.952
				c0.873,1.402,1.821,2.82,2.772,4.179c0.353,0.505,0.707,1.002,1.057,1.487c0.524,0.727,1.04,1.427,1.534,2.087
				c0.165,0.22,0.327,0.436,0.486,0.646c0.318,0.421,0.625,0.822,0.916,1.2c0.291,0.378,0.566,0.731,0.822,1.058
				c0.256,0.326,0.492,0.625,0.705,0.892c0.745,0.936,1.201,1.486,1.201,1.486l7.428-10.856c0,0-0.496,1.201-1.133,2.885
				c-0.116,0.306-0.236,0.629-0.359,0.962c-0.308,0.835-0.632,1.743-0.938,2.657c-0.245,0.731-0.479,1.465-0.685,2.169
				c-0.103,0.352-0.199,0.696-0.286,1.028c-0.348,1.329-0.549,2.465-0.467,3.134c0.091,0.752,1.152,3.2,2.766,6.508
				c0.359,0.735,0.744,1.513,1.153,2.324c0.817,1.622,1.725,3.377,2.687,5.192c1.203,2.269,2.49,4.632,3.791,6.945
				c0.781,1.388,1.566,2.758,2.34,4.079c1.033,1.762,2.047,3.437,3.005,4.952c0.479,0.758,0.945,1.475,1.391,2.144
				c0.223,0.334,0.442,0.656,0.656,0.965c0.427,0.617,0.834,1.18,1.215,1.681c0.004,0.005,0.008,0.01,0.012,0.016
				c0.168,0.221,0.342,0.444,0.518,0.669c0.057,0.072,0.115,0.145,0.172,0.217c0.129,0.163,0.26,0.327,0.392,0.491
				c0.064,0.079,0.128,0.159,0.193,0.238c0.141,0.174,0.285,0.348,0.43,0.523c0.053,0.064,0.105,0.127,0.158,0.191
				c0.192,0.229,0.386,0.458,0.584,0.688c0.063,0.073,0.128,0.147,0.191,0.22c0.139,0.16,0.279,0.321,0.421,0.481
				c0.083,0.094,0.166,0.187,0.25,0.281c0.129,0.143,0.258,0.286,0.388,0.429c0.087,0.095,0.173,0.19,0.26,0.284
				c0.155,0.168,0.312,0.334,0.469,0.5c0.119,0.126,0.239,0.252,0.36,0.377c0.139,0.145,0.279,0.289,0.419,0.432
				c0.105,0.107,0.211,0.212,0.317,0.318c0.112,0.112,0.225,0.224,0.338,0.335c0.113,0.111,0.226,0.221,0.339,0.33
				c0.108,0.104,0.216,0.206,0.324,0.309c0.166,0.157,0.331,0.311,0.498,0.464c0.146,0.134,0.291,0.267,0.437,0.397
				c0.127,0.113,0.254,0.223,0.381,0.334c0.094,0.082,0.187,0.163,0.281,0.243c0.131,0.112,0.262,0.222,0.394,0.331
				c0.087,0.072,0.174,0.143,0.26,0.213c0.137,0.111,0.273,0.222,0.41,0.329c0.061,0.048,0.122,0.094,0.183,0.141
				c0.284,0.22,0.566,0.43,0.848,0.631c0.062,0.044,0.124,0.09,0.186,0.133c0.142,0.1,0.284,0.195,0.425,0.289
				c0.073,0.048,0.146,0.097,0.218,0.144c0.143,0.093,0.285,0.184,0.427,0.271c0.059,0.036,0.117,0.07,0.176,0.105
				c0.482,0.288,0.955,0.54,1.419,0.752c0.059,0.027,0.118,0.054,0.176,0.08c0.139,0.061,0.276,0.117,0.412,0.17
				c0.06,0.023,0.119,0.044,0.178,0.066c0.14,0.051,0.279,0.101,0.417,0.144c0.011,0.004,0.023,0.006,0.034,0.01
				c0.3,0.092,0.593,0.16,0.88,0.208c0.043,0.007,0.087,0.017,0.129,0.023c0.125,0.018,0.248,0.029,0.37,0.038
				c0.058,0.004,0.117,0.008,0.174,0.01c0.119,0.005,0.237,0.007,0.353,0.002c0.051-0.002,0.101-0.008,0.152-0.012
				c0.265-0.02,0.523-0.061,0.769-0.133c0.002-0.001,0.005-0.001,0.007-0.001v0c1.311-0.385,2.352-1.526,2.966-3.691
				c2.744-9.683,3.89-27.825-5.814-47.853c-9.112-18.808-15.467-23.04-15.467-23.04s-9.462-9.71-21.376-11.539
				c-0.964-0.441-1.959-0.826-2.995-1.134c-5.331-1.589-10.559,0.453-15.322,3.327c-1.766,1.066-4.567,3.376-7.585,6.067
				c-2.103,0.877-4.126,2.304-6.087,4.147c2.769-6.029,6.442-12.765,9.672-17.799c0.962,0.921,4.179,3.734,7.432,3.535
				c3.882-0.238,17.996-6.685,17.996-6.685l-0.706-4.493c0,0,1.345,2.868,6.372,2.533c3.941-0.263,23.431-1.258,33.539-1.825
				c2.787-0.156-0.516-6.777,0.043-6.149c4.719,5.299,16.684,6.665,16.684,6.665c3.347,0.028,20.305,3.422,28.002,4.967
				c2.398,0.481,4.882-0.139,6.774-1.689C286.222,239.416,283.651,215.561,237.662,208.338z"/>
			<path style="fill:#EBEBEB;" d="M127.128,320.002c0,0,0.139-0.084,0.411-0.184C125.289,319.235,127.128,320.002,127.128,320.002z"
				/>
		</g>
	</g>
	<g>
		<g>
			<g>
				<g>
					<g>
						<path style="fill:#E0E0E0;" d="M443.92,356.522H263.174c-3.232,0-5.862-2.63-5.862-5.862V87.386
							c0-3.232,2.63-5.862,5.862-5.862H443.92c3.232,0,5.862,2.629,5.862,5.862v263.273
							C449.783,353.892,447.153,356.522,443.92,356.522z M263.174,81.774c-3.095,0-5.612,2.518-5.612,5.612v263.273
							c0,3.095,2.518,5.612,5.612,5.612H443.92c3.095,0,5.612-2.517,5.612-5.612V87.386c0-3.094-2.518-5.612-5.612-5.612H263.174z"
							/>
					</g>
				</g>
				<g>
					<g>
						<path style="fill:#E0E0E0;" d="M235.493,356.522H54.746c-3.232,0-5.862-2.63-5.862-5.862V87.386
							c0-3.232,2.629-5.862,5.862-5.862h180.747c3.232,0,5.862,2.629,5.862,5.862v263.273
							C241.355,353.892,238.725,356.522,235.493,356.522z M54.746,81.774c-3.094,0-5.612,2.518-5.612,5.612v263.273
							c0,3.095,2.518,5.612,5.612,5.612h180.747c3.095,0,5.612-2.517,5.612-5.612V87.386c0-3.094-2.518-5.612-5.612-5.612H54.746z"
							/>
					</g>
				</g>
			</g>
			<g>
				<g>
					<rect x="0" y="417.591" style="fill:#E0E0E0;" width="500" height="0.25"/>
				</g>
			</g>
		</g>
		<rect x="51.672" y="431.856" style="fill:#E0E0E0;" width="16.06" height="0.25"/>
		<rect x="170.352" y="429.146" style="fill:#E0E0E0;" width="53.53" height="0.25"/>
		<rect x="68.732" y="441.146" style="fill:#E0E0E0;" width="36.25" height="0.25"/>
		<rect x="378.352" y="429.016" style="fill:#E0E0E0;" width="43.19" height="0.25"/>
		<rect x="430.452" y="429.016" style="fill:#E0E0E0;" width="6.33" height="0.25"/>
		<rect x="316.212" y="435.246" style="fill:#E0E0E0;" width="53.89" height="0.25"/>
	</g>
	<g>
		<g>
			<path style="fill:#EBEBEB;" d="M135.527,65.03c-1.931-1.459-4.748-1.624-6.837-0.401c-2.772-5.601-10.497-8.074-16.006-5.122
				c-1.437-6.036-7.384-10.676-13.588-10.601c-6.204,0.075-12.038,4.856-13.329,10.925c-0.205,0.964-0.341,2.021-1.031,2.725
				c-1.121,1.145-2.992,0.76-4.589,0.636c-5.025-0.392-10.08,3.136-11.447,7.987l69.195-0.252
				C138.502,68.584,137.458,66.488,135.527,65.03z"/>
		</g>
	</g>
	<g>
		<g>
			<path style="fill:#EBEBEB;" d="M458.998,363.489c-1.931-1.459-4.748-1.624-6.837-0.401c-2.772-5.601-10.496-8.074-16.006-5.122
				c-1.437-6.036-7.384-10.676-13.588-10.601c-6.204,0.075-12.038,4.856-13.33,10.925c-0.205,0.964-0.341,2.021-1.031,2.725
				c-1.121,1.145-2.992,0.76-4.589,0.636c-5.025-0.392-10.08,3.136-11.447,7.987l69.195-0.252
				C461.972,367.043,460.929,364.948,458.998,363.489z"/>
		</g>
	</g>
	<g>
		<g>
			<path style="fill:#F0F0F0;" d="M229.451,40.405c-1.178-0.89-2.896-0.991-4.17-0.245c-1.691-3.416-6.402-4.924-9.762-3.124
				c-0.876-3.681-4.504-6.511-8.288-6.465c-3.784,0.046-7.342,2.962-8.13,6.663c-0.125,0.588-0.208,1.233-0.629,1.662
				c-0.684,0.698-1.825,0.464-2.799,0.388c-3.064-0.239-6.148,1.912-6.982,4.871l42.202-0.154
				C231.265,42.572,230.629,41.295,229.451,40.405z"/>
		</g>
	</g>
	<g>
		<g>
			<path style="fill:#EBEBEB;" d="M445.611,58.166c-2.195-1.658-5.397-1.846-7.771-0.456c-3.151-6.367-11.931-9.177-18.193-5.822
				c-1.633-6.861-8.393-12.134-15.445-12.049c-7.052,0.085-13.683,5.519-15.151,12.417c-0.233,1.096-0.388,2.297-1.172,3.098
				c-1.274,1.301-3.4,0.864-5.216,0.723c-5.711-0.445-11.457,3.564-13.011,9.078l78.648-0.286
				C448.992,62.205,447.806,59.824,445.611,58.166z"/>
		</g>
	</g>
	<g>
		<g>
			<path style="fill:#F0F0F0;" d="M87.728,108.054c-1.684-1.272-4.14-1.416-5.961-0.35c-2.417-4.884-9.152-7.039-13.956-4.466
				c-1.253-5.263-6.438-9.308-11.848-9.243c-5.41,0.065-10.496,4.234-11.622,9.525c-0.179,0.841-0.298,1.762-0.899,2.376
				c-0.977,0.998-2.608,0.663-4.001,0.554c-4.381-0.342-8.789,2.734-9.981,6.964l60.331-0.22
				C90.322,111.153,89.412,109.326,87.728,108.054z"/>
		</g>
	</g>
</g>
<g id="Background_simple" style="display:none;">
	<g style="display:inline;">
		<path style="fill:#407BFF;" d="M182.657,48.48c-21.5,3.796-42.162,11.432-60.399,23.157
			c-21.494,13.82-43.328,35.142-36.283,62.399c13.006,50.32,71.11,50.208,60.116,84.394c-12.453,38.722-2.841,83.713,56.331,95.22
			c112.388,21.856,245.256-120.076,205.88-196.07C383.787,70.27,296.818,28.323,182.657,48.48z"/>
		<path style="opacity:0.9;fill:#FFFFFF;" d="M182.657,48.48c-21.5,3.796-42.162,11.432-60.399,23.157
			c-21.494,13.82-43.328,35.142-36.283,62.399c13.006,50.32,71.11,50.208,60.116,84.394c-12.453,38.722-2.841,83.713,56.331,95.22
			c112.388,21.856,245.256-120.076,205.88-196.07C383.787,70.27,296.818,28.323,182.657,48.48z"/>
	</g>
</g>
<g id="Shadow">
	<g>
		<g>
			<path style="fill:#F5F5F5;" d="M435.381,457.874c0,3.387-82.998,6.132-185.381,6.132s-185.381-2.746-185.381-6.132
				c0-3.387,82.998-6.132,185.381-6.132S435.381,454.487,435.381,457.874z"/>
		</g>
	</g>
</g>
<g id="Banana_Tree">
	<g>
		<g>
			<g>
				<path style="fill:#407BFF;" d="M235.846,99.569c0,0,17.301,35.877,17.313,47.587c0.012,11.71-8.203,29.877-8.203,29.877
					l-3.606-0.491c0,0-25.903-20.518-30.556-28.499c-4.652-7.981-19.769-47.004-19.688-49.288c0.082-2.285,12.94,1.074,10.512-1.323
					c-2.428-2.397-14.539-4.506-14.539-4.506s-12.052-27.815-12.402-37.046c-0.349-9.231-1.815-11.956,1.843-13.524
					c3.657-1.568,31.445,11.86,37.47,23.242c6.026,11.382,16.806,26.626,17.349,31.062c0.544,4.436-4.035,17.817-4.035,17.817
					S233.848,111.464,235.846,99.569z"/>
				<path style="opacity:0.2;" d="M210.794,148.042c-4.652-7.981-19.769-47.004-19.688-49.288c0.082-2.285,12.94,1.074,10.512-1.323
					c-2.428-2.397-14.539-4.506-14.539-4.506s-12.052-27.815-12.402-37.046c-0.275-7.274-1.233-10.502,0.158-12.314
					c0.12-0.136,0.211-0.239,0.268-0.303c0.027-0.027,0.056-0.052,0.084-0.078c0.157,0.183,19.306,22.534,26.62,32.038
					c7.344,9.543,19.876,30.301,28.766,55.057c8.89,24.756,10.777,46.262,10.777,46.262S215.447,156.023,210.794,148.042z"/>
				<g>
					<path style="fill:#263238;" d="M240.33,204.422c1.59-27.239-2.087-55.052-13.835-79.68
						c-11.747-24.628-12.681-27.717-28.376-50.038c0,0-10.283-15.552-12.441-18.39c-2.157-2.838-2.843-4.137-2.843-4.137
						c15.655,15.807,34.146,42.603,45.893,67.231c11.747,24.628,19.631,63.475,18.04,90.715l0.223,24.489l-7.019-14.285
						L240.33,204.422z"/>
				</g>
			</g>
			<g>
				<g>
					<path style="fill:#263238;" d="M233.331,138.339c-5.675,0.142-11.088,0.754-16.655,1.866
						C221.781,137.762,227.812,137.092,233.331,138.339L233.331,138.339z"/>
				</g>
				<g>
					<path style="fill:#263238;" d="M235.778,147.194c-3.247,0.331-6.312,0.319-9.555-0.055
						C229.317,146.133,232.695,146.158,235.778,147.194L235.778,147.194z"/>
				</g>
				<g>
					<path style="fill:#263238;" d="M239.829,124.145c-1.253,3.571-3.622,6.739-6.703,8.938
						C235.214,129.91,237.372,127.042,239.829,124.145L239.829,124.145z"/>
				</g>
				<g>
					<path style="fill:#263238;" d="M221.125,112.01c-6.199-1.038-12.243-1.968-18.465-2.857
						C208.913,108.653,215.315,109.649,221.125,112.01L221.125,112.01z"/>
				</g>
				<g>
					<path style="fill:#263238;" d="M224.595,118.032c-3.902,0.413-7.773,0.146-11.579-0.812
						C216.919,116.802,220.789,117.079,224.595,118.032L224.595,118.032z"/>
				</g>
				<g>
					<path style="fill:#263238;" d="M203.495,86.692c-4.423-0.841-8.633-2.327-12.596-4.464
						C195.324,83.064,199.53,84.56,203.495,86.692L203.495,86.692z"/>
				</g>
				<g>
					<path style="fill:#263238;" d="M202.113,76.284c-6.318-2.575-12.595-4.735-19.156-6.608
						C189.746,70.171,196.46,72.493,202.113,76.284L202.113,76.284z"/>
				</g>
				<g>
					<path style="fill:#263238;" d="M209.566,87.582c0.588-4.105,2.347-8.035,5.031-11.199
						C213.102,80.266,211.471,83.884,209.566,87.582L209.566,87.582z"/>
				</g>
			</g>
			<path style="opacity:0.4;" d="M235.846,99.569c0,0,17.301,35.877,17.313,47.587c0.012,11.71-8.203,29.877-8.203,29.877
				l-3.606-0.491c0,0-25.903-20.518-30.556-28.499c-4.652-7.981-19.769-47.004-19.688-49.288c0.082-2.285,12.94,1.074,10.512-1.323
				c-2.428-2.397-14.539-4.506-14.539-4.506s-12.052-27.815-12.402-37.046c-0.349-9.231-1.815-11.956,1.843-13.524
				c3.657-1.568,31.445,11.86,37.47,23.242c6.026,11.382,16.806,26.626,17.349,31.062c0.544,4.436-4.035,17.817-4.035,17.817
				S233.848,111.464,235.846,99.569z"/>
		</g>
		<g>
			<path style="fill:#263238;" d="M352.636,160.237c-14.377,2.762-29.047,5.63-41.776,12.862
				c-11.543,6.559-22.461,15.966-30.654,26.413c-7.636,9.737-20.405,33.676-23.672,45.611l-15.537,20.331
				c0,0,18.882-52.464,33.395-70.528c14.513-18.064,31.187-26.485,42.334-30.803c11.146-4.319,33.502-11.749,55.327-6.61
				L352.636,160.237z"/>
		</g>
		<path style="fill:#407BFF;" d="M367.345,187.586c-0.793-0.891,3.894,8.503-0.061,8.725c-14.343,0.805-42.001,2.217-47.592,2.589
			c-7.134,0.475-9.042-3.594-9.042-3.594l1.002,6.376c0,0-20.027,9.148-25.536,9.486c-5.509,0.338-10.966-5.432-10.966-5.432
			s25.296-58.261,93.379-48.58c68.083,9.681,71.838,44.54,71.838,44.54l0,0c-2.685,2.199-6.21,3.079-9.613,2.396
			c-10.922-2.192-34.986-7.008-39.735-7.048C391.019,197.044,374.042,195.105,367.345,187.586z"/>
		<g>
			<path style="fill:#407BFF;" d="M258.041,108.559c0,0-21.022,43.593-21.036,57.823c-0.014,14.229,9.967,36.303,9.967,36.303
				l4.382-0.597c0,0,31.474-24.932,37.128-34.629c5.653-9.697,24.022-57.114,23.922-59.89c-0.099-2.776-15.723,1.305-12.773-1.608
				c2.951-2.913,17.666-5.475,17.666-5.475s14.645-33.798,15.069-45.014c0.425-11.217,2.205-14.528-2.239-16.433
				c-4.444-1.905-38.208,14.411-45.53,28.241c-7.322,13.83-20.421,32.353-21.081,37.743c-0.66,5.39,4.902,21.65,4.902,21.65
				S260.469,123.013,258.041,108.559z"/>
			<path style="opacity:0.2;" d="M288.481,167.458c5.653-9.697,24.022-57.114,23.922-59.89c-0.099-2.776-15.723,1.305-12.773-1.608
				c2.951-2.913,17.666-5.475,17.666-5.475s14.644-33.798,15.069-45.014c0.335-8.839,1.499-12.761-0.192-14.962
				c-0.145-0.165-0.257-0.291-0.325-0.368c-0.033-0.032-0.068-0.064-0.102-0.095c-0.191,0.223-23.459,27.381-32.345,38.929
				c-8.923,11.596-24.151,36.819-34.953,66.899c-10.802,30.081-13.095,56.213-13.095,56.213S282.828,177.156,288.481,167.458z"/>
			<g>
				<path style="fill:#263238;" d="M252.592,235.965c-1.932-33.098,2.537-66.894,16.81-96.819
					c14.274-29.925,15.409-33.679,34.48-60.8c0,0,12.495-18.897,15.117-22.346c2.621-3.448,3.455-5.026,3.455-5.026
					c-19.022,19.207-41.491,51.766-55.764,81.691c-14.274,29.925-23.853,77.128-21.921,110.227l-0.271,29.756l8.529-17.357
					L252.592,235.965z"/>
			</g>
		</g>
		<g>
			<g>
				<path style="fill:#263238;" d="M209.448,226.886l-7.577-2.588c-22.464,18.344-26.439,72.257-26.64,89.36
					c3.038,0.481,6.751-1.395,9.789-0.914c-1.601-8.67-4.037-31.592,7.319-61.316C196.963,239.327,203.653,233.531,209.448,226.886z
					"/>
			</g>
			<g>
				<path style="fill:#263238;" d="M181.6,395.109c0.091,4.537-2.196,9.708-5.131,13.532c-0.1,0.13-0.228,0.273-0.413,0.28
					c-0.216,0.009-0.367-0.17-0.471-0.328c-2.933-4.45-4.209-9.645-3.609-14.695l6.384-10.508L181.6,395.109z"/>
			</g>
			<g style="opacity:0.2;">
				<path style="fill:#FFFFFF;" d="M182.58,399.37c0.114,5.719-2.768,12.236-6.467,17.057c-0.125,0.164-0.288,0.344-0.521,0.353
					c-0.273,0.011-0.462-0.215-0.594-0.414c-3.697-5.609-5.305-12.156-4.549-18.523l8.046-13.245L182.58,399.37z"/>
			</g>
			<g>
				<g>
					<path style="fill:#407BFF;" d="M191.161,261.408c0,0,5.826,15.141-3.019,32.673c0,0-4.51,7.933-11.815,12.05l-1.661-1.249
						c0,0,3.874-11.217,6.927-23.721c2.59-10.608,4.95-20.374,4.95-20.374l0.571-0.755l0.729-2.83l3.363,1.321L191.161,261.408z"/>
					<path style="opacity:0.3;" d="M187.114,260.032l1.451,0.493c0,0-4.217,27.698-8.997,36.404l-3.849,8.745l-1.053-0.792
						c3.566-10.498,6.71-22.617,9.917-36.008c0.634-2.647,1.335-5.366,1.96-8.087L187.114,260.032z"/>
					<g>
						<path style="fill:#263238;" d="M188.279,261.46c-1.491,15.144-5.625,30.179-12.422,43.807
							C182.368,291.503,186.475,276.569,188.279,261.46L188.279,261.46z"/>
					</g>
					<polygon style="fill:#263238;" points="187.842,257.202 191.205,258.523 191.161,261.408 187.114,260.032 					"/>
				</g>
				<g>
					<path style="fill:#407BFF;" d="M139.691,278.614c0,0,2.091,16.154,17.915,25.512c0,0,7.597,3.931,15.807,2.994l0.842-2.041
						c0,0-8.59-7.057-17.077-15.684c-7.2-7.318-13.809-14.069-13.809-14.069l-0.845-0.289l-1.953-1.93l-2.272,3.121L139.691,278.614
						z"/>
					<path style="opacity:0.3;" d="M142.525,275.037l-1.016,1.282c0,0,16.613,20.634,24.804,25.048l7.409,5.005l0.534-1.294
						c-7.988-6.641-16.373-14.89-25.41-24.165c-1.786-1.834-3.663-3.687-5.476-5.588L142.525,275.037z"/>
					<g>
						<path style="fill:#263238;" d="M142.193,276.929c8.543,11.455,19.112,21.563,31.22,29.186
							C161.136,298.76,150.483,288.572,142.193,276.929L142.193,276.929z"/>
					</g>
					<polygon style="fill:#263238;" points="140.572,273.107 138.3,276.228 139.691,278.614 142.525,275.037 					"/>
				</g>
				<g>
					<path style="fill:#407BFF;" d="M150.713,265.31c0,0-3.057,15.932,8.748,31.624c0,0,5.841,7.011,13.759,9.771l1.414-1.523
						c0,0-5.796-10.355-11.012-22.123c-4.425-9.983-8.474-19.177-8.474-19.177l-0.696-0.642l-1.218-2.657l-3.076,1.895
						L150.713,265.31z"/>
					<path style="opacity:0.3;" d="M154.453,263.241l-1.341,0.742c0,0,9.048,26.516,15.292,34.239l5.334,7.926l0.897-0.966
						c-5.366-9.703-10.603-21.074-16.128-33.687c-1.092-2.493-2.262-5.045-3.358-7.613L154.453,263.241z"/>
					<g>
						<path style="fill:#263238;" d="M153.559,264.852c4.446,14.552,11.129,28.524,19.972,40.921
							C164.431,293.561,157.705,279.494,153.559,264.852L153.559,264.852z"/>
					</g>
					<polygon style="fill:#263238;" points="153.236,260.584 150.16,262.479 150.713,265.31 154.453,263.241 					"/>
				</g>
				<g>
					<path style="fill:#407BFF;" d="M175.215,257.237c0,0-9.817,12.094-6.922,32.572c0,0,1.774,9.477,7.237,16.457l1.89-0.508
						c0,0-0.219-12.361,0.694-25.615c0.775-11.244,1.51-21.585,1.51-21.585l-0.299-0.96l0.172-3.016l-3.468-0.13L175.215,257.237z"
						/>
					<path style="opacity:0.3;" d="M179.325,257.599l-1.474-0.13c0,0-4.351,28.302-2.558,38.631l0.929,9.98l1.198-0.322
						c-0.151-11.544,0.565-24.466,1.599-38.634c0.204-2.801,0.369-5.698,0.604-8.565L179.325,257.599z"/>
					<g>
						<path style="fill:#263238;" d="M177.836,258.484c-2.872,15.499-3.462,31.492-1.619,47.15
							C174.061,290.014,174.657,273.924,177.836,258.484L177.836,258.484z"/>
					</g>
					<polygon style="fill:#263238;" points="179.498,254.583 176.029,254.453 175.215,257.237 179.325,257.599 					"/>
				</g>
				<g>
					<path style="fill:#407BFF;" d="M210.766,278.614c0,0-2.091,16.154-17.915,25.512c0,0-7.597,3.931-15.807,2.994l-0.842-2.041
						c0,0,8.59-7.057,17.077-15.684c7.2-7.318,13.809-14.069,13.809-14.069l0.845-0.289l1.953-1.93l2.271,3.121L210.766,278.614z"/>
					<path style="opacity:0.3;" d="M207.932,275.037l1.016,1.282c0,0-16.613,20.634-24.804,25.048l-7.409,5.005l-0.534-1.294
						c7.988-6.641,16.373-14.89,25.41-24.165c1.786-1.834,3.663-3.687,5.476-5.588L207.932,275.037z"/>
					<g>
						<path style="fill:#263238;" d="M208.264,276.929c-8.289,11.642-18.943,21.831-31.22,29.186
							C189.152,298.492,199.721,288.385,208.264,276.929L208.264,276.929z"/>
					</g>
					<polygon style="fill:#263238;" points="209.886,273.107 212.157,276.228 210.766,278.614 207.932,275.037 					"/>
				</g>
			</g>
			<g>
				<g>
					<path style="fill:#407BFF;" d="M140.978,302.805c0,0,2.091,17.128,17.915,27.05c0,0,7.597,4.168,15.807,3.174l0.842-2.164
						c0,0-8.59-7.483-17.077-16.63c-7.2-7.759-13.809-14.918-13.809-14.918l-0.845-0.306l-1.953-2.046l-2.272,3.309L140.978,302.805
						z"/>
					<path style="opacity:0.3;" d="M143.812,299.013l-1.016,1.36c0,0,16.613,21.878,24.804,26.558l7.409,5.307l0.534-1.372
						c-7.988-7.042-16.373-15.788-25.41-25.622c-1.786-1.944-3.663-3.909-5.477-5.925L143.812,299.013z"/>
					<g>
						<path style="fill:#263238;" d="M143.48,301.019c8.452,12.021,18.977,22.776,31.22,30.945
							C162.28,324.059,151.674,313.219,143.48,301.019L143.48,301.019z"/>
					</g>
					<polygon style="fill:#263238;" points="141.859,296.966 139.587,300.275 140.978,302.805 143.812,299.013 					"/>
				</g>
				<g>
					<path style="fill:#407BFF;" d="M152,288.7c0,0-3.057,16.893,8.748,33.531c0,0,5.842,7.434,13.759,10.361l1.414-1.615
						c0,0-5.796-10.979-11.012-23.457c-4.425-10.585-8.474-20.334-8.474-20.334l-0.696-0.68l-1.217-2.817l-3.076,2.009L152,288.7z"
						/>
					<path style="opacity:0.3;" d="M155.74,286.505l-1.341,0.787c0,0,9.048,28.115,15.292,36.304l5.334,8.404l0.897-1.024
						c-5.366-10.288-10.603-22.345-16.128-35.719c-1.092-2.644-2.262-5.349-3.358-8.072L155.74,286.505z"/>
					<g>
						<path style="fill:#263238;" d="M154.846,288.214c4.419,15.332,11.058,30.137,19.972,43.388
							C165.642,318.528,158.964,303.63,154.846,288.214L154.846,288.214z"/>
					</g>
					<polygon style="fill:#263238;" points="154.523,283.688 151.447,285.697 152,288.7 155.74,286.505 					"/>
				</g>
				<g>
					<path style="fill:#407BFF;" d="M169.581,282.046c0,0-7.566,14.437-1.156,35.286c0,0,3.394,9.569,9.987,15.851l1.773-0.878
						c0,0-2.364-12.866-3.768-26.874c-1.191-11.883-2.264-22.816-2.264-22.816l-0.461-0.948l-0.354-3.181l-3.438,0.503
						L169.581,282.046z"/>
					<path style="opacity:0.3;" d="M173.692,281.666l-1.474,0.136c0,0,0.633,30.354,4.193,40.809l2.649,10.25l1.124-0.557
						c-2.154-12.026-3.695-25.651-5.138-40.635c-0.285-2.962-0.626-6.017-0.893-9.055L173.692,281.666z"/>
					<g>
						<path style="fill:#263238;" d="M172.379,282.865c-0.133,16.69,2.05,33.468,6.599,49.531
							C174.126,316.42,171.933,299.551,172.379,282.865L172.379,282.865z"/>
					</g>
					<polygon style="fill:#263238;" points="173.337,278.486 169.899,278.989 169.581,282.046 173.692,281.666 					"/>
				</g>
				<g>
					<path style="fill:#407BFF;" d="M214.582,302.805c0,0-2.091,17.128-17.915,27.05c0,0-7.597,4.168-15.807,3.174l-0.843-2.164
						c0,0,8.59-7.483,17.078-16.63c7.2-7.759,13.808-14.918,13.808-14.918l0.845-0.306l1.953-2.046l2.272,3.309L214.582,302.805z"/>
					<path style="opacity:0.3;" d="M211.747,299.013l1.016,1.36c0,0-16.613,21.878-24.804,26.558l-7.409,5.307l-0.534-1.372
						c7.988-7.042,16.373-15.788,25.41-25.622c1.786-1.944,3.663-3.909,5.476-5.925L211.747,299.013z"/>
					<g>
						<path style="fill:#263238;" d="M212.079,301.019c-8.194,12.2-18.8,23.039-31.22,30.946
							C193.103,323.795,203.627,313.04,212.079,301.019L212.079,301.019z"/>
					</g>
					<polygon style="fill:#263238;" points="213.701,296.966 215.972,300.275 214.582,302.805 211.747,299.013 					"/>
				</g>
				<g>
					<path style="fill:#407BFF;" d="M203.559,288.7c0,0,3.057,16.893-8.748,33.531c0,0-5.842,7.434-13.759,10.361l-1.414-1.615
						c0,0,5.796-10.979,11.012-23.457c4.425-10.585,8.474-20.334,8.474-20.334l0.695-0.68l1.217-2.817l3.076,2.009L203.559,288.7z"
						/>
					<path style="opacity:0.3;" d="M199.819,286.505l1.341,0.787c0,0-9.048,28.115-15.292,36.304L180.534,332l-0.897-1.024
						c5.366-10.288,10.603-22.345,16.128-35.719c1.092-2.644,2.262-5.349,3.358-8.072L199.819,286.505z"/>
					<g>
						<path style="fill:#263238;" d="M200.713,288.214c-4.117,15.417-10.796,30.314-19.972,43.388
							C189.655,318.351,196.294,303.546,200.713,288.214L200.713,288.214z"/>
					</g>
					<polygon style="fill:#263238;" points="201.037,283.688 204.113,285.697 203.559,288.7 199.819,286.505 					"/>
				</g>
				<g>
					<path style="fill:#407BFF;" d="M184.979,280.308c0,0,8.481,13.596,3.451,35.045c0,0-2.759,9.892-8.92,16.841l-1.824-0.69
						c0,0,1.518-13.069,2.004-27.176c0.413-11.967,0.77-22.975,0.77-22.975l0.398-0.993l0.146-3.207l3.459,0.142L184.979,280.308z"
						/>
					<path style="opacity:0.3;" d="M180.857,280.36l1.478-0.019c0,0,1.346,30.316-1.521,41.108l-1.972,10.492l-1.157-0.437
						c1.363-12.211,2.012-25.95,2.474-41.034c0.091-2.982,0.232-6.062,0.301-9.118L180.857,280.36z"/>
					<g>
						<path style="fill:#263238;" d="M182.244,281.417c1.538,16.687,0.426,33.723-3.349,50.053
							C182.361,315.073,183.47,298.129,182.244,281.417L182.244,281.417z"/>
					</g>
					<polygon style="fill:#263238;" points="181.003,277.153 184.462,277.295 184.979,280.308 180.857,280.36 					"/>
				</g>
				<path style="opacity:0.3;" d="M213.701,296.966l-1.954,2.046l-0.844,0.306c-0.007,0.008-0.014,0.015-0.021,0.023
					c-0.175,0.19-4.279,4.634-9.497,10.267c-0.055,0.059-0.109,0.116-0.163,0.174c4.036-11.682,2.338-21.083,2.338-21.083
					l0.554-3.002l-3.076-2.009l-1.218,2.817l-0.696,0.68c-0.005,0.012-0.01,0.023-0.014,0.035c-0.123,0.295-2.63,6.331-5.823,13.984
					c-1.319,3.139-2.625,6.199-3.924,9.169c2.766-18.54-4.383-30.066-4.383-30.066l-0.516-3.013l-3.459-0.142l-0.146,3.207
					l-0.398,0.993c0,0.015-0.001,0.03-0.001,0.045c-0.012,0.373-0.233,7.171-0.525,15.792c-0.32,8.854-0.735,17.217-1.365,25.032
					c-1.079-7.464-2-15.444-2.861-23.893c-0.85-8.545-1.512-15.282-1.55-15.668c-0.001-0.016-0.003-0.031-0.005-0.047l-0.461-0.948
					l-0.354-3.181l-3.438,0.503l-0.318,3.057c0,0-6.432,12.295-2.394,30.571c-1.625-3.67-3.259-7.475-4.914-11.413
					c-0.888-2.129-1.722-4.13-2.468-5.921c-0.004-0.008-0.007-0.017-0.01-0.025c-0.001-0.003-0.002-0.006-0.004-0.009
					c-1.929-4.631-3.252-7.815-3.34-8.027c-0.005-0.012-0.01-0.023-0.015-0.035l-0.696-0.68l-1.217-2.817l-3.076,2.009L152,288.7
					c0,0-1.697,9.401,2.338,21.083c-0.056-0.06-0.112-0.119-0.168-0.179c-5.216-5.631-9.318-10.073-9.493-10.263
					c-0.007-0.008-0.014-0.015-0.021-0.023l-0.845-0.306l-1.953-2.046l-2.272,3.309l1.391,2.53c0,0,2.091,17.128,17.915,27.05
					c0,0,7.597,4.168,15.807,3.174l0.308-0.792l0,0l0.153-0.393l0.76-0.868c-0.229-0.438-0.456-0.898-0.684-1.343
					c0.96,1.237,2.014,2.445,3.173,3.549l1.773-0.878c-0.045-0.25-0.086-0.511-0.13-0.762c0.013-0.015,0.026-0.03,0.038-0.046
					l0.305,0.348l0.461,1.185c8.21,0.993,15.807-3.174,15.807-3.174c15.824-9.922,17.915-27.05,17.915-27.05l1.391-2.53
					L213.701,296.966z"/>
			</g>
			<g>
				<g>
					<path style="fill:#407BFF;" d="M140.711,321.789c0,0,2.091,16.029,17.915,25.315c0,0,7.597,3.9,15.807,2.971l0.843-2.025
						c0,0-8.59-7.003-17.077-15.563c-7.2-7.262-13.809-13.961-13.809-13.961l-0.845-0.286l-1.953-1.915l-2.272,3.097
						L140.711,321.789z"/>
					<path style="opacity:0.3;" d="M143.545,318.24l-1.016,1.272c0,0,16.613,20.475,24.804,24.855l7.409,4.967l0.534-1.284
						c-7.988-6.59-16.373-14.776-25.41-23.979c-1.786-1.819-3.663-3.658-5.477-5.545L143.545,318.24z"/>
					<g>
						<path style="fill:#263238;" d="M143.213,320.118c8.555,11.383,19.13,21.407,31.22,28.961
							C162.175,341.794,151.515,331.688,143.213,320.118L143.213,320.118z"/>
					</g>
					<polygon style="fill:#263238;" points="141.592,316.324 139.32,319.422 140.711,321.789 143.545,318.24 					"/>
				</g>
				<g>
					<path style="fill:#407BFF;" d="M151.733,308.588c0,0-3.057,15.81,8.748,31.381c0,0,5.841,6.957,13.759,9.696l1.414-1.512
						c0,0-5.796-10.275-11.012-21.953c-4.425-9.906-8.474-19.03-8.474-19.03l-0.695-0.637l-1.218-2.637l-3.076,1.881
						L151.733,308.588z"/>
					<path style="opacity:0.3;" d="M155.473,306.534l-1.341,0.736c0,0,9.048,26.313,15.292,33.976l5.334,7.865l0.897-0.958
						c-5.366-9.628-10.603-20.912-16.128-33.428c-1.092-2.474-2.262-5.006-3.358-7.554L155.473,306.534z"/>
					<g>
						<path style="fill:#263238;" d="M154.579,308.133c4.45,14.452,11.139,28.319,19.972,40.606
							C165.461,336.637,158.729,322.676,154.579,308.133L154.579,308.133z"/>
					</g>
					<polygon style="fill:#263238;" points="154.256,303.898 151.179,305.778 151.733,308.588 155.473,306.534 					"/>
				</g>
				<g>
					<path style="fill:#407BFF;" d="M169.314,302.361c0,0-7.566,13.511-1.156,33.023c0,0,3.394,8.956,9.987,14.834l1.773-0.822
						c0,0-2.364-12.041-3.768-25.151c-1.191-11.121-2.264-21.353-2.264-21.353l-0.461-0.887l-0.354-2.977l-3.438,0.471
						L169.314,302.361z"/>
					<path style="opacity:0.3;" d="M173.424,302.006l-1.474,0.127c0,0,0.633,28.407,4.193,38.192l2.649,9.593l1.124-0.521
						c-2.154-11.255-3.695-24.006-5.138-38.029c-0.285-2.772-0.626-5.631-0.893-8.474L173.424,302.006z"/>
					<g>
						<path style="fill:#263238;" d="M172.112,303.127c-0.135,15.644,2.065,31.378,6.598,46.355
							C173.875,334.598,171.663,318.767,172.112,303.127L172.112,303.127z"/>
					</g>
					<polygon style="fill:#263238;" points="173.07,299.029 169.632,299.5 169.314,302.361 173.424,302.006 					"/>
				</g>
				<g>
					<path style="fill:#407BFF;" d="M214.314,321.789c0,0-2.091,16.029-17.915,25.315c0,0-7.597,3.9-15.807,2.971l-0.843-2.025
						c0,0,8.59-7.003,17.078-15.563c7.2-7.262,13.809-13.961,13.809-13.961l0.845-0.286l1.954-1.915l2.272,3.097L214.314,321.789z"
						/>
					<path style="opacity:0.3;" d="M211.48,318.24l1.016,1.272c0,0-16.613,20.475-24.804,24.855l-7.409,4.967l-0.534-1.284
						c7.988-6.59,16.373-14.776,25.41-23.979c1.786-1.819,3.663-3.658,5.476-5.545L211.48,318.24z"/>
					<g>
						<path style="fill:#263238;" d="M211.812,320.118c-8.302,11.57-18.962,21.676-31.22,28.961
							C192.682,341.525,203.257,331.501,211.812,320.118L211.812,320.118z"/>
					</g>
					<polygon style="fill:#263238;" points="213.434,316.324 215.705,319.422 214.314,321.789 211.48,318.24 					"/>
				</g>
				<g>
					<path style="fill:#407BFF;" d="M199.084,306.768c0,0,4.891,15.342-5.006,32.191c0,0-4.985,7.595-12.526,11.244l-1.582-1.335
						c0,0,4.55-10.884,8.36-23.093c3.232-10.357,6.183-19.893,6.183-19.893l0.616-0.714l0.9-2.761l3.276,1.507L199.084,306.768z"/>
					<path style="opacity:0.3;" d="M195.129,305.168l1.418,0.574c0,0-5.898,27.192-11.199,35.536l-4.374,8.437l-1.003-0.847
						c4.199-10.191,8.076-22.012,12.094-35.089c0.794-2.585,1.659-5.237,2.449-7.896L195.129,305.168z"/>
					<g>
						<path style="fill:#263238;" d="M196.204,306.651c-2.414,14.929-7.462,29.584-15.069,42.669
							C188.465,336.081,193.481,321.526,196.204,306.651L196.204,306.651z"/>
					</g>
					<polygon style="fill:#263238;" points="196.029,302.407 199.304,303.913 199.084,306.768 195.129,305.168 					"/>
				</g>
				<g>
					<path style="fill:#407BFF;" d="M181.789,300.573c0,0,9.023,12.346,4.865,32.618c0,0-2.357,9.368-8.23,16.132l-1.851-0.566
						c0,0,0.988-12.286,0.903-25.496c-0.072-11.207-0.16-21.515-0.16-21.515l0.357-0.945l0.016-3.005l3.462-0.017L181.789,300.573z"
						/>
					<path style="opacity:0.3;" d="M177.674,300.8l1.475-0.081c0,0,2.572,28.288,0.144,38.502l-1.546,9.895l-1.173-0.359
						c0.868-11.476,0.96-24.35,0.811-38.474c-0.029-2.792-0.013-5.678-0.069-8.538L177.674,300.8z"/>
					<g>
						<path style="fill:#263238;" d="M179.102,301.728c2.214,15.537,1.785,31.559-1.322,46.944
							C180.576,333.229,181.005,317.305,179.102,301.728L179.102,301.728z"/>
					</g>
					<polygon style="fill:#263238;" points="177.69,297.795 181.152,297.778 181.789,300.573 177.674,300.8 					"/>
				</g>
			</g>
			<g>
				<g>
					<path style="fill:#407BFF;" d="M140.711,341.119c0,0,2.091,16.029,17.915,25.315c0,0,7.597,3.9,15.807,2.971l0.843-2.025
						c0,0-8.59-7.003-17.077-15.563c-7.2-7.262-13.809-13.961-13.809-13.961l-0.845-0.286l-1.953-1.915l-2.272,3.097
						L140.711,341.119z"/>
					<path style="opacity:0.3;" d="M143.545,337.569l-1.016,1.272c0,0,16.613,20.475,24.804,24.855l7.409,4.967l0.534-1.284
						c-7.988-6.59-16.373-14.776-25.41-23.979c-1.786-1.819-3.663-3.658-5.477-5.545L143.545,337.569z"/>
					<g>
						<path style="fill:#263238;" d="M143.213,339.447c8.555,11.383,19.13,21.407,31.22,28.961
							C162.175,361.124,151.515,351.018,143.213,339.447L143.213,339.447z"/>
					</g>
					<polygon style="fill:#263238;" points="141.592,335.654 139.32,338.751 140.711,341.119 143.545,337.569 					"/>
				</g>
				<g>
					<path style="fill:#407BFF;" d="M151.733,327.918c0,0-3.057,15.81,8.748,31.381c0,0,5.841,6.957,13.759,9.696l1.414-1.512
						c0,0-5.796-10.275-11.012-21.953c-4.425-9.906-8.474-19.03-8.474-19.03l-0.695-0.637l-1.218-2.637l-3.076,1.881
						L151.733,327.918z"/>
					<path style="opacity:0.3;" d="M155.473,325.864l-1.341,0.736c0,0,9.048,26.312,15.292,33.976l5.334,7.865l0.897-0.958
						c-5.366-9.628-10.603-20.912-16.128-33.428c-1.092-2.474-2.262-5.006-3.358-7.555L155.473,325.864z"/>
					<g>
						<path style="fill:#263238;" d="M154.579,327.463c4.45,14.452,11.139,28.319,19.972,40.606
							C165.461,355.967,158.729,342.006,154.579,327.463L154.579,327.463z"/>
					</g>
					<polygon style="fill:#263238;" points="154.256,323.228 151.179,325.108 151.733,327.918 155.473,325.864 					"/>
				</g>
				<g>
					<path style="fill:#407BFF;" d="M169.314,321.691c0,0-7.566,13.511-1.156,33.023c0,0,3.394,8.955,9.987,14.834l1.773-0.822
						c0,0-2.364-12.041-3.768-25.151c-1.191-11.121-2.264-21.353-2.264-21.353l-0.461-0.887l-0.354-2.977l-3.438,0.471
						L169.314,321.691z"/>
					<path style="opacity:0.3;" d="M173.424,321.335l-1.474,0.127c0,0,0.633,28.407,4.193,38.192l2.649,9.593l1.124-0.521
						c-2.154-11.255-3.695-24.006-5.138-38.029c-0.285-2.772-0.626-5.631-0.893-8.474L173.424,321.335z"/>
					<g>
						<path style="fill:#263238;" d="M172.112,322.457c-0.135,15.644,2.065,31.378,6.598,46.355
							C173.875,353.927,171.663,338.097,172.112,322.457L172.112,322.457z"/>
					</g>
					<polygon style="fill:#263238;" points="173.07,318.359 169.632,318.83 169.314,321.691 173.424,321.335 					"/>
				</g>
				<g>
					<path style="fill:#407BFF;" d="M214.314,341.119c0,0-2.091,16.029-17.915,25.315c0,0-7.597,3.9-15.807,2.971l-0.843-2.025
						c0,0,8.59-7.003,17.078-15.563c7.2-7.262,13.809-13.961,13.809-13.961l0.845-0.286l1.954-1.915l2.272,3.097L214.314,341.119z"
						/>
					<path style="opacity:0.3;" d="M211.48,337.569l1.016,1.272c0,0-16.613,20.475-24.804,24.855l-7.409,4.967l-0.534-1.284
						c7.988-6.59,16.373-14.776,25.41-23.979c1.786-1.819,3.663-3.658,5.476-5.545L211.48,337.569z"/>
					<g>
						<path style="fill:#263238;" d="M211.812,339.447c-8.302,11.571-18.962,21.676-31.22,28.961
							C192.682,360.854,203.257,350.83,211.812,339.447L211.812,339.447z"/>
					</g>
					<polygon style="fill:#263238;" points="213.434,335.654 215.705,338.751 214.314,341.119 211.48,337.569 					"/>
				</g>
				<g>
					<path style="fill:#407BFF;" d="M203.292,327.918c0,0,3.057,15.81-8.748,31.381c0,0-5.841,6.957-13.759,9.696l-1.414-1.512
						c0,0,5.796-10.275,11.012-21.953c4.425-9.906,8.474-19.03,8.474-19.03l0.695-0.637l1.217-2.637l3.076,1.881L203.292,327.918z"
						/>
					<path style="opacity:0.3;" d="M199.552,325.864l1.341,0.736c0,0-9.048,26.312-15.292,33.976l-5.334,7.865l-0.897-0.958
						c5.366-9.628,10.603-20.912,16.128-33.428c1.092-2.474,2.262-5.006,3.359-7.555L199.552,325.864z"/>
					<g>
						<path style="fill:#263238;" d="M200.446,327.463c-4.149,14.543-10.882,28.504-19.972,40.606
							C189.307,355.782,195.996,341.915,200.446,327.463L200.446,327.463z"/>
					</g>
					<polygon style="fill:#263238;" points="200.769,323.228 203.846,325.108 203.292,327.918 199.552,325.864 					"/>
				</g>
				<g>
					<path style="fill:#407BFF;" d="M184.712,320.064c0,0,8.481,12.724,3.451,32.797c0,0-2.759,9.257-8.92,15.761l-1.825-0.646
						c0,0,1.518-12.231,2.004-25.434c0.413-11.2,0.77-21.502,0.77-21.502l0.398-0.929l0.146-3.001l3.459,0.133L184.712,320.064z"/>
					<path style="opacity:0.3;" d="M180.59,320.113l1.478-0.018c0,0,1.346,28.372-1.521,38.472l-1.972,9.819l-1.157-0.409
						c1.364-11.428,2.012-24.286,2.474-38.403c0.091-2.791,0.232-5.673,0.301-8.533L180.59,320.113z"/>
					<g>
						<path style="fill:#263238;" d="M181.977,321.102c1.541,15.618,0.419,31.606-3.349,46.843
							C182.088,352.638,183.205,336.746,181.977,321.102L181.977,321.102z"/>
					</g>
					<polygon style="fill:#263238;" points="180.736,317.112 184.195,317.245 184.712,320.064 180.59,320.113 					"/>
				</g>
				<path style="opacity:0.3;" d="M213.434,335.654l-1.954,1.915l-0.844,0.286c-0.007,0.007-0.014,0.014-0.021,0.021
					c-0.175,0.177-4.279,4.337-9.497,9.609c-0.055,0.055-0.109,0.108-0.163,0.163c4.036-10.933,2.338-19.731,2.338-19.731
					l0.554-2.81l-3.076-1.881l-1.218,2.637l-0.696,0.637c-0.005,0.011-0.01,0.022-0.015,0.033c-0.123,0.276-2.63,5.924-5.823,13.087
					c-1.319,2.938-2.625,5.801-3.924,8.581c2.766-17.351-4.383-28.138-4.383-28.138l-0.516-2.82l-3.459-0.133l-0.146,3.001
					l-0.398,0.929c0,0.014-0.001,0.028-0.001,0.042c-0.012,0.349-0.233,6.711-0.525,14.779c-0.32,8.287-0.735,16.113-1.365,23.426
					c-1.079-6.985-2-14.454-2.861-22.36c-0.85-7.997-1.512-14.302-1.55-14.663c-0.001-0.014-0.003-0.029-0.004-0.044l-0.461-0.887
					l-0.354-2.977l-3.438,0.471l-0.319,2.861c0,0-6.432,11.506-2.394,28.611c-1.625-3.435-3.259-6.996-4.914-10.682
					c-0.888-1.992-1.722-3.865-2.468-5.541c-0.003-0.008-0.007-0.016-0.01-0.023c-0.001-0.003-0.002-0.006-0.004-0.009
					c-1.929-4.334-3.252-7.314-3.34-7.513c-0.005-0.011-0.01-0.022-0.015-0.033l-0.696-0.637l-1.217-2.637l-3.076,1.881l0.554,2.81
					c0,0-1.697,8.798,2.338,19.731c-0.056-0.056-0.112-0.111-0.168-0.168c-5.216-5.27-9.318-9.427-9.493-9.605
					c-0.007-0.007-0.014-0.014-0.021-0.021l-0.845-0.286l-1.953-1.915l-2.272,3.097l1.391,2.367c0,0,2.091,16.029,17.915,25.315
					c0,0,7.597,3.9,15.807,2.971l0.308-0.741l0,0l0.153-0.368l0.76-0.813c-0.229-0.41-0.456-0.841-0.684-1.257
					c0.96,1.158,2.014,2.289,3.173,3.322l1.773-0.822c-0.045-0.234-0.085-0.478-0.13-0.713c0.013-0.014,0.026-0.029,0.038-0.043
					l0.305,0.325l0.461,1.109c8.21,0.93,15.807-2.971,15.807-2.971c15.824-9.286,17.915-25.315,17.915-25.315l1.391-2.367
					L213.434,335.654z"/>
			</g>
			<g>
				<g>
					<path style="fill:#407BFF;" d="M139.691,359.063c0,0,2.091,13.514,17.915,21.343c0,0,7.597,3.288,15.807,2.504l0.842-1.707
						c0,0-8.59-5.904-17.077-13.121c-7.2-6.122-13.809-11.77-13.809-11.77l-0.845-0.241l-1.953-1.615l-2.272,2.611L139.691,359.063z
						"/>
					<path style="opacity:0.3;" d="M142.525,356.071l-1.016,1.073c0,0,16.613,17.262,24.804,20.955l7.409,4.187l0.534-1.082
						c-7.988-5.556-16.373-12.457-25.41-20.217c-1.786-1.534-3.663-3.084-5.476-4.675L142.525,356.071z"/>
					<g>
						<path style="fill:#263238;" d="M142.193,357.654c8.833,9.888,19.496,18.225,31.22,24.417
							C161.542,376.161,150.791,367.751,142.193,357.654L142.193,357.654z"/>
					</g>
					<polygon style="fill:#263238;" points="140.572,354.456 138.3,357.067 139.691,359.063 142.525,356.071 					"/>
				</g>
				<g>
					<path style="fill:#407BFF;" d="M150.713,347.934c0,0-3.057,13.329,8.748,26.456c0,0,5.841,5.866,13.759,8.175l1.414-1.275
						c0,0-5.796-8.663-11.012-18.508c-4.425-8.351-8.474-16.044-8.474-16.044l-0.696-0.537l-1.218-2.223l-3.076,1.585
						L150.713,347.934z"/>
					<path style="opacity:0.3;" d="M154.453,346.202l-1.341,0.621c0,0,9.048,22.183,15.292,28.644l5.334,6.631l0.897-0.808
						c-5.366-8.117-10.603-17.63-16.128-28.182c-1.092-2.086-2.262-4.221-3.358-6.369L154.453,346.202z"/>
					<g>
						<path style="fill:#263238;" d="M153.559,347.55c4.548,12.454,11.37,24.145,19.972,34.234
							C164.689,371.902,157.811,360.111,153.559,347.55L153.559,347.55z"/>
					</g>
					<polygon style="fill:#263238;" points="153.236,343.98 150.16,345.565 150.713,347.934 154.453,346.202 					"/>
				</g>
				<g>
					<path style="fill:#407BFF;" d="M168.294,342.684c0,0-7.566,11.391-1.156,27.841c0,0,3.394,7.55,9.987,12.506l1.773-0.693
						c0,0-2.364-10.151-3.768-21.204c-1.191-9.376-2.264-18.002-2.264-18.002l-0.461-0.748l-0.354-2.509l-3.438,0.397
						L168.294,342.684z"/>
					<path style="opacity:0.3;" d="M172.405,342.384l-1.474,0.107c0,0,0.633,23.95,4.193,32.199l2.649,8.087l1.124-0.439
						c-2.154-9.489-3.695-20.239-5.138-32.062c-0.285-2.337-0.626-4.748-0.893-7.145L172.405,342.384z"/>
					<g>
						<path style="fill:#263238;" d="M171.092,343.33c-0.142,13.258,2.113,26.605,6.598,39.081
							C172.907,370.043,170.636,356.583,171.092,343.33L171.092,343.33z"/>
					</g>
					<polygon style="fill:#263238;" points="172.05,339.875 168.612,340.272 168.294,342.684 172.405,342.384 					"/>
				</g>
				<g>
					<path style="fill:#407BFF;" d="M213.294,359.063c0,0-2.091,13.514-17.915,21.343c0,0-7.597,3.288-15.807,2.504l-0.843-1.707
						c0,0,8.59-5.904,17.078-13.121c7.2-6.122,13.809-11.77,13.809-11.77l0.845-0.241l1.953-1.615l2.272,2.611L213.294,359.063z"/>
					<path style="opacity:0.3;" d="M210.46,356.071l1.016,1.073c0,0-16.613,17.262-24.804,20.955l-7.409,4.187l-0.534-1.082
						c7.988-5.556,16.373-12.457,25.41-20.217c1.786-1.534,3.663-3.084,5.476-4.675L210.46,356.071z"/>
					<g>
						<path style="fill:#263238;" d="M210.792,357.654c-8.597,10.096-19.349,18.507-31.22,24.417
							C191.296,375.88,201.959,367.542,210.792,357.654L210.792,357.654z"/>
					</g>
					<polygon style="fill:#263238;" points="212.414,354.456 214.685,357.067 213.294,359.063 210.46,356.071 					"/>
				</g>
				<g>
					<path style="fill:#407BFF;" d="M202.272,347.934c0,0,3.057,13.329-8.748,26.456c0,0-5.842,5.866-13.759,8.175l-1.414-1.275
						c0,0,5.796-8.663,11.012-18.508c4.425-8.351,8.475-16.044,8.475-16.044l0.695-0.537l1.217-2.223l3.076,1.585L202.272,347.934z"
						/>
					<path style="opacity:0.3;" d="M198.532,346.202l1.341,0.621c0,0-9.048,22.183-15.292,28.644l-5.334,6.631l-0.897-0.808
						c5.366-8.117,10.603-17.63,16.128-28.182c1.092-2.086,2.262-4.221,3.359-6.369L198.532,346.202z"/>
					<g>
						<path style="fill:#263238;" d="M199.426,347.55c-4.252,12.561-11.13,24.352-19.972,34.234
							C188.056,371.695,194.878,360.004,199.426,347.55L199.426,347.55z"/>
					</g>
					<polygon style="fill:#263238;" points="199.75,343.98 202.826,345.565 202.272,347.934 198.532,346.202 					"/>
				</g>
				<g>
					<path style="fill:#407BFF;" d="M183.692,341.313c0,0,8.481,10.727,3.451,27.651c0,0-2.759,7.805-8.92,13.288l-1.824-0.544
						c0,0,1.518-10.312,2.004-21.443c0.413-9.442,0.77-18.128,0.77-18.128l0.398-0.783l0.146-2.53l3.459,0.112L183.692,341.313z"/>
					<path style="opacity:0.3;" d="M179.57,341.354l1.478-0.015c0,0,1.346,23.92-1.521,32.435l-1.973,8.278l-1.157-0.345
						c1.364-9.635,2.012-20.475,2.474-32.377c0.091-2.353,0.232-4.783,0.301-7.194L179.57,341.354z"/>
					<g>
						<path style="fill:#263238;" d="M180.957,342.188c1.549,13.17,0.397,26.772-3.349,39.492
							C181.047,368.876,182.193,355.388,180.957,342.188L180.957,342.188z"/>
					</g>
					<polygon style="fill:#263238;" points="179.716,338.824 183.175,338.936 183.692,341.313 179.57,341.354 					"/>
				</g>
			</g>
			<g>
				<g>
					<path style="fill:#263238;" d="M177.824,378.837c-3.003,0.286-5.647,1.989-7.179,4.157c-1.532,2.168-2.049,4.749-1.977,7.263
						c0.072,2.514,0.702,4.991,1.329,7.451c5.599-4.693,8.841-11.275,8.809-17.888L177.824,378.837z"/>
				</g>
				<g style="opacity:0.3;">
					<path style="fill:#FFFFFF;" d="M177.824,378.855c-3.003,0.286-5.647,1.989-7.179,4.157c-1.532,2.168-2.049,4.749-1.977,7.263
						c0.072,2.514,0.702,4.991,1.329,7.451c5.599-4.693,8.841-11.275,8.809-17.888L177.824,378.855z"/>
				</g>
			</g>
			<g>
				<g>
					<path style="fill:#263238;" d="M177.845,378.854l-0.936,4.293c-0.733,5.657,3.458,12.929,9.091,16.295
						C188.034,392.497,187.764,382.799,177.845,378.854z"/>
				</g>
				<g style="opacity:0.4;">
					<path style="fill:#FFFFFF;" d="M177.845,378.872l-0.936,4.293c-0.733,5.657,3.458,12.929,9.091,16.295
						C188.034,392.515,187.764,382.818,177.845,378.872z"/>
				</g>
			</g>
		</g>
		<path style="fill:#407BFF;" d="M286.948,218.619c0,0-1.723,10.481,2.511,20.666c4.233,10.185,17.773,26.516,17.773,26.516
			l10.54-15.404c0,0-5.952,14.419-5.491,18.215c0.461,3.796,18.313,38.006,26.969,49.366c8.656,11.36,24.624,26.54,28.518,12.799
			c3.894-13.741,5.52-39.483-8.25-67.904c-12.93-26.688-21.948-32.694-21.948-32.694s-22.495-23.108-45.921-15.126L286.948,218.619z
			"/>
		<g style="opacity:0.2;">
			<path d="M363.56,336.013c-5.675-26.405-11.583-61.234-23.149-85.561c-3.292-6.924-8.32-12.937-13.414-18.668
				c-5.089-5.724-15.127-16.708-22.625-18.312c-0.042-0.003-0.084-0.003-0.126-0.006h-3.999c0,0-6.349,0.191-10.503,3.031
				l-0.836,0.634c-0.777,0.658-1.46,1.4-2.055,2.207c-0.296,2.533-0.968,11.345,2.607,19.946
				c4.233,10.185,17.773,26.516,17.773,26.516l10.54-15.404c0,0-5.952,14.419-5.491,18.215c0.461,3.796,18.313,38.006,26.969,49.366
				C345.971,326.798,357.098,337.913,363.56,336.013z"/>
		</g>
		<g>
			<path style="fill:#263238;" d="M251.679,243.675c5.382-5.774,22.811-22.681,29.569-26.759c6.758-4.078,14.177-6.975,21.741-4.721
				c5.296,1.579,9.912,4.424,13.943,8.204c8.825,8.274,13.676,13.518,21.2,25.59c2.52,4.043,4.688,8.296,6.498,12.703
				c1.772,4.314,4.035,10.036,5.58,14.723c2.712,8.225,5.974,22.11,7.012,27.905c1.038,5.795,1.642,13.918,1.145,11.448
				c-6.483-32.24-18.216-64.641-41.499-87.864c-4.752-4.739-11.791-9.303-18.502-9.238c-6.368,0.062-11.871,4.232-16.779,8.29
				c-6.465,5.346-20.388,18.34-27.287,27.447"/>
		</g>
		<g>
			<path style="fill:#263238;" d="M153.69,178.484c13.972,4.37,28.224,8.879,40.053,17.504c10.727,7.822,18.901,18.648,25.86,29.955
				c6.486,10.538,12.137,21.87,14.033,34.097l12.334,5.605c0,0-0.375-21.757-12.752-41.347
				c-12.377-19.59-33.702-32.341-44.289-37.892c-10.586-5.552-31.958-15.463-54.224-12.825L153.69,178.484z"/>
		</g>
		<path style="fill:#407BFF;" d="M59.633,209.754c0,0,6.306-36.709,75.072-36.174c69.824,0.544,88.628,58.874,88.628,58.874
			s-6.075,5.116-11.51,4.156c-5.435-0.959-24.299-12.313-24.299-12.313l3.837-13.904c0,0-4.476,11.51-11.51,10.231
			s-50.517-10.871-55.952-11.83c-5.435-0.959-3.197-20.782-3.197-20.782s-5.435,23.34-11.51,22.701
			c-6.075-0.639-45.721-1.279-46.68-1.279"/>
		<g>
			<path style="fill:#263238;" d="M174.739,126.126c12.645,7.377,25.532,14.952,35.138,25.999
				c8.711,10.018,15.888,22.516,20.149,35.09c3.971,11.719,8.07,38.54,7.19,50.883l7.907,24.335c0,0-0.397-55.757-8.092-77.615
				s-20.628-35.335-29.709-43.109c-9.081-7.774-27.703-22.203-49.996-24.599L174.739,126.126z"/>
		</g>
		<path style="fill:#407BFF;" d="M151.785,147.042c1.044-0.577-6.495,6.729-2.839,8.251c13.263,5.52,38.884,16.032,44.035,18.24
			c6.571,2.816,9.722-0.389,9.722-0.389l-3.062,5.682c0,0,15.855,15.277,20.939,17.424c5.084,2.148,12.147-1.484,12.147-1.484
			s-4.523-63.354-71.96-76.821c-67.437-13.467-82.549,18.17-82.549,18.17l0,0c1.803,2.966,4.836,4.966,8.272,5.451
			c11.031,1.557,35.329,5.002,39.822,6.54C126.314,148.106,142.973,151.912,151.785,147.042z"/>
		<path style="opacity:0.2;" d="M151.785,147.042c1.044-0.577-6.495,6.729-2.839,8.251c13.263,5.52,38.884,16.032,44.035,18.24
			c6.571,2.816,9.722-0.389,9.722-0.389l-3.062,5.682c0,0,15.855,15.277,20.939,17.424c5.084,2.148,12.147-1.484,12.147-1.484
			s-4.523-63.354-71.96-76.821c-67.437-13.467-82.549,18.17-82.549,18.17l0,0c1.803,2.966,4.836,4.966,8.272,5.451
			c11.031,1.557,35.329,5.002,39.822,6.54C126.314,148.106,142.973,151.912,151.785,147.042z"/>
		<path style="opacity:0.3;" d="M230.875,248.923l13.383,6.6c0,0,4.12-9.167,12.638-18.791c5.581-6.745,11.459-11.477,17.891-12.433
			c0.576,3.231-1.414,6.864-4.789,10.713l-22.111,38.81l-14.622-14.773L230.875,248.923z"/>
		<path style="fill:#263238;" d="M228.66,334.793c0,0,1.269-35.096-2.206-49.342c-3.475-14.246-3.475-32.313-6.602-35.788
			c-3.127-3.475,19.92,4.169,26.117,15.983c0,0,4.922-30.229,28.144-41.347c0,0-8.397,20.153-10.134,31.966
			c-1.737,11.814-2.085,53.856-2.085,54.898c0,1.042-1.658,39.881-1.658,39.881l-10.156,37.568L228.66,334.793z"/>
		<path style="opacity:0.3;" d="M228.393,315.511c0,0,11.671,3.969,14.65,8.021c0,0,8.314-13.124,15.139-17.317h0.632v8.756
			l-15.211,19.194l-15.211-13.353V315.511z"/>
		<path style="fill:#263238;" d="M228.66,378.933c-0.314-0.161,3.938-28.667,0-40.851c-3.938-12.184-7.827-20.739-12.493-22.035
			c-4.666-1.296-1.555,0-1.555,0s5.019-3.111,15.731,3.37s13.468,10.629,13.468,10.629s9.168-17.369,18.501-20.48
			c9.333-3.111,12.184,9.073,12.184,9.073v6.74c0,0-5.703-11.406-8.555-10.369c-2.852,1.037-5.444,18.147-5.444,24.368
			c0,6.222,1.311,16.843,1.333,17.62c0.022,0.777-14.036,37.598-14.036,37.598l-14.776-1.556L228.66,378.933z"/>
		<path style="opacity:0.2;fill:#FFFFFF;" d="M228.66,378.933c-0.314-0.161,3.938-28.667,0-40.851
			c-3.938-12.184-7.827-20.739-12.493-22.035c-4.666-1.296-1.555,0-1.555,0s5.019-3.111,15.731,3.37s13.468,10.629,13.468,10.629
			s9.168-17.369,18.501-20.48c9.333-3.111,12.184,9.073,12.184,9.073v6.74c0,0-5.703-11.406-8.555-10.369
			c-2.852,1.037-5.444,18.147-5.444,24.368c0,6.222,1.311,16.843,1.333,17.62c0.022,0.777-14.036,37.598-14.036,37.598
			l-14.776-1.556L228.66,378.933z"/>
		<path style="fill:#263238;" d="M225.377,454.526c0,0,4.6-8.602,3.563-23.637c-1.037-15.036-1.884-35.516-1.884-35.516
			s-1.555-17.628-3.111-18.665c-1.555-1.037,6.942,3.37,6.942,3.37s25.722-26.961,29.351-29.035
			c3.629-2.074,1.555,4.666,1.555,4.666l2.074,72.327l3.877,26.489H225.377z"/>
		<path style="opacity:0.3;fill:#FFFFFF;" d="M225.377,454.526c0,0,4.6-8.602,3.563-23.637c-1.037-15.036-1.884-35.516-1.884-35.516
			s-1.555-17.628-3.111-18.665c-1.555-1.037,6.942,3.37,6.942,3.37s25.722-26.961,29.351-29.035
			c3.629-2.074,1.555,4.666,1.555,4.666l2.074,72.327l3.877,26.489H225.377z"/>
		<path style="opacity:0.3;" d="M230.886,380.078c0,0,12.907,6.155,17.273,12.85c0,0-0.08-4.547-5.433-8.441
			c-5.354-3.894-13.982-6.987-13.982-6.987l-0.084,1.433L230.886,380.078z"/>
		<g style="opacity:0.3;">
			<path d="M262.481,323.624c0,0-8.158,6.728-10.609,10.542c1.275-8.095,6.595-15.449,13.885-19.194
				C265.757,314.971,263.575,316.606,262.481,323.624z"/>
		</g>
		<g>
			<g>
				<path style="fill:#263238;" d="M165.759,185.119c-1.445,6.659-3.341,13.135-5.732,19.516
					C161.082,197.906,163.013,191.352,165.759,185.119L165.759,185.119z"/>
			</g>
			<g>
				<path style="fill:#263238;" d="M160.812,176.394c-2.724,6.879-5.096,13.865-6.837,21.057c0,0-0.772,3.087-0.772,3.087
					C153.774,192.055,156.413,183.669,160.812,176.394L160.812,176.394z"/>
			</g>
			<g>
				<path style="fill:#263238;" d="M107.416,176.937c-3.542,6.952-6.152,14.339-7.503,22.027c-0.185,0.959-0.398,2.355-0.561,3.31
					C99.235,193.281,102.116,184.204,107.416,176.937L107.416,176.937z"/>
			</g>
			<g>
				<path style="fill:#263238;" d="M96.867,187.907c-1.323,4.487-2.273,8.798-2.973,13.423
					C93.183,196.724,94.283,191.784,96.867,187.907L96.867,187.907z"/>
			</g>
			<g>
				<path style="fill:#263238;" d="M208.221,205.307c-2.294,6.023-4.662,11.872-7.222,17.787
					C202.233,216.778,204.707,210.699,208.221,205.307L208.221,205.307z"/>
			</g>
			<g>
				<path style="fill:#263238;" d="M203.223,199.575c-0.949,3.976-2.269,7.706-4.047,11.387
					C199.623,206.906,201.015,203.006,203.223,199.575L203.223,199.575z"/>
			</g>
			<g>
				<path style="fill:#263238;" d="M147.246,179.711c-1.408,5.514-2.702,10.864-3.988,16.408
					C143.158,190.442,144.557,184.71,147.246,179.711L147.246,179.711z"/>
			</g>
		</g>
		<g>
			<g>
				<path style="fill:#263238;" d="M181.141,134.015c-2.407,6.375-5.233,12.502-8.535,18.463
					C174.637,145.977,177.51,139.777,181.141,134.015L181.141,134.015z"/>
			</g>
			<g>
				<path style="fill:#263238;" d="M177.529,124.658c-3.704,6.405-7.076,12.967-9.854,19.825l-1.216,2.94
					C168.268,139.117,172.109,131.208,177.529,124.658L177.529,124.658z"/>
			</g>
			<g>
				<path style="fill:#263238;" d="M124.631,117.357c-4.867,6.803-8.674,14.299-11.19,22.275c-0.158,0.536-0.327,1.07-0.506,1.604
					C114.14,132.323,118.321,123.767,124.631,117.357L124.631,117.357z"/>
			</g>
			<g>
				<path style="fill:#263238;" d="M112.586,126.659c-1.968,4.244-3.539,8.369-4.911,12.842
					C107.648,134.84,109.46,130.115,112.586,126.659L112.586,126.659z"/>
			</g>
			<g>
				<path style="fill:#263238;" d="M220.179,160.218c-3.153,5.621-6.355,11.059-9.754,16.535
					C212.572,170.685,215.912,165.035,220.179,160.218L220.179,160.218z"/>
			</g>
			<g>
				<path style="fill:#263238;" d="M216.077,153.814c-1.522,3.793-3.376,7.289-5.674,10.67
					C211.44,160.537,213.389,156.884,216.077,153.814L216.077,153.814z"/>
			</g>
			<g>
				<path style="fill:#263238;" d="M163.622,125.948c-2.202,5.248-4.268,10.349-6.353,15.644
					C158.003,135.962,160.229,130.498,163.622,125.948L163.622,125.948z"/>
			</g>
		</g>
		<g>
			<g>
				<path style="fill:#263238;" d="M327.502,169.001c2.746,6.232,4.677,12.787,5.732,19.516
					C330.843,182.136,328.947,175.661,327.502,169.001L327.502,169.001z"/>
			</g>
			<g>
				<path style="fill:#263238;" d="M332.449,160.276c4.4,7.275,7.038,15.662,7.609,24.143c0,0-0.772-3.087-0.772-3.087
					C337.545,174.141,335.173,167.155,332.449,160.276L332.449,160.276z"/>
			</g>
			<g>
				<path style="fill:#263238;" d="M385.845,160.819c5.301,7.267,8.181,16.344,8.064,25.337c-0.162-0.949-0.375-2.35-0.561-3.31
					C391.997,175.158,389.387,167.772,385.845,160.819L385.845,160.819z"/>
			</g>
			<g>
				<path style="fill:#263238;" d="M396.394,171.789c2.584,3.877,3.684,8.817,2.973,13.423
					C398.667,180.587,397.718,176.276,396.394,171.789L396.394,171.789z"/>
			</g>
			<g>
				<path style="fill:#263238;" d="M285.04,189.19c3.514,5.391,5.988,11.47,7.222,17.787
					C289.703,201.061,287.334,195.213,285.04,189.19L285.04,189.19z"/>
			</g>
			<g>
				<path style="fill:#263238;" d="M290.038,183.458c2.208,3.431,3.6,7.331,4.047,11.387
					C292.307,191.164,290.987,187.433,290.038,183.458L290.038,183.458z"/>
			</g>
			<g>
				<path style="fill:#263238;" d="M346.015,163.593c2.689,4.999,4.088,10.731,3.988,16.408
					C348.717,174.457,347.423,169.107,346.015,163.593L346.015,163.593z"/>
			</g>
		</g>
		<g>
			<g>
				<path style="fill:#263238;" d="M261.097,155.668c6.724-1.366,13.983-0.558,20.237,2.268
					C274.618,156.441,267.977,155.692,261.097,155.668L261.097,155.668z"/>
			</g>
			<g>
				<path style="fill:#263238;" d="M258.123,166.428c3.766-1.112,7.832-1.141,11.61-0.067
					C265.806,166.667,262.054,166.683,258.123,166.428L258.123,166.428z"/>
			</g>
			<g>
				<path style="fill:#263238;" d="M253.201,138.421c2.856,3.594,5.499,7.108,8.145,10.86
					C257.707,146.503,254.854,142.689,253.201,138.421L253.201,138.421z"/>
			</g>
			<g>
				<path style="fill:#263238;" d="M275.928,123.677c7.103-2.727,14.841-3.93,22.436-3.472
					C290.799,121.136,283.419,122.273,275.928,123.677L275.928,123.677z"/>
			</g>
			<g>
				<path style="fill:#263238;" d="M271.712,130.993c4.637-1.012,9.336-1.347,14.069-0.987
					C281.144,131.023,276.445,131.348,271.712,130.993L271.712,130.993z"/>
			</g>
			<g>
				<path style="fill:#263238;" d="M297.35,92.912c4.869-2.452,9.977-4.268,15.305-5.424
					C307.788,89.945,302.677,91.751,297.35,92.912L297.35,92.912z"/>
			</g>
			<g>
				<path style="fill:#263238;" d="M299.03,80.266c6.941-4.476,15.049-7.279,23.276-8.03
					C314.308,74.365,306.636,77.005,299.03,80.266L299.03,80.266z"/>
			</g>
			<g>
				<path style="fill:#263238;" d="M289.973,93.994c-2.173-4.54-4.168-8.966-6.113-13.608
					C286.994,84.309,289.116,89.048,289.973,93.994L289.973,93.994z"/>
			</g>
		</g>
		<g>
			<g>
				<path style="fill:#263238;" d="M315.155,223.133c-2.499,3.051-4.923,5.862-7.587,8.771
					C309.045,228.262,311.768,225.122,315.155,223.133L315.155,223.133z"/>
			</g>
			<g>
				<path style="fill:#263238;" d="M321.28,229.881c-5.611,4.364-10.321,9.441-14.267,15.352
					C309.694,238.669,314.933,233.04,321.28,229.881L321.28,229.881z"/>
			</g>
			<g>
				<path style="fill:#263238;" d="M340.418,257.297c-2.147,2.29-4.693,4.03-7.613,5.183
					C334.949,260.187,337.501,258.455,340.418,257.297L340.418,257.297z"/>
			</g>
			<g>
				<path style="fill:#263238;" d="M331.673,274.472c3.785-3.862,8.505-6.826,13.634-8.543
					C340.773,268.9,336.32,271.684,331.673,274.472L331.673,274.472z"/>
			</g>
			<g>
				<path style="fill:#263238;" d="M343.664,291.488c1.909-2.567,5.246-4.099,8.438-3.859
					C349.109,288.804,346.509,289.987,343.664,291.488L343.664,291.488z"/>
			</g>
			<g>
				<path style="fill:#263238;" d="M350.324,276.482c2.946-1.067,6.393-0.763,9.101,0.816
					C356.283,277.059,353.459,276.801,350.324,276.482L350.324,276.482z"/>
			</g>
			<g>
				<path style="fill:#263238;" d="M336.067,244.217c3.206-1.187,6.828-1.217,10.049-0.069
					C342.69,244.378,339.496,244.394,336.067,244.217L336.067,244.217z"/>
			</g>
		</g>
	</g>
</g>
</svg>
